<svg overflow="visible" style="display: block;" viewBox="0 0 116.4 31.4279" fill="none" xmlns="http://www.w3.org/2000/svg">
<g id="1 Forbes_logo 3">
<path id="Vector" d="M65.9405 10.6019C65.9405 7.22291 65.9987 4.07697 66.1733 1.16406L57.2687 2.85355V3.66916L58.1417 3.78568C58.7819 3.84394 59.1893 4.07697 59.4221 4.42652C59.6549 4.83433 59.8295 5.41691 59.9459 6.29078C60.0623 7.98027 60.1787 11.8253 60.1205 17.8842C60.1205 23.8847 60.0623 27.6715 59.9459 29.128C63.1469 29.8271 65.6495 30.1184 67.5119 30.1184C71.0039 30.1184 73.7393 29.128 75.7181 27.0889C77.6969 25.1082 78.7445 22.3118 78.7445 18.8745C78.7445 16.1364 77.9879 13.8643 76.4747 12.0583C74.9615 10.2523 73.0409 9.37846 70.7711 9.37846C69.2579 9.37846 67.6865 9.78627 65.9405 10.6019ZM66.1151 28.5454C65.9987 26.6811 65.8823 21.0884 65.8823 11.9418C66.4061 11.767 67.1045 11.6505 67.9775 11.6505C69.3743 11.6505 70.4801 12.3496 71.2949 13.8061C72.1097 15.2625 72.5171 17.0103 72.5171 19.2241C72.5171 21.9622 72.0515 24.176 71.1203 26.0403C70.1891 27.8463 69.0251 28.7784 67.5701 28.7784C67.1045 28.6619 66.6389 28.6037 66.1151 28.5454ZM23.862 1.74664H0.582031V2.91181L1.80423 3.02832C2.73543 3.2031 3.37563 3.55265 3.78303 4.07697C4.19043 4.65955 4.42322 5.59168 4.48142 6.87336C4.94702 13.1652 4.94702 19.0493 4.48142 24.4673C4.36503 25.749 4.13223 26.6811 3.78303 27.2637C3.37563 27.8463 2.73543 28.1958 1.80423 28.3124L0.582031 28.4871V29.6523H15.5976V28.4871L14.0262 28.3706C13.6428 28.3385 13.2698 28.229 12.9297 28.0488C12.5896 27.8686 12.2895 27.6214 12.0474 27.322C11.64 26.7394 11.4072 25.8073 11.349 24.5256C11.1744 22.1953 11.058 19.5154 11.058 16.5442L14.2008 16.6025C15.8886 16.6607 17.0526 17.9424 17.6346 20.5058H18.7986V11.0097H17.6346C17.0526 13.5148 15.9468 14.7965 14.2008 14.8547L11.058 14.913C11.058 9.66975 11.1744 5.94123 11.349 3.66916H15.9468C19.206 3.66916 21.4176 5.76646 22.698 9.96104L24.0948 9.55324L23.862 1.74664ZM21.1266 19.6902C21.1266 22.7196 21.9996 25.2247 23.6874 27.2055C25.3752 29.1862 27.8778 30.1184 31.0206 30.1184C34.1634 30.1184 36.7242 29.128 38.5866 27.0889C40.449 25.1082 41.322 22.6031 41.322 19.5736C41.322 16.5442 40.449 14.0391 38.7612 12.0583C37.0734 10.0776 34.5708 9.14543 31.428 9.14543C28.2852 9.14543 25.7244 10.1358 23.862 12.1749C21.9996 14.1556 21.1266 16.6607 21.1266 19.6902ZM34.1052 13.0487C34.8036 14.7382 35.0946 16.952 35.0946 19.6319C35.0946 25.8073 33.8142 28.8367 31.3116 28.8367C30.0312 28.8367 29.0418 27.9628 28.3434 26.2151C27.645 24.4673 27.354 22.2535 27.354 19.6319C27.354 13.5148 28.6344 10.4854 31.137 10.4854C32.4174 10.4271 33.4068 11.301 34.1052 13.0487ZM83.2841 27.2055C85.2047 29.128 87.6491 30.1184 90.5591 30.1184C92.3633 30.1184 93.9347 29.7688 95.3315 29.0115C96.7283 28.3124 97.8341 27.4385 98.5907 26.3898L98.0087 25.6907C96.7283 26.6811 95.2733 27.1472 93.5855 27.1472C91.2575 27.1472 89.4533 26.3898 88.2311 24.8169C86.9507 23.2439 86.3687 21.2631 86.4851 18.6998H98.9399C98.9399 15.9034 98.2415 13.6313 96.7865 11.8253C95.3315 10.0776 93.2945 9.20369 90.6755 9.20369C87.4163 9.20369 84.9137 10.2523 83.1095 12.2914C81.3053 14.3304 80.4323 16.8355 80.4323 19.8067C80.4323 22.8361 81.3635 25.2829 83.2841 27.2055ZM87.5909 12.5827C88.2311 11.1845 89.0459 10.4854 90.1517 10.4854C91.8977 10.4854 92.7707 12.6992 92.7707 17.1851L86.6015 17.3016C86.6597 15.5538 86.9507 13.9809 87.5909 12.5827ZM114.596 10.2523C113.024 9.55324 111.045 9.14543 108.659 9.14543C106.215 9.14543 104.294 9.78627 102.839 11.0097C101.384 12.2331 100.628 13.7478 100.628 15.5538C100.628 17.1268 101.093 18.3502 101.966 19.2241C102.839 20.098 104.236 20.8553 106.04 21.4962C107.67 22.0787 108.834 22.6613 109.416 23.1856C109.998 23.7682 110.347 24.4091 110.347 25.2829C110.347 26.0986 110.056 26.8559 109.416 27.4385C108.834 28.0793 108.019 28.3706 106.971 28.3706C104.411 28.3706 102.49 26.5064 101.151 22.7778L100.162 23.0691L100.395 28.8949C102.49 29.7106 104.818 30.1184 107.379 30.1184C110.056 30.1184 112.093 29.5358 113.606 28.3124C115.119 27.1472 115.876 25.4577 115.876 23.3604C115.876 21.9622 115.527 20.7971 114.77 19.9232C114.014 19.0493 112.791 18.292 111.045 17.5929C109.125 16.8938 107.786 16.2529 107.088 15.6703C106.389 15.0878 106.04 14.3887 106.04 13.5148C106.04 12.6409 106.273 11.9418 106.797 11.3592C107.321 10.7767 107.961 10.5436 108.776 10.5436C111.104 10.5436 112.791 12.2331 113.839 15.5538L114.828 15.2625L114.596 10.2523ZM58.6073 9.72801C57.7925 9.32021 56.9195 9.14543 55.9301 9.14543C54.9407 9.14543 53.9513 9.55324 52.8455 10.3689C51.7398 11.1845 50.925 12.2914 50.2848 13.8061L50.343 9.14543L41.4966 10.8932V11.7088L42.3696 11.767C43.4754 11.8836 44.1156 12.7574 44.232 14.3304C44.5812 17.9424 44.5812 21.7875 44.232 25.8655C44.1156 27.4385 43.4754 28.2541 42.3696 28.4289L41.4966 28.5454V29.6523H53.8349V28.5454L52.2635 28.4289C51.1578 28.3124 50.5176 27.4385 50.4012 25.8655C50.052 22.4865 49.9938 18.8745 50.2848 15.146C50.634 14.5634 51.3906 14.2139 52.5545 14.0974C53.7185 13.9809 55.0571 14.3304 56.4539 15.146L58.6073 9.72801Z" fill="var(--fill-0, #5A5A5A)"/>
</g>
</svg>
