<svg overflow="visible" style="display: block;" viewBox="0 0 97.0651 28.4208" fill="none" xmlns="http://www.w3.org/2000/svg">
<g id="g20">
<path id="path2" d="M9.64137 0.169919H7.32817C7.08011 0.169919 6.87802 0.371576 6.87802 0.620069V2.8448L3.21437 9.1829V0.620069C3.21437 0.371576 3.01315 0.169919 2.76422 0.169919H0.45015C0.201223 0.169919 0 0.371576 0 0.620069V27.9639C0 28.2119 0.201223 28.414 0.45015 28.414H2.76422C3.01315 28.414 3.21437 28.2119 3.21437 27.9639V17.842L6.87802 11.4939V27.9639C6.87802 28.2119 7.08011 28.414 7.32817 28.414H9.64137C9.8903 28.414 10.0924 28.2119 10.0924 27.9639V0.620069C10.0924 0.371576 9.8903 0.169919 9.64137 0.169919Z" fill="var(--fill-0, black)"/>
<path id="path4" d="M83.4322 0H81.1181C80.87 0 80.6679 0.201223 80.6679 0.45015V2.67445L77.0034 9.01298V0.45015C77.0034 0.201223 76.8022 0 76.5541 0H74.2401C73.9912 0 73.7891 0.201223 73.7891 0.45015V27.794C73.7891 28.042 73.9912 28.2441 74.2401 28.2441H76.5541C76.8022 28.2441 77.0034 28.042 77.0034 27.794V17.6721L80.6679 11.324V27.794C80.6679 28.042 80.87 28.2441 81.1181 28.2441H83.4322C83.6802 28.2441 83.8815 28.042 83.8815 27.794V0.45015C83.8815 0.201223 83.6802 0 83.4322 0Z" fill="var(--fill-0, black)"/>
<path id="path6" d="M31.2755 23.2999H28.8782C28.7012 23.2999 28.5573 23.1559 28.5573 22.979V17.9736C28.9441 17.3048 29.396 16.5242 29.8548 15.7315L31.6632 18.8634C31.6632 18.8634 32.0891 19.4923 32.0891 20.2998V22.6624C32.0379 22.8888 31.8644 23.2999 31.2755 23.2999ZM30.9459 5.87501C31.7491 5.88195 31.8063 6.68511 31.6641 7.016C31.5765 7.21982 30.0543 10.0196 28.5573 12.7266V6.19636C28.5573 6.01899 28.7012 5.87501 28.8782 5.87501H30.9459ZM31.3379 13.1598C31.7734 12.4065 32.1394 11.7686 32.3649 11.3744C33.384 9.5868 34.3485 8.13183 34.3485 6.62006V2.91651C34.3147 0.940703 32.384 0.0655558 31.4195 0.091576C31.2365 0.091576 27.1678 0.0872393 25.7922 0.0859382C25.5441 0.0855045 25.3438 0.287161 25.3438 0.535655V27.8786C25.3438 28.1275 25.5441 28.3287 25.793 28.3287C27.2961 28.3253 32.0752 28.3166 32.3744 28.3166C33.338 28.3426 35.2687 27.4683 35.3034 25.4925V25.3538V22.5384V20.9728C35.3034 20.0023 34.9079 19.3431 34.9079 19.3431L31.3379 13.1598Z" fill="var(--fill-0, black)"/>
<path id="path8" d="M90.0293 7.09955C89.8879 6.76909 89.9443 5.96593 90.7474 5.95943H93.4015C93.6513 5.95943 93.8525 6.16065 93.8525 6.40915V14.0994C92.1664 11.0724 90.1316 7.3372 90.0293 7.09955ZM90.2739 0.175561C89.3102 0.14954 87.3795 1.02469 87.3457 3.00049V6.70404C87.3457 8.21582 88.3102 9.67079 89.3293 11.4584C89.5045 11.7658 89.7673 12.2234 90.0796 12.7663L87.8921 16.5553C87.8921 16.5553 87.4975 17.2136 87.4975 18.185C87.4975 19.0316 87.4993 26.0171 87.5001 27.9652C87.5001 28.2141 87.7013 28.4145 87.9493 28.4145H90.2634C90.5115 28.4145 90.7127 28.2133 90.7127 27.9652C90.7127 25.9807 90.7118 18.7783 90.7118 18.6447C90.7118 17.8381 91.1377 17.2093 91.1377 17.2093L91.8914 15.9039C92.6625 17.2396 93.4084 18.5268 93.8525 19.2935V27.9635C93.8525 28.2115 94.0537 28.4136 94.3018 28.4136H96.7442C96.9211 28.4136 97.0651 28.2696 97.0651 28.0918V0.491273C97.0651 0.313468 96.9229 0.169489 96.7451 0.169923C95.431 0.17079 90.5046 0.175561 90.2739 0.175561Z" fill="var(--fill-0, black)"/>
<path id="path10" d="M60.151 23.7575C60.1822 23.5615 60.0313 23.3846 59.8335 23.3846H54.4924C53.9946 23.3846 53.5921 22.9821 53.5921 22.4852L53.5869 6.86736C53.5869 6.36994 53.9902 5.96663 54.4872 5.96663H58.5377C58.7354 5.96663 58.8863 5.79012 58.8551 5.59454L58.0537 0.609059C58.0138 0.359698 57.7987 0.176255 57.5455 0.176255H53.5626C52.6918 0.115975 50.3621 0.652426 50.383 3.37805V25.2103C50.3621 27.9555 52.7274 28.4802 53.5817 28.4108V28.4083H58.9644C59.2177 28.4083 59.4328 28.2244 59.4727 27.9755L60.151 23.7575Z" fill="var(--fill-0, black)"/>
<path id="path12" d="M13.0279 23.3849C12.8302 23.3849 12.6793 23.5618 12.7113 23.7578L13.387 27.9644C13.4269 28.2142 13.642 28.3981 13.8953 28.3981H18.99C19.8608 28.458 22.1897 27.9211 22.1697 25.1959V21.1784H22.1715V16.3178C22.1715 12.6051 19.6284 12.4295 19.6284 12.4295H19.6224C20.0135 11.7517 20.3708 11.1354 20.5374 10.8423C21.5565 9.05466 22.161 8.21681 22.161 6.70503V3.00148C22.1263 1.02568 20.1956 0.144461 19.2312 0.170481H14.3229C14.0705 0.170481 13.8554 0.353924 13.8155 0.602851L13.0141 5.5879C12.9828 5.78305 13.1337 5.96042 13.3315 5.96042H18.1609C18.4792 5.95001 18.8747 6.11784 18.9701 6.63131L18.971 7.03245C18.971 7.03245 18.9259 8.5516 18.2146 9.70864C17.7575 10.4528 16.545 12.4295 16.545 12.4295H15.3871C15.1668 12.4295 14.9786 12.5895 14.943 12.8081L14.5562 15.2145C14.525 15.4097 14.6759 15.5875 14.8736 15.5875H16.6153C17.2449 15.5875 17.5433 15.584 17.6335 15.5875C18.1132 15.604 18.9744 15.8546 18.9744 17.1105V18.4775H18.9726C18.9701 19.6969 18.9683 21.0968 18.9674 22.4863C18.9674 22.9833 18.5632 23.3849 18.0671 23.3849H13.0279Z" fill="var(--fill-0, black)"/>
<path id="path14" d="M47.4106 23.3843H41.8111V15.5583H44.4322C44.6299 15.5583 44.7809 15.3814 44.7496 15.1853L44.3628 12.7772C44.322 12.5274 44.1069 12.3444 43.8545 12.3444H41.8111V5.95986H47.4731C47.6708 5.95986 47.8218 5.78249 47.7905 5.58733L46.9908 0.607492C46.9509 0.358565 46.7358 0.175122 46.4834 0.175122L38.9194 0.169919C38.7416 0.169919 38.5976 0.313897 38.5976 0.491702V28.0922C38.5976 28.2701 38.7416 28.4132 38.9194 28.4132L46.5416 28.4079C46.7948 28.4079 47.0099 28.2249 47.0498 27.976L47.7272 23.7572C47.7593 23.5612 47.6084 23.3843 47.4106 23.3843Z" fill="var(--fill-0, black)"/>
<path id="path16" d="M71.4545 5.57368L70.6574 0.608151C70.6167 0.35879 70.4016 0.175781 70.15 0.175781H61.5712C61.3188 0.175781 61.1037 0.359224 61.0638 0.608151L60.2658 5.57368C60.2346 5.76883 60.3855 5.94577 60.5833 5.94577L64.2435 5.94924V27.9706C64.2435 28.2195 64.4447 28.4208 64.6936 28.4208H67.0077C67.2566 28.4208 67.4578 28.2195 67.4578 27.9706C67.4578 27.9706 67.4587 12.4825 67.4596 5.94577H71.138C71.3357 5.94577 71.4866 5.76883 71.4545 5.57368Z" fill="var(--fill-0, black)"/>
</g>
</svg>
