<svg overflow="visible" style="display: block;" viewBox="0 0 99 29.7" fill="none" xmlns="http://www.w3.org/2000/svg">
<g id="6 rgru" clip-path="url(#clip0_641_4662)">
<path id="Vector" d="M56.5859 5.47389H61.9282C65.6432 5.47389 67.0552 6.62344 67.0552 9.00429C67.0552 11.6775 65.517 12.8729 61.9282 12.8729H56.5859V5.47389ZM49.5 -9.74215e-05V27.3401H56.5859V18.306H60.39L67.4809 29.7296H75.7226L67.8744 17.2853C72.1859 16.3934 74.5346 13.0822 74.5346 8.91882C74.5346 3.26646 70.3531 0.00485753 62.2364 0.00485753L49.5 -9.74215e-05Z" fill="var(--fill-0, #8A8A8A)"/>
<path id="Vector_2" d="M74.3828 0V19.255C74.3828 25.9095 78.672 29.7297 86.837 29.7297C95.0033 29.7297 99.0016 25.7856 99.0016 19.1311V0H92.3538V18.1314C92.3538 21.6977 90.6287 23.9262 86.837 23.9262C83.0453 23.9262 81.3648 21.725 81.3648 18.1314V0H74.3828Z" fill="var(--fill-0, #8A8A8A)"/>
<path id="Vector_3" d="M6.9696 5.47399H12.224C15.8784 5.47399 17.2668 6.62354 17.2668 9.00439C17.2668 11.6776 15.7558 12.873 12.224 12.873H6.9696V5.47399ZM0 0V29.7297H6.9696V18.3061H10.7118L17.6863 29.7297H25.7932L18.0737 17.2854C22.3146 16.3935 24.625 13.0823 24.625 8.91892C24.625 3.26655 20.5116 0.00495496 12.5284 0.00495496L0 0Z" fill="var(--fill-0, #666666)"/>
<path id="Vector_4" d="M49.5931 5.65608C46.7989 1.83333 42.9453 0 38.0782 0C29.5568 0 23.8457 5.74032 23.8457 14.9887C23.8457 24.0328 29.8006 29.7297 37.9124 29.7297C42.4169 29.7297 46.2655 27.9831 49.6303 24.3189V13.4428H36.7776V18.6542H42.9057V22.0768C41.4911 23.0938 39.7975 23.6492 38.0559 23.6673C33.6479 23.6673 30.9155 20.7712 30.9155 15.1101C30.9155 8.99944 33.6752 5.86171 38.2638 5.86171C41.063 5.86171 43.3735 7.16734 45.2371 9.73401L49.5931 5.65608Z" fill="var(--fill-0, #666666)"/>
<path id="Vector_5" d="M53.1116 29.7301C53.8665 29.7301 54.6052 29.5034 55.2339 29.0798C55.8638 28.6539 56.3531 28.0503 56.6397 27.3455C56.9269 26.6399 57.0015 25.8655 56.8541 25.1179C56.7068 24.3704 56.344 23.6824 55.8106 23.1388C55.2794 22.5996 54.5991 22.2321 53.8574 22.0835C53.1156 21.9349 52.3464 22.0121 51.6489 22.3051C50.9498 22.6 50.3538 23.0957 49.9362 23.7297C49.587 24.259 49.3724 24.8657 49.3112 25.497C49.2499 26.1283 49.3438 26.7651 49.5847 27.3517C49.7778 27.8187 50.0587 28.2436 50.4138 28.6029C50.7673 28.9592 51.1875 29.2422 51.6505 29.4357C52.1134 29.6291 52.6099 29.7292 53.1116 29.7301Z" fill="var(--fill-0, #666666)"/>
</g>
<defs>
<clipPath id="clip0_641_4662">
<rect width="99" height="29.7" fill="white"/>
</clipPath>
</defs>
</svg>
