<svg overflow="visible" style="display: block;" viewBox="0 0 129 30.1257" fill="none" xmlns="http://www.w3.org/2000/svg">
<g id="2 logo_rusbase_new 3" clip-path="url(#clip0_641_4943)">
<path id="Vector" d="M12.7043 10.6094L17.3017 15.2091H11.4497L5.08874 9.35421V15.2091H0V2.99023H10.7361C15.3335 2.99023 16.7929 4.66973 16.7929 6.7062C16.7929 9.04697 14.4181 10.2876 12.7043 10.6094ZM11.7041 7.02808C11.7041 6.162 11.1777 5.87523 9.85578 5.87523H5.08874V8.16625H9.85578C11.1952 8.16625 11.7041 7.87658 11.7041 7.02808Z" fill="var(--fill-0, #3A3A3A)"/>
<path id="Vector_2" d="M17.8108 8.84525V3.1484H22.8995V8.99742C22.8995 11.3382 23.9173 12.2394 25.9703 12.2394C28.0234 12.2394 29.006 11.3411 29.006 9.38948V3.1484H34.0948V8.84231C34.0948 13.7989 31.5329 15.4609 25.9703 15.4609C20.4078 15.4609 17.8108 13.7989 17.8108 8.84231V8.84525Z" fill="var(--fill-0, #3A3A3A)"/>
<path id="Vector_3" d="M43.4721 12.5793C45.9991 12.5793 46.5604 12.155 46.5604 11.6284C46.5604 10.9846 45.6629 10.8998 43.8292 10.6277L40.2845 10.101C36.7048 9.57431 35.3653 8.52389 35.3653 6.63956C35.3653 4.53578 37.4008 2.73633 43.0336 2.73633C49.1577 2.73633 50.9034 4.80792 51.1405 6.72442H46.2215C46.0868 6.16555 45.7799 5.45164 42.9633 5.45164C40.8605 5.45164 40.2845 5.77349 40.2845 6.18018C40.2845 6.72442 41.352 6.89413 43.3729 7.23354L47.055 7.86263C50.3626 8.42146 51.6523 9.57725 51.6523 11.3591C51.6523 13.4454 49.6665 15.4672 43.4752 15.4672C36.2661 15.4672 35.0787 13.1762 34.8594 11.1397H39.7784C39.9305 11.6664 40.3548 12.5822 43.4752 12.5822L43.4721 12.5793Z" fill="var(--fill-0, #3A3A3A)"/>
<path id="Vector_4" d="M60.7771 12.5793C63.3037 12.5793 63.8654 12.155 63.8654 11.6284C63.8654 10.9846 62.9675 10.8998 61.1338 10.6277L57.5891 10.101C54.0093 9.57431 52.6702 8.52389 52.6702 6.63956C52.6702 4.53578 54.7054 2.73633 60.3381 2.73633C66.4623 2.73633 68.2084 4.80792 68.445 6.72442H63.5261C63.3913 6.16555 63.0844 5.45164 60.2679 5.45164C58.1655 5.45164 57.5891 5.77349 57.5891 6.18018C57.5891 6.72442 58.6565 6.89413 60.6775 7.23354L64.3595 7.86263C67.6671 8.42146 68.9569 9.57725 68.9569 11.3591C68.9569 13.4454 66.9711 15.4672 60.7798 15.4672C53.5708 15.4672 52.3833 13.1762 52.1641 11.1397H57.083C57.2351 11.6664 57.6594 12.5822 60.7798 12.5822L60.7771 12.5793Z" fill="var(--fill-0, #3A3A3A)"/>
<path id="Vector_5" d="M70.2246 2.99023H75.3134V15.2091H70.2246V2.99023Z" fill="var(--fill-0, #3A3A3A)"/>
<path id="Vector_6" d="M81.9643 2.99023H88.495L94.3968 15.2091H89.308L88.3749 13.1726H81.8269L80.8093 15.2091H75.5684L81.9643 2.99023ZM87.0705 10.2876L85.2225 6.21464L83.2367 10.2876H87.0705Z" fill="var(--fill-0, #3A3A3A)"/>
<path id="Vector_7" d="M94.6504 2.99023H100.757L107.033 9.50635V2.99023H111.952V15.2091H107.033L99.5693 7.57231V15.2091H94.6504V2.99023Z" fill="var(--fill-0, #3A3A3A)"/>
<path id="Vector_8" d="M17.0473 26.2226C17.0473 28.2591 15.9096 29.8713 11.7538 29.8713H0V17.6525H11.7714C15.6727 17.6525 16.5384 19.1798 16.5384 20.6223C16.5384 22.1994 15.2838 23.0158 14.5204 23.2177C15.4885 23.4225 17.0473 24.0165 17.0473 26.2226ZM5.08874 22.4042H9.83822C11.2128 22.4042 11.5345 21.98 11.5345 21.386C11.5345 20.7072 11.1601 20.5375 9.83822 20.5375H5.08874V22.4042ZM11.9586 26.0705C11.9586 25.4414 11.7216 24.9498 9.95816 24.9498H5.08874V26.9863H9.95816C11.5871 26.9863 11.9586 26.7669 11.9586 26.0705Z" fill="var(--fill-0, #3A3A3A)"/>
<path id="Vector_9" d="M17.8105 23.5064V17.8125H22.8993V23.6615C22.8993 26.0023 23.917 26.9035 25.9701 26.9035C28.0232 26.9035 29.0058 26.0052 29.0058 24.0536V17.8154H34.0945V23.5094C34.0945 28.4659 31.5326 30.1279 25.9701 30.1279C20.4076 30.1279 17.8105 28.4659 17.8105 23.5094V23.5064Z" fill="var(--fill-0, #3A3A3A)"/>
<path id="Vector_10" d="M43.4721 27.2414C45.9991 27.2414 46.5604 26.8171 46.5604 26.2904C46.5604 25.6468 45.6629 25.5619 43.8292 25.2898L40.2845 24.7631C36.7048 24.2364 35.3653 23.186 35.3653 21.3017C35.3653 19.1979 37.4008 17.3984 43.0336 17.3984C49.1577 17.3984 50.9034 19.47 51.1405 21.3865H46.2215C46.0868 20.8277 45.7799 20.1137 42.9633 20.1137C40.8605 20.1137 40.2845 20.4356 40.2845 20.8423C40.2845 21.3865 41.352 21.5563 43.3729 21.8957L47.055 22.5247C50.3626 23.0836 51.6523 24.2393 51.6523 26.0213C51.6523 28.1075 49.6665 30.1293 43.4752 30.1293C36.2661 30.1293 35.0787 27.8383 34.8594 25.8018H39.7784C39.9305 26.3285 40.3548 27.2443 43.4752 27.2443L43.4721 27.2414Z" fill="var(--fill-0, #3A3A3A)"/>
<path id="Vector_11" d="M52.9238 17.6523H58.0126V29.8712H52.9238V17.6523Z" fill="var(--fill-0, #3A3A3A)"/>
<path id="Vector_12" d="M60.0469 17.6523H66.1533L72.4296 24.1685V17.6523H77.3485V29.8712H72.4296L64.9658 22.2344V29.8712H60.0469V17.6523Z" fill="var(--fill-0, #3A3A3A)"/>
<path id="Vector_13" d="M79.3847 17.6525H93.718V20.6223H84.3036V22.3194H92.7V25.0347H84.3036V26.9015H93.9724V29.8713H79.3847V17.6525Z" fill="var(--fill-0, #3A3A3A)"/>
<path id="Vector_14" d="M103.183 27.2414C105.71 27.2414 106.271 26.8171 106.271 26.2904C106.271 25.6468 105.373 25.5619 103.54 25.2898L99.9954 24.7631C96.4156 24.2364 95.076 23.186 95.076 21.3017C95.076 19.1979 97.1116 17.3984 102.744 17.3984C108.868 17.3984 110.614 19.47 110.851 21.3865H105.932C105.798 20.8277 105.49 20.1137 102.674 20.1137C100.571 20.1137 99.9954 20.4356 99.9954 20.8423C99.9954 21.3865 101.063 21.5563 103.084 21.8957L106.765 22.5247C110.073 23.0836 111.363 24.2393 111.363 26.0213C111.363 28.1075 109.377 30.1293 103.186 30.1293C95.9767 30.1293 94.7896 27.8383 94.5703 25.8018H99.4893C99.6414 26.3285 100.065 27.2443 103.186 27.2443L103.183 27.2414Z" fill="var(--fill-0, #3A3A3A)"/>
<path id="Vector_15" d="M120.486 27.2414C123.013 27.2414 123.574 26.8171 123.574 26.2904C123.574 25.6468 122.676 25.5619 120.843 25.2898L117.298 24.7631C113.718 24.2364 112.379 23.186 112.379 21.3017C112.379 19.1979 114.414 17.3984 120.047 17.3984C126.171 17.3984 127.917 19.47 128.154 21.3865H123.235C123.1 20.8277 122.793 20.1137 119.977 20.1137C117.874 20.1137 117.298 20.4356 117.298 20.8423C117.298 21.3865 118.366 21.5563 120.386 21.8957L124.069 22.5247C127.376 23.0836 128.666 24.2393 128.666 26.0213C128.666 28.1075 126.68 30.1293 120.489 30.1293C113.28 30.1293 112.092 27.8383 111.873 25.8018H116.792C116.944 26.3285 117.368 27.2443 120.489 27.2443L120.486 27.2414Z" fill="var(--fill-0, #3A3A3A)"/>
<path id="Vector_16" d="M117.435 4.60545L119.424 5.66758L117.546 9.72297L118.643 14.2934L117.698 14.5655V15.2062H120.123V13.2107C120.093 12.9708 121.123 11.5078 121.123 11.5078L122.492 11.5195V13.0147L123.176 14.4163L122.334 14.6357L122.322 15.2033H124.939C124.855 14.9751 124.636 13.1317 124.636 13.1317L125.87 9.40113L124.75 5.94555L126.797 4.99168L128.662 2.67141V0.160928L127.338 0L126.756 1.99843L124.103 3.75109L123.82 2.34955L124.46 2.0394L124.314 1.41909L123.606 1.35472L123.732 0.907048L123.214 0.626156L122.878 0.953866L121.644 0.330634L121.143 0.675898L119.933 0.158002L119.626 0.713934L120.623 1.68828L120.477 1.95162L119.824 2.08914L120.006 2.71822C120.006 2.71822 120.734 2.7943 121.281 2.97863L120.895 3.31512L120.319 3.82716L117.409 1.31961L116.88 0L115.625 0.187262L115.818 1.93699L117.432 4.60545H117.435Z" fill="var(--fill-0, #3A3A3A)"/>
</g>
<defs>
<clipPath id="clip0_641_4943">
<rect width="129" height="30.1257" fill="white"/>
</clipPath>
</defs>
</svg>
