<?xml version="1.0" encoding="UTF-8"?> <svg xmlns="http://www.w3.org/2000/svg" width="200" height="100" viewBox="0 0 200 100" fill="none"><rect width="200" height="100" rx="16" fill="#F9F9F9"></rect><g clip-path="url(#clip0_1784_3514)"><path d="M58.3793 56.6448C54.8068 56.6448 52.0089 53.8429 52.0089 50.0491C52.0089 46.2553 54.8068 43.38 58.3793 43.38C61.9518 43.38 64.7497 46.2562 64.7497 50.0491C64.7497 53.8429 61.9518 56.6448 58.3793 56.6448ZM58.3793 40.207C52.8834 40.207 48.5862 44.5699 48.5862 50.0491C48.5862 55.5039 52.8834 59.7932 58.3793 59.7932C63.8752 59.7932 68.1724 55.5039 68.1724 50.0491C68.1724 44.5699 63.8752 40.207 58.3793 40.207ZM100.49 56.6448C96.9171 56.6448 94.1192 53.8429 94.1192 50.0491C94.1192 46.2553 96.9171 43.38 100.49 43.38C104.062 43.38 106.86 46.2562 106.86 50.0491C106.86 53.8429 104.062 56.6448 100.49 56.6448ZM100.49 40.207C94.9938 40.207 90.6966 44.5699 90.6966 50.0491C90.6966 55.5039 94.9938 59.7932 100.49 59.7932C105.986 59.7932 110.283 55.5039 110.283 50.0491C110.283 44.5699 105.986 40.207 100.49 40.207ZM139.662 56.6448C136.09 56.6448 133.292 53.8429 133.292 50.0491C133.292 46.2553 136.09 43.38 139.662 43.38C143.235 43.38 146.032 46.2562 146.032 50.0491C146.032 53.8429 143.235 56.6448 139.662 56.6448ZM139.662 40.207C134.166 40.207 129.869 44.5699 129.869 50.0491C129.869 55.5039 134.166 59.7932 139.662 59.7932C145.158 59.7932 149.455 55.5039 149.455 50.0491C149.455 44.5699 145.158 40.207 139.662 40.207ZM117.773 40.207H114.2V59.7932H127.91V56.6232H117.773V40.207ZM167.277 40.207L161.194 54.0466L155.137 40.207H151.414L160.078 59.7932H162.336L171 40.207H167.277ZM88.0945 40.207H83.6455L75.5829 48.5899V40.207H72.0897V59.7932H75.5838V51.0862L83.9589 59.7932H88.7379L78.7558 49.674L88.0945 40.207ZM29 54.1074C29.2213 56.5811 31.2573 59.7932 37.1772 59.7932C41.6791 59.7932 44.669 57.4821 44.669 53.8841C44.669 50.1842 41.7114 48.8749 39.0399 48.5321C37.9137 48.3872 36.5671 48.2168 35.5418 48.0856C33.7222 47.8535 32.879 47.1317 32.879 45.8557C32.879 44.2046 34.5928 43.143 36.6827 43.143C38.8156 43.143 40.2278 43.8834 40.8653 45.5962H44.289C43.8855 43.3594 42.0679 40.207 36.6827 40.207C32.1465 40.207 29.38 43.0079 29.38 46.079C29.38 50.0089 32.645 50.9501 35.3224 51.3007C36.3536 51.4358 37.3986 51.5749 38.3181 51.6914C40.1367 51.9215 41.1699 52.7314 41.1699 54.1074C41.1699 55.4823 40.0887 56.8201 37.1009 56.8201C34.206 56.8201 32.7106 55.4921 32.4609 54.1074H29Z" fill="#15181F"></path></g><defs><clipPath id="clip0_1784_3514"><rect width="142" height="19.5862" fill="white" transform="translate(29 40.207)"></rect></clipPath></defs></svg> 