<?xml version="1.0" encoding="UTF-8"?> <svg xmlns="http://www.w3.org/2000/svg" width="200" height="100" viewBox="0 0 200 100" fill="none"><rect width="200" height="100" rx="16" fill="#F9F9F9"></rect><path fill-rule="evenodd" clip-rule="evenodd" d="M31.4263 44.525V56.2131H42.4598C41.5986 53.5705 40.1624 51.1518 38.2546 49.1309C36.3468 47.1099 34.0148 45.5368 31.4263 44.525ZM67.4021 54.1326C67.4021 53.0807 67.0902 52.0525 66.5058 51.178C65.9215 50.3035 65.0909 49.6218 64.1191 49.2193C63.1474 48.8168 62.0782 48.7115 61.0465 48.9166C60.0149 49.1219 59.0674 49.6283 58.3236 50.3721C57.5799 51.1158 57.0733 52.0635 56.8682 53.0951C56.6629 54.1266 56.7682 55.1959 57.1708 56.1677C57.5733 57.1395 58.2549 57.97 59.1295 58.5544C60.0041 59.1387 61.0322 59.4506 62.084 59.4506C62.7829 59.4521 63.4751 59.3156 64.121 59.049C64.7669 58.7822 65.3538 58.3905 65.8479 57.8964C66.3421 57.4023 66.7337 56.8154 67.0004 56.1695C67.2672 55.5236 67.4037 54.8313 67.4021 54.1326ZM75.1396 52.391H85.2147C84.8475 51.3395 84.1615 50.4288 83.2523 49.7856C82.343 49.1425 81.2558 48.7989 80.142 48.8028C79.037 48.7995 77.959 49.1444 77.061 49.7886C76.1631 50.4326 75.4907 51.3432 75.1396 52.391ZM99.4391 52.391H109.526C109.157 51.3406 108.471 50.4308 107.562 49.7878C106.653 49.1449 105.567 48.8007 104.453 48.8028C103.341 48.7932 102.254 49.135 101.348 49.7793C100.441 50.4235 99.7607 51.3376 99.404 52.391H99.4391ZM142.135 54.1326C142.135 53.0813 141.824 52.0535 141.24 51.1792C140.656 50.3049 139.827 49.6233 138.855 49.2204C137.884 48.8175 136.816 48.7116 135.784 48.9158C134.753 49.1201 133.806 49.6255 133.062 50.368C132.316 51.1105 131.81 52.0571 131.603 53.0879C131.397 54.1187 131.5 55.1877 131.901 56.1596C132.302 57.1316 132.982 57.963 133.854 58.5486C134.727 59.1344 135.754 59.4483 136.806 59.4506C138.215 59.4475 139.566 58.8862 140.563 57.8896C141.559 56.8929 142.12 55.542 142.124 54.1326H142.135ZM149.85 52.391H159.948C159.578 51.3396 158.888 50.4295 157.978 49.7865C157.067 49.1437 155.978 48.7999 154.864 48.8028C153.758 48.8024 152.68 49.1482 151.781 49.7917C150.882 50.4353 150.206 51.3443 149.85 52.391ZM174.208 48.8145H173.038C172.338 48.795 171.64 48.9191 170.989 49.1791C170.337 49.4392 169.746 49.8298 169.251 50.3268C168.756 50.8238 168.368 51.4168 168.111 52.0692C167.854 52.7217 167.733 53.4199 167.756 54.1209V62.3025H164.624V54.1209C164.626 53.0019 164.85 51.8945 165.28 50.862C165.712 49.8294 166.342 48.8918 167.135 48.1027C167.929 47.3137 168.87 46.6887 169.905 46.2633C170.94 45.8379 172.048 45.6206 173.167 45.6237C173.518 45.6237 173.88 45.6237 174.231 45.6237V48.8145H174.208ZM163.337 55.2079H149.662C149.925 56.4188 150.59 57.5049 151.55 58.2884C152.509 59.0719 153.707 59.5064 154.946 59.5207C155.84 59.513 156.72 59.2824 157.503 58.8498C158.287 58.4172 158.95 57.7962 159.434 57.0429L162.168 58.609C161.395 59.8753 160.303 60.9169 159.002 61.6302C157.701 62.3435 156.236 62.7037 154.753 62.6749C153.269 62.646 151.819 62.2292 150.547 61.4659C149.274 60.7026 148.224 59.6194 147.499 58.3241C146.776 57.0288 146.404 55.5665 146.421 54.0827C146.438 52.599 146.842 51.1456 147.596 49.867C148.349 48.5884 149.424 47.5294 150.713 46.7952C152.002 46.061 153.462 45.6772 154.946 45.6821C156.596 45.7025 158.207 46.1969 159.585 47.1066C160.963 48.0163 162.05 49.3029 162.718 50.8131C163.337 52.1895 163.553 53.7138 163.337 55.2079ZM145.245 54.039C145.267 54.8263 145.181 55.613 144.988 56.3766C144.474 58.1505 143.399 59.7098 141.924 60.8205C140.448 61.9312 138.652 62.5332 136.806 62.5362C135.444 62.5545 134.1 62.2446 132.883 61.6328C131.668 61.0211 130.617 60.1254 129.82 59.0217C129.024 57.918 128.506 56.6386 128.308 55.2919C128.11 53.9452 128.24 52.5707 128.687 51.2849C129.133 49.999 129.883 48.8396 130.872 47.9047C131.861 46.9698 133.061 46.2869 134.37 45.9138C135.679 45.5408 137.058 45.4885 138.391 45.7615C139.725 46.0345 140.974 46.6246 142.03 47.482V37.6758H145.245V54.039ZM127.163 62.3259H123.949V52.0287C123.934 51.1677 123.583 50.3464 122.973 49.7397C122.361 49.1329 121.537 48.7884 120.676 48.7794H117.38V62.3259H114.189V45.612H120.536C122.201 45.6199 123.802 46.2484 125.028 47.3746C126.254 48.5008 127.014 50.0436 127.163 51.7014V62.2791V62.3259ZM112.915 55.2079H99.252C99.5097 56.4188 100.172 57.5059 101.13 58.2899C102.089 59.0738 103.285 59.508 104.523 59.5207C105.418 59.513 106.297 59.2824 107.081 58.8498C107.865 58.4172 108.528 57.7962 109.012 57.0429L111.747 58.609C110.968 59.8693 109.874 60.9042 108.573 61.6111C107.271 62.3181 105.807 62.6725 104.326 62.6393C102.846 62.6061 101.399 62.1864 100.131 61.4218C98.8621 60.6573 97.8153 59.5743 97.0944 58.2805C96.3733 56.9866 96.0031 55.5268 96.0203 54.0458C96.0374 52.5647 96.4414 51.1139 97.1922 49.837C97.943 48.5602 99.0145 47.5019 100.3 46.7669C101.586 46.032 103.042 45.6459 104.523 45.647C106.168 45.6755 107.77 46.1736 109.141 47.0828C110.512 47.9919 111.595 49.2741 112.261 50.7781C112.906 52.1595 113.133 53.6991 112.915 55.2079ZM96.4235 48.7911V45.6003H93.0573V45.0977C93.0573 42.9822 94.3664 40.89 96.4235 40.89V37.6758C92.2976 37.6758 89.8548 41.5796 89.8548 45.0393V62.2791H93.0573V48.7911H96.4235ZM88.6159 55.2079H74.9409C75.1985 56.4188 75.861 57.5059 76.8193 58.2899C77.7775 59.0738 78.9742 59.508 80.2122 59.5207C81.1072 59.513 81.9863 59.2824 82.7699 58.8498C83.5535 58.4172 84.2169 57.7962 84.7004 57.0429L87.4471 58.609C86.669 59.8688 85.5753 60.9035 84.2744 61.6104C82.9734 62.3173 81.5102 62.6721 80.0298 62.6394C78.5496 62.6067 77.1035 62.1877 75.835 61.4241C74.5664 60.6604 73.5194 59.5785 72.7978 58.2856C72.0761 56.9927 71.7049 55.5337 71.7207 54.053C71.7366 52.5725 72.1391 51.1218 72.8884 49.8446C73.6376 48.5675 74.7075 47.5083 75.9922 46.772C77.2768 46.0358 78.7315 45.6479 80.2122 45.647C81.8646 45.668 83.4763 46.1626 84.856 47.0721C86.2358 47.9816 87.3257 49.2678 87.9965 50.7781C88.6227 52.1649 88.8377 53.7024 88.6159 55.2079ZM70.5228 54.039C70.5463 54.8272 70.4557 55.6145 70.254 56.3766C69.7671 58.1403 68.7253 59.7002 67.283 60.8259C65.8407 61.9516 64.0744 62.5831 62.2454 62.6271C60.4163 62.671 58.6217 62.1251 57.1271 61.07C55.6323 60.0149 54.5169 58.5067 53.9458 56.7685C53.3748 55.0304 53.3783 53.1546 53.956 51.4186C54.5337 49.6826 55.6549 48.1786 57.1536 47.1293C58.6522 46.0798 60.449 45.5407 62.2778 45.5916C64.1067 45.6425 65.8706 46.2808 67.3086 47.4119V37.6758H70.5228V54.039ZM49.0168 62.2206H25.7693V37.6758C37.5391 37.8043 47.1584 47.0963 48.7714 58.609C48.9346 59.8295 49.0165 61.0595 49.0168 62.2908V62.2206ZM49.0168 49.3638C46.7159 44.2534 42.6899 40.1157 37.6444 37.6758H49.0168V49.3638Z" fill="#15181F"></path></svg> 