<?xml version="1.0" encoding="UTF-8"?> <svg xmlns="http://www.w3.org/2000/svg" width="24" height="24" viewBox="0 0 24 24" fill="none"><rect x="2.5" y="2.5" width="19" height="19" rx="4.5" fill="url(#paint0_linear_941_75)" stroke="url(#paint1_linear_941_75)"></rect><path d="M6.76958 8.21524C7.178 7.80486 7.68488 7.57833 8.23384 7.48874C7.99486 8.00362 7.92518 8.55325 7.94877 9.07276C7.88005 9.11591 7.81857 9.16355 7.76586 9.2165C7.4263 9.55786 7.268 10.2331 7.56154 11.2493C7.84706 12.2377 8.52615 13.3852 9.55896 14.4232C10.5918 15.4612 11.7337 16.1437 12.7171 16.4306C13.7283 16.7257 14.4001 16.5666 14.7398 16.2253C14.7925 16.1723 14.8399 16.1106 14.8828 16.0415C15.3997 16.0652 15.9462 15.9946 16.4585 15.7545C16.3694 16.3064 16.1446 16.816 15.7361 17.2266C14.8652 18.1017 13.5483 18.148 12.324 17.7908C11.072 17.4254 9.73059 16.5982 8.56269 15.4245C7.39477 14.2507 6.57174 12.9027 6.2082 11.6444C5.85278 10.414 5.89882 9.09045 6.76958 8.21524Z" fill="url(#paint2_linear_941_75)"></path><path d="M9.5579 7.41443C9.99831 6.97182 10.579 6.82834 11.17 6.85611C11.043 7.35449 11.0682 7.85401 11.1482 8.27342C10.8198 8.25069 10.6353 8.33416 10.5542 8.41569C10.4319 8.5388 10.2994 8.89774 10.543 9.63255C10.772 10.3231 11.2839 11.1515 12.0486 11.9201C12.8133 12.6886 13.6377 13.203 14.3248 13.4332C15.056 13.6781 15.4131 13.5449 15.5356 13.422C15.6125 13.3447 15.693 13.1744 15.682 12.8759C16.0938 12.9613 16.5902 12.9961 17.0884 12.8803C17.1005 13.4475 16.9533 13.9997 16.5319 14.4232C15.8289 15.1295 14.7693 15.0746 13.8787 14.7762C12.9434 14.4628 11.9381 13.8115 11.0523 12.9213C10.1666 12.0311 9.51849 11.0208 9.20668 10.0809C8.90982 9.18578 8.85514 8.12092 9.5579 7.41443Z" fill="url(#paint3_linear_941_75)"></path><path d="M15.5662 8.446C15.0766 7.95394 14.5575 7.63424 14.1408 7.49461C13.9328 7.42493 13.7778 7.40909 13.6787 7.41736C13.6313 7.42133 13.6031 7.4301 13.5892 7.43594C13.5827 7.43868 13.5789 7.44107 13.577 7.4423C13.5753 7.44343 13.5736 7.44474 13.5736 7.44474C13.5736 7.44474 13.5723 7.44646 13.5712 7.44816C13.57 7.45005 13.5676 7.45386 13.5649 7.46039C13.559 7.47435 13.5503 7.50276 13.5464 7.55034C13.5381 7.64999 13.5539 7.80575 13.6232 8.01479C13.7622 8.4336 14.0803 8.9552 14.5699 9.44726C15.0595 9.93932 15.5785 10.259 15.9952 10.3986C16.2032 10.4683 16.3582 10.4842 16.4574 10.4759C16.5047 10.4719 16.533 10.4632 16.5469 10.4573C16.5534 10.4546 16.5572 10.4522 16.559 10.451C16.5607 10.4498 16.5624 10.4485 16.5624 10.4485C16.5624 10.4485 16.5638 10.4468 16.5649 10.4451C16.5661 10.4432 16.5685 10.4394 16.5712 10.4329C16.577 10.4189 16.5857 10.3905 16.5897 10.3429C16.5979 10.2433 16.5822 10.0875 16.5128 9.87846C16.3739 9.45966 16.0558 8.93806 15.5662 8.446ZM16.5624 7.44474C17.1732 8.05855 17.6279 8.76235 17.8496 9.43064C18.0564 10.054 18.1242 10.8815 17.5587 11.4498C16.9933 12.018 16.1699 11.9499 15.5496 11.7421C14.8847 11.5193 14.1844 11.0623 13.5736 10.4485C12.9629 9.83471 12.5081 9.1309 12.2864 8.46262C12.0797 7.83922 12.0119 7.01175 12.5773 6.44348C13.1428 5.87521 13.9661 5.94332 14.5864 6.15112C15.2514 6.37391 15.9517 6.83094 16.5624 7.44474Z" fill="url(#paint4_linear_941_75)"></path><defs><linearGradient id="paint0_linear_941_75" x1="3" y1="3" x2="21" y2="21" gradientUnits="userSpaceOnUse"><stop stop-color="#EAD7FE"></stop><stop offset="1" stop-color="#E2BBFF"></stop></linearGradient><linearGradient id="paint1_linear_941_75" x1="3" y1="3" x2="25.5" y2="25.5" gradientUnits="userSpaceOnUse"><stop stop-color="#D198FA"></stop><stop offset="1" stop-color="#B85EF8"></stop></linearGradient><linearGradient id="paint2_linear_941_75" x1="3.5" y1="2.5" x2="21" y2="21" gradientUnits="userSpaceOnUse"><stop stop-color="#C16FFB"></stop><stop offset="1" stop-color="#B85EF8"></stop></linearGradient><linearGradient id="paint3_linear_941_75" x1="3.5" y1="2.5" x2="21" y2="21" gradientUnits="userSpaceOnUse"><stop stop-color="#C16FFB"></stop><stop offset="1" stop-color="#B85EF8"></stop></linearGradient><linearGradient id="paint4_linear_941_75" x1="3.5" y1="2.5" x2="21" y2="21" gradientUnits="userSpaceOnUse"><stop stop-color="#C16FFB"></stop><stop offset="1" stop-color="#B85EF8"></stop></linearGradient></defs></svg> 