<?xml version="1.0" encoding="UTF-8"?> <svg xmlns="http://www.w3.org/2000/svg" width="200" height="100" viewBox="0 0 200 100" fill="none"><rect width="200" height="100" rx="16" fill="#F9F9F9"></rect><path fill-rule="evenodd" clip-rule="evenodd" d="M142.521 38.5619C142.261 38.5638 142.005 38.4883 141.788 38.345C141.57 38.2016 141.4 37.997 141.299 37.7569C141.198 37.5168 141.171 37.2521 141.22 36.9964C141.27 36.7406 141.394 36.5054 141.577 36.3204C141.761 36.1354 141.995 36.009 142.25 35.9573C142.506 35.9055 142.77 35.9307 143.011 36.0297C143.252 36.1287 143.458 36.297 143.604 36.5133C143.749 36.7296 143.827 36.9841 143.827 37.2446C143.828 37.4169 143.795 37.5879 143.73 37.7475C143.665 37.9072 143.569 38.0524 143.448 38.1748C143.327 38.2972 143.182 38.3945 143.023 38.4609C142.864 38.5273 142.693 38.5616 142.521 38.5619ZM142.504 35.7146C142.195 35.704 141.891 35.7858 141.629 35.9496C141.368 36.1133 141.161 36.3514 141.035 36.6335C140.91 36.9155 140.872 37.2286 140.926 37.5325C140.979 37.8364 141.123 38.1174 141.337 38.3393C141.552 38.5612 141.828 38.7139 142.13 38.7779C142.432 38.8419 142.746 38.8142 143.032 38.6984C143.318 38.5826 143.563 38.3839 143.735 38.128C143.908 37.872 144 37.5703 144 37.2616C144.004 37.0611 143.969 36.8616 143.897 36.6747C143.824 36.4878 143.715 36.3171 143.576 36.1725C143.437 36.028 143.27 35.9124 143.086 35.8325C142.902 35.7526 142.704 35.71 142.504 35.707V35.7146Z" fill="#15181F"></path><path fill-rule="evenodd" clip-rule="evenodd" d="M142.65 37.2218C142.733 37.2278 142.816 37.2079 142.887 37.1648C142.92 37.1389 142.945 37.1051 142.961 37.0665C142.976 37.0279 142.982 36.9859 142.976 36.9446C142.983 36.8972 142.974 36.8489 142.952 36.8064C142.93 36.7639 142.896 36.7293 142.853 36.7073C142.798 36.6839 142.739 36.6729 142.68 36.6751H142.16V37.2142L142.65 37.2218ZM141.94 36.4966H142.675C142.778 36.4926 142.881 36.5107 142.976 36.5498C143.049 36.5816 143.11 36.6353 143.15 36.7034C143.191 36.7715 143.209 36.8505 143.202 36.9294C143.205 37.0109 143.184 37.0915 143.141 37.161C143.098 37.224 143.04 37.2744 142.971 37.3072C143.027 37.3266 143.076 37.3615 143.113 37.4078C143.152 37.4634 143.172 37.5299 143.17 37.5976V37.8102C143.166 37.8557 143.166 37.9014 143.17 37.9469C143.174 37.9677 143.183 37.9873 143.195 38.0041C143.208 38.0209 143.225 38.0345 143.244 38.0437V38.0778H142.973C142.966 38.0619 142.961 38.0454 142.957 38.0285C142.949 37.986 142.944 37.9428 142.944 37.8994L142.931 37.6356C142.933 37.5936 142.924 37.5517 142.903 37.515C142.883 37.4783 142.852 37.4483 142.815 37.4287C142.755 37.4047 142.69 37.3943 142.625 37.3983H142.143V38.0778H141.923L141.94 36.4966Z" fill="#15181F"></path><path fill-rule="evenodd" clip-rule="evenodd" d="M56 64.0122V36.1356H69.4201V39.0626H59.5496V48.3921H68.1066V51.321H59.5572V64.016L56 64.0122ZM82.1189 64.0122H85.6419L78.8768 36.1356H75.5436L68.8791 64.0122H72.2958L73.6929 57.8052H80.6725L82.1132 64.0122H82.1189ZM77.0754 41.8643H77.2558L78.5162 48.2725L80.048 54.8801H74.2832L75.7714 48.3523L77.0773 41.8643H77.0754ZM99.8327 64.0122L95.389 51.7975H92.0274V64.0122H88.4702V36.1356H95.3378C97.8813 36.1356 99.7523 36.7898 100.951 38.0983C102.149 39.4068 102.747 41.3961 102.744 44.0662C102.773 45.522 102.497 46.9677 101.934 48.3105C101.402 49.5386 100.32 50.4877 98.7071 51.1578L103.466 64.0141L99.8327 64.0122ZM99.1873 44.0681C99.194 43.3811 99.1336 42.6952 99.007 42.0199C98.9038 41.4444 98.665 40.9017 98.3103 40.4369C97.9475 39.9842 97.4742 39.6325 96.9361 39.4157C96.2306 39.1532 95.4807 39.0314 94.7285 39.0569H92.0274V48.8686H95.0436C95.7353 48.8897 96.4243 48.7736 97.0708 48.5269C97.5807 48.3241 98.0247 47.9845 98.354 47.5455C98.6805 47.0935 98.9035 46.575 99.007 46.027C99.1333 45.3806 99.1938 44.7229 99.1873 44.0643V44.0681ZM114.048 64.2931C111.678 64.2931 109.906 63.7053 108.733 62.5297C107.56 61.3541 106.975 59.6989 106.977 57.5641V43.7872C106.979 42.8106 107.081 41.8369 107.281 40.881C107.458 39.9762 107.817 39.117 108.338 38.3565C108.894 37.5864 109.639 36.9726 110.5 36.5741C111.431 36.1198 112.616 35.8933 114.058 35.8945C116.491 35.8945 118.24 36.4482 119.304 37.5554C120.368 38.6627 120.932 40.1648 120.994 42.0617L117.436 42.821C117.467 41.5935 117.219 40.6191 116.692 39.8978C116.166 39.1765 115.273 38.8158 114.014 38.8158C113.398 38.7882 112.787 38.9413 112.256 39.2562C111.821 39.5341 111.459 39.9115 111.199 40.3571C110.94 40.8092 110.764 41.3043 110.681 41.8187C110.594 42.3204 110.549 42.8283 110.546 43.3373V57.3952C110.55 57.8319 110.595 58.2672 110.681 58.6954C110.767 59.1527 110.943 59.5883 111.199 59.9767C111.467 60.3771 111.821 60.7124 112.235 60.9581C112.765 61.2488 113.365 61.3874 113.968 61.3586H114.014C115.153 61.3586 116.053 61.0916 116.715 60.5575C117.377 60.0235 117.707 59.2896 117.706 58.3557V51.712H114.048V48.954H121.261V57.9646C121.28 58.9101 121.085 59.8475 120.692 60.7075C120.333 61.4731 119.81 62.1503 119.16 62.6911C118.483 63.2415 117.701 63.6501 116.863 63.8926C115.949 64.1631 115.001 64.2981 114.048 64.2931ZM139.899 56.522C139.899 59.0074 139.351 60.9233 138.256 62.2697C137.16 63.6161 135.291 64.2906 132.648 64.2931C130.067 64.2931 128.228 63.6655 127.132 62.4102C126.036 61.1548 125.488 59.4996 125.488 57.4445V43.7074C125.486 42.7388 125.584 41.7726 125.781 40.8241C125.961 39.923 126.329 39.07 126.861 38.3204C127.425 37.5549 128.178 36.9481 129.046 36.5589C129.976 36.1185 131.192 35.8983 132.694 35.8983C134.254 35.8983 135.508 36.0919 136.454 36.4792C137.318 36.8061 138.074 37.3674 138.637 38.1002C139.16 38.8247 139.507 39.6611 139.651 40.5432C139.823 41.5622 139.906 42.5943 139.899 43.6277V56.522ZM136.34 43.1342C136.34 42.6379 136.302 42.1424 136.228 41.6517C136.159 41.1676 135.998 40.7012 135.754 40.2774C135.486 39.8395 135.105 39.4821 134.651 39.2429C134.155 38.962 133.502 38.8215 132.692 38.8215C131.791 38.8215 131.1 39.0151 130.619 39.4024C130.153 39.7657 129.782 40.2374 129.539 40.7766C129.298 41.3121 129.152 41.8859 129.11 42.4717C129.066 43.0734 129.044 43.567 129.044 43.9675V57.4578C129.047 57.8858 129.092 58.3124 129.178 58.7315C129.271 59.1913 129.455 59.6277 129.719 60.0147C130.005 60.4222 130.383 60.7559 130.822 60.9884C131.402 61.2423 132.028 61.3716 132.66 61.368C133.292 61.3645 133.917 61.228 134.493 60.9675C134.946 60.7277 135.333 60.3795 135.619 59.9539C135.898 59.523 136.092 59.0422 136.188 58.5379C136.295 57.9971 136.348 57.4471 136.346 56.896L136.34 43.1342Z" fill="#15181F"></path></svg> 