<?xml version="1.0" encoding="UTF-8"?> <svg xmlns="http://www.w3.org/2000/svg" width="200" height="100" viewBox="0 0 200 100" fill="none"><rect width="200" height="100" rx="16" fill="#F9F9F9"></rect><g clip-path="url(#clip0_1784_3622)"><path d="M137.335 65.5318C138.078 65.5318 138.656 65.1143 138.656 64.2989C138.656 63.8978 138.512 63.5683 138.313 63.3303L138.623 63.0889C138.91 63.402 139.041 63.7902 139.041 64.2989C139.041 65.359 138.323 66.0177 137.335 66.0177C136.347 66.0177 135.629 65.359 135.629 64.2989C135.629 63.7902 135.763 63.402 136.05 63.0889L136.356 63.3303C136.157 63.5683 136.014 63.8978 136.014 64.2989C136.014 65.1143 136.591 65.5318 137.335 65.5318ZM135.629 60.8874C135.629 59.8274 136.347 59.1686 137.335 59.1686C138.323 59.1686 139.041 59.8274 139.041 60.8874C139.041 61.9474 138.323 62.6062 137.335 62.6062C136.347 62.6062 135.629 61.9474 135.629 60.8874ZM136.014 60.8874C136.014 61.7028 136.591 62.1203 137.335 62.1203C138.078 62.1203 138.656 61.7028 138.656 60.8874C138.656 60.072 138.078 59.6545 137.335 59.6545C136.591 59.6545 136.014 60.072 136.014 60.8874ZM135.923 56.057L136.249 56.2854C136.105 56.5234 136.014 56.8594 136.014 57.254C136.014 57.7368 136.223 58.0335 136.516 58.0335C136.79 58.0335 136.963 57.802 137.077 57.1725C137.243 56.3082 137.475 55.8614 138.098 55.8614C138.724 55.8614 139.041 56.4322 139.041 57.1693C139.041 57.7139 138.917 58.226 138.633 58.5815L138.307 58.3531C138.538 57.9911 138.649 57.6291 138.649 57.1693C138.649 56.7126 138.47 56.3343 138.098 56.3343C137.733 56.3343 137.592 56.5887 137.472 57.2508C137.296 58.1673 136.992 58.5064 136.516 58.5064C136.033 58.5064 135.629 58.1118 135.629 57.254C135.629 56.7616 135.727 56.3441 135.923 56.057ZM138.975 55.1438H135.694V54.6839H136.161C135.808 54.5502 135.629 54.2143 135.629 53.8196C135.629 52.9586 136.183 52.7303 136.311 52.665C136.02 52.5411 135.629 52.2769 135.629 51.6312C135.629 50.7669 136.18 50.307 137.214 50.307H138.975V50.7669H137.214C136.529 50.7669 136.014 51.018 136.014 51.6312C136.014 52.2443 136.529 52.4955 137.214 52.4955H138.975V52.9553H137.214C136.529 52.9553 136.014 53.2065 136.014 53.8196C136.014 54.4328 136.529 54.6839 137.214 54.6839H138.975V55.1438ZM138.656 47.9424C138.656 47.4303 138.447 47.0977 138.251 46.866L138.535 46.5791C138.861 46.8954 139.041 47.3422 139.041 47.9424C139.041 48.9339 138.317 49.5209 137.335 49.5209C136.353 49.5209 135.629 48.9339 135.629 47.9424C135.629 47.0161 136.249 46.3638 137.527 46.3638V49.035C138.166 49.0186 138.656 48.611 138.656 47.9424ZM137.142 49.035V46.8498C136.503 46.9019 136.014 47.2705 136.014 47.9424C136.014 48.6143 136.503 48.9828 137.142 49.035ZM136.079 45.881H135.694V45.2026H134.719V44.7428H135.694V43.7513H136.079V44.7428H137.54C138.287 44.7428 138.643 44.7134 138.643 44.1753C138.643 44.0611 138.626 43.9209 138.577 43.7741L138.959 43.6567C139.027 43.8296 139.041 44.0188 139.041 44.1753C139.041 45.0885 138.545 45.2026 137.54 45.2026H136.079V45.881ZM138.975 42.8543H135.694V42.3945H138.975V42.8543ZM134.745 42.9392C134.572 42.9392 134.432 42.7989 134.432 42.6261C134.432 42.4532 134.572 42.313 134.745 42.313C134.918 42.313 135.058 42.4532 135.058 42.6261C135.058 42.7989 134.918 42.9392 134.745 42.9392ZM137.335 41.0442C138.078 41.0442 138.656 40.6268 138.656 39.8114C138.656 39.4102 138.512 39.0808 138.313 38.8427L138.623 38.6013C138.91 38.9144 139.041 39.3026 139.041 39.8114C139.041 40.8714 138.323 41.5302 137.335 41.5302C136.347 41.5302 135.629 40.8714 135.629 39.8114C135.629 39.3026 135.763 38.9144 136.05 38.6013L136.356 38.8427C136.157 39.0808 136.014 39.4102 136.014 39.8114C136.014 40.6268 136.591 41.0442 137.335 41.0442ZM135.923 35.5551L136.249 35.7834C136.105 36.0215 136.014 36.3574 136.014 36.752C136.014 37.2348 136.223 37.5316 136.516 37.5316C136.79 37.5316 136.963 37.3 137.077 36.6705C137.243 35.8062 137.475 35.3594 138.098 35.3594C138.724 35.3594 139.041 35.9301 139.041 36.6673C139.041 37.2119 138.917 37.724 138.633 38.0795L138.307 37.8512C138.538 37.4892 138.649 37.1271 138.649 36.6673C138.649 36.2106 138.47 35.8323 138.098 35.8323C137.733 35.8323 137.592 36.0867 137.472 36.7488C137.296 37.6653 136.992 38.0045 136.516 38.0045C136.033 38.0045 135.629 37.6098 135.629 36.752C135.629 36.2596 135.727 35.8421 135.923 35.5551Z" fill="#15181F"></path><path d="M89.3576 48.2657H89.262H85.5332H73.2474V52.0109L85.4855 52.0601C84.4815 58.4171 79.0318 63.197 72.4825 62.8028C66.2679 62.4085 61.2484 57.2343 60.8659 50.8774C60.3879 43.4364 66.1244 37.2274 73.2474 37.2274C78.3147 37.2274 82.6649 40.3812 84.5771 44.8655H88.6406C86.4416 37.8187 79.7967 32.8416 72.1479 33.3344C64.1167 33.8765 57.6152 40.5783 57.0415 48.8078C56.3723 58.5648 63.8776 66.6958 73.1996 66.6958C82.1391 66.6958 89.4054 59.2055 89.4054 49.9905C89.4532 49.4484 89.4054 48.857 89.3576 48.2657Z" fill="#15181F"></path><path d="M125.546 54.4258C126.502 55.2635 127.267 56.1012 127.41 57.3332V58.4667C127.41 60.6349 125.689 62.3596 123.538 62.3596L111.635 62.3104V66.1048H123.538C127.506 66.1048 130.804 63.0002 131.091 59.058C131.091 58.8608 131.139 57.9246 131.091 57.6782C131.043 55.4607 130.087 53.4403 128.51 52.0112C128.175 51.7155 127.314 50.927 126.311 50.3357C125.307 49.7444 117.61 45.6543 116.75 44.9644C115.889 44.2745 115.315 43.1411 115.315 41.9584C115.315 39.7902 117.036 38.0654 119.188 38.0654L130.135 38.1147V34.3203H119.188C114.981 34.3203 111.587 37.7698 111.587 41.9584C111.587 44.3731 112.638 46.5413 114.455 47.9704C116.272 49.3502 120.048 51.3706 121.148 51.9619C122.295 52.5039 124.59 53.5881 125.546 54.4258Z" fill="#15181F"></path><path d="M104.752 54.4258C105.708 55.2635 106.473 56.1012 106.616 57.3332V58.4667C106.616 60.6349 104.895 62.3596 102.744 62.3596L90.8405 62.3104V66.1048H102.744C106.712 66.1048 110.01 63.0002 110.297 59.058C110.297 58.8608 110.345 57.9246 110.297 57.6782C110.249 55.4607 109.293 53.4403 107.716 52.0112C107.381 51.7155 106.521 50.927 105.517 50.3357C104.513 49.7444 96.8162 45.6543 95.9557 44.9644C95.0952 44.2745 94.5215 43.1411 94.5215 41.9584C94.5215 39.7902 96.2425 38.0654 98.3937 38.0654L109.341 38.1147V34.3203H98.3937C94.1869 34.3203 90.7927 37.7698 90.7927 41.9584C90.7927 44.3731 91.8444 46.5413 93.661 47.9704C95.4776 49.3994 99.2542 51.3706 100.354 51.9619C101.501 52.5039 103.796 53.5881 104.752 54.4258Z" fill="#15181F"></path></g><defs><clipPath id="clip0_1784_3622"><rect width="86" height="33.3981" fill="white" transform="translate(57 33.3008)"></rect></clipPath></defs></svg> 