<?xml version="1.0" encoding="UTF-8"?> <svg xmlns="http://www.w3.org/2000/svg" width="200" height="100" viewBox="0 0 200 100" fill="none"><rect width="200" height="100" rx="16" fill="#F9F9F9"></rect><g clip-path="url(#clip0_1784_3634)"><path d="M35.2057 58.0408V56.4219H31.0065V50.6039H35.0399V48.985H31.0065V43.5482H35.2057V41.9293H29.1887V58.0408H35.2057ZM51.6763 58.0408V56.4219H47.4772V41.9293H45.6594V58.0408H51.6763ZM67.6884 58.0408V56.4219H63.4893V50.6039H67.5171V48.985H63.4893V43.5482H67.6884V41.9293H61.6659V58.0408H67.6884ZM81.8716 58.3336C83.3082 58.3336 84.4464 57.6817 85.2696 56.3998V49.8524H81.4628V51.4713H83.6231V55.6981C83.2585 56.328 82.6728 56.6926 81.8716 56.6926C80.2472 56.6926 79.5455 54.0074 79.5455 49.9961C79.5455 45.9627 80.2472 43.3051 81.8716 43.3051C82.9159 43.3051 83.3524 44.1283 83.7171 45.3383L85.2254 44.7582C84.7613 43.0896 83.7668 41.6641 81.8716 41.6641C78.9377 41.6641 77.6504 45.0455 77.6504 49.9961C77.6504 54.9246 78.9377 58.3336 81.8716 58.3336ZM103.171 58.0408L99.9722 41.9293H97.8561L94.6791 58.0408H96.5466L97.2041 54.3444H100.652L101.304 58.0408H103.171ZM100.431 52.7255H97.4196L98.928 44.1062L100.431 52.7255ZM120.322 58.0408V41.9293H118.504V52.8747L114.62 41.9293H112.796V58.0408H114.62V46.8799L118.576 58.0408H120.322ZM137.229 58.0408V56.4219H132.543L137.057 43.4542V41.9293H130.576V43.5482H135.046L130.576 56.4495V58.0408H137.229ZM153.407 58.0408V56.4219H148.721L153.235 43.4542V41.9293H146.754V43.5482H151.224L146.754 56.4495V58.0408H153.407ZM170.8 58.0408L167.595 41.9293H165.485L162.302 58.0408H164.175L164.827 54.3444H168.275L168.932 58.0408H170.8ZM168.054 52.7255H165.048L166.551 44.1062L168.054 52.7255Z" fill="#15181F"></path></g><defs><clipPath id="clip0_1784_3634"><rect width="142" height="16.6696" fill="white" transform="translate(29 41.6641)"></rect></clipPath></defs></svg> 