<?xml version="1.0" encoding="UTF-8"?> <svg xmlns="http://www.w3.org/2000/svg" width="200" height="100" viewBox="0 0 200 100" fill="none"><rect width="200" height="100" rx="16" fill="#F9F9F9"></rect><path d="M90.265 37.2461H41V37.8361H90.265V37.2461Z" fill="#15181F"></path><path d="M159 37.2461H109.735V37.8361H159V37.2461Z" fill="#15181F"></path><path d="M104.13 34.2347L103.422 34.6477L101.77 35.5917L100.708 33.2317L100.354 32.4647C100.177 32.1107 99.7049 32.1107 99.5869 32.4647L99.2329 33.2317L98.1709 35.5917L96.5189 34.6477L95.8699 34.2347C95.5749 34.0577 95.2209 34.2937 95.2799 34.6477L95.3979 35.4737L95.9879 39.0727L96.0469 39.3677C96.1059 39.6037 96.2829 39.7217 96.4599 39.7217H103.54C103.776 39.7217 103.953 39.5447 103.953 39.3677L104.012 39.0727L104.602 35.4737L104.72 34.6477C104.838 34.3527 104.425 34.0577 104.13 34.2347ZM103.245 38.9547H96.7549L96.1649 35.3557L98.1119 36.4767C98.1119 36.4767 98.1709 36.4767 98.1709 36.5357C98.1709 36.5357 98.1709 36.5357 98.2299 36.5357C98.2299 36.5357 98.2889 36.5357 98.3479 36.5357C98.3479 36.5357 98.3479 36.5357 98.4069 36.5357C98.4659 36.5357 98.5249 36.5357 98.6429 36.4767C98.7019 36.4767 98.7609 36.3587 98.7609 36.3587L99.9999 33.5857L101.239 36.3587C101.298 36.4767 101.416 36.5357 101.475 36.5947C101.534 36.5947 101.534 36.5947 101.593 36.5947C101.652 36.5947 101.652 36.5947 101.711 36.5947H101.77C101.829 36.5947 101.829 36.5947 101.888 36.5357C101.888 36.5357 101.888 36.5357 101.947 36.5357H102.006L103.953 35.4147L103.245 38.9547Z" fill="#15181F"></path><path d="M53.803 67.0987H46.428C46.369 67.0987 46.369 67.0987 46.369 67.0987C44.776 67.0987 41.059 67.0987 41.059 67.0987L41.236 66.8037C42.298 66.8037 43.006 66.3317 43.006 65.4467C43.006 63.7947 43.065 50.8737 43.006 47.9827C42.947 46.5077 42.593 45.6227 41 45.6227L41.177 45.3867C41.885 45.3867 47.136 45.3867 47.136 45.3867L46.9 45.6817C45.838 45.6817 45.13 46.1537 45.13 47.0387C45.13 47.0387 45.13 64.7977 45.189 65.0337C45.307 65.5647 45.543 65.8597 45.897 66.0367C46.841 66.5677 50.204 66.3907 51.443 66.3907C52.918 66.3907 54.098 65.0337 54.983 63.3817L55.101 63.4997L53.803 67.0987Z" fill="#15181F"></path><path d="M78.524 67.0957C77.757 67.0957 72.152 67.0957 72.152 67.0957L72.388 66.8597C73.509 66.8597 74.394 66.5057 73.981 65.4437C73.332 63.6147 72.919 62.7887 71.975 60.5467H63.951L61.768 65.5027C61.296 66.6827 62.063 66.8597 63.774 66.8597L63.597 67.0957C62.83 67.0957 57.874 67.0957 57.874 67.0957L58.11 66.8597C59.231 66.8597 60.293 66.8007 60.883 65.5027L68.553 48.0977H68.789C68.789 48.0977 69.202 49.3367 69.556 50.0447C72.152 56.0627 74.748 61.8447 75.928 64.4997C76.518 65.7977 76.872 66.8007 78.642 66.8007L78.524 67.0957ZM68.022 51.4017V51.0477L64.305 59.7207H71.562C70.028 56.0627 68.022 51.4017 68.022 51.4017Z" fill="#15181F"></path><path d="M99.9411 67.8016C94.2181 67.8016 91.1501 63.0816 88.6721 58.6566C88.1411 58.6566 87.3151 58.7746 86.6661 58.6566L86.9021 58.4206C90.3241 58.4206 92.3301 56.1786 92.3301 53.5236C92.3301 51.2226 90.5011 48.8626 86.1941 49.2166L86.0761 49.3346C86.0761 54.6446 85.8991 59.1286 86.0171 64.4386C86.0761 65.9136 86.3711 66.7986 88.0231 66.7986L87.8461 67.0936C87.1381 67.0936 81.8871 67.0936 81.8871 67.0936L82.0641 66.7986C83.1261 66.7986 83.8341 66.3266 83.8341 65.4416C83.8341 63.7896 83.9521 53.8776 83.8931 50.9866C83.8341 49.5116 83.4801 48.6266 81.8871 48.6266L82.0641 48.3906C82.7721 48.3906 87.9641 48.3906 87.9641 48.3906C92.2711 48.3906 94.2771 50.8686 94.2771 53.3466C94.2771 55.9426 93.0381 57.6536 90.7371 58.3616C92.6251 61.9016 96.4011 66.8576 100.354 67.6836L100.413 67.8016C100.295 67.8016 100.118 67.8016 99.9411 67.8016Z" fill="#15181F"></path><path d="M112.036 67.3898C106.49 67.3898 101.711 64.1448 101.711 58.0678C101.711 52.8168 105.959 48.2148 111.977 48.2148C117.995 48.2148 122.184 52.6398 122.184 57.8908C122.184 63.9088 117.523 67.3898 112.036 67.3898ZM111.977 49.0408C106.726 49.0408 104.071 53.7608 104.071 58.0088C104.071 62.9648 107.67 66.5048 111.977 66.5638C116.225 66.6228 119.824 62.7878 119.824 57.8318C119.824 53.6428 117.228 49.0408 111.977 49.0408Z" fill="#15181F"></path><path d="M139.294 67.094H131.86C131.801 67.094 131.801 67.094 131.801 67.094C130.208 67.094 126.491 67.094 126.491 67.094L126.668 66.799C127.73 66.799 128.438 66.327 128.438 65.442C128.438 63.79 128.497 53.819 128.438 50.928C128.379 49.453 128.025 48.568 126.432 48.568L126.609 48.332C127.317 48.332 132.568 48.332 132.568 48.332L132.391 48.568C131.329 48.568 130.621 49.04 130.621 49.925C130.621 49.925 130.621 64.675 130.68 64.911C130.798 65.442 131.034 65.737 131.388 65.914C132.332 66.445 135.695 66.268 136.934 66.268C138.409 66.268 139.589 64.911 140.474 63.259L140.592 63.377L139.294 67.094Z" fill="#15181F"></path><path d="M146.905 65.4416C146.905 63.7896 146.964 53.8776 146.905 50.9866C146.846 49.5116 146.492 48.6266 144.899 48.6266L145.076 48.3906C145.784 48.3906 156.345 48.3906 156.345 48.3906L157.171 51.1636L156.994 51.2816C156.581 50.4556 156.168 49.0986 154.044 49.0986C152.569 49.0986 149.088 49.0986 149.088 49.0986C149.088 49.0986 149.088 57.2406 149.088 57.1816C150.504 57.1816 150.622 57.1816 152.982 57.1226C154.457 57.0636 155.342 56.7686 155.342 55.1166L155.637 55.0576C155.637 55.7656 155.637 59.6596 155.637 59.6596H155.342C155.342 58.5976 154.87 57.8896 153.985 57.8896C152.392 57.8896 151.743 57.8306 149.088 57.9486C149.088 57.9486 149.147 64.6746 149.147 64.9106C149.265 65.4416 149.501 65.7366 149.855 65.9136C150.799 66.4446 154.162 66.2676 155.401 66.2676C156.876 66.2676 158.056 64.9106 158.941 63.2586L159 63.4946L157.702 67.0936H144.958L145.135 66.7986C146.197 66.7986 146.905 66.3856 146.905 65.4416Z" fill="#15181F"></path></svg> 