<?xml version="1.0" encoding="UTF-8"?> <svg xmlns="http://www.w3.org/2000/svg" width="200" height="100" viewBox="0 0 200 100" fill="none"><rect width="200" height="100" rx="16" fill="#F9F9F9"></rect><g clip-path="url(#clip0_1784_3660)"><path d="M120.712 29.367H120.748C119.425 31.1018 118.342 33.0314 117.632 35.0981C116.723 37.6904 116.481 40.4511 116.366 43.1772C116.241 46.1885 116.132 49.2289 115.395 52.166C114.733 54.9004 113.578 57.501 112.1 59.8897C110.814 61.9739 109.3 63.9095 107.668 65.732C106.11 67.4649 104.45 69.1048 102.716 70.6602C102.839 69.8814 102.982 69.1062 103.135 68.3324C103.775 65.16 104.546 62.0155 105.348 58.8799C106.078 56.0518 106.84 53.2313 107.66 50.4282C105.99 50.1652 104.334 49.4156 103.258 48.0748C102.499 47.142 102.063 45.9671 101.957 44.7734C101.827 43.3409 102.136 41.8906 102.73 40.5885C103.411 39.1263 104.482 37.8818 105.67 36.8055C107.613 35.064 109.878 33.7212 112.216 32.5818C114.944 31.2572 117.809 30.2344 120.712 29.367ZM101.346 35.9489C103.716 34.4858 106.309 33.4234 108.929 32.4961C107.748 33.1854 106.605 33.9426 105.539 34.7997C104.095 35.9622 102.772 37.3086 101.811 38.9035C100.634 40.8652 100.06 43.2334 100.429 45.5083C100.715 47.337 101.686 49.0576 103.146 50.2033C103.894 50.803 104.754 51.2542 105.656 51.5733C104.247 56.5987 102.932 61.6525 101.82 66.7528C101.124 63.3536 100.641 59.9051 100.541 56.4335C100.477 54.5465 100.535 52.6574 100.661 50.7745C99.0297 50.3046 97.5849 49.179 96.8034 47.6625C95.6041 45.3806 95.777 42.5358 96.9422 40.2763C97.9243 38.4212 99.5949 37.0476 101.346 35.9489ZM53.9208 50.381C55.2533 50.2956 56.6006 50.3005 57.9206 50.5163C58.9748 50.6988 60.0663 51.0611 60.8063 51.8738C61.5072 52.6323 61.7604 53.6921 61.784 54.7006C61.8189 56.2615 61.4648 57.7987 61.0498 59.2935C60.6229 60.7753 60.1206 62.2453 59.3959 63.6104C58.8213 64.6868 58.0858 65.7021 57.1064 66.4468C56.0564 67.2567 54.7627 67.6897 53.4601 67.8729C51.9908 68.0715 50.4966 68.077 49.0218 67.934C47.8615 67.798 46.6336 67.5329 45.7419 66.7272C44.9605 66.0262 44.6537 64.949 44.6259 63.9296C44.5773 62.2771 44.9791 60.6538 45.4227 59.0749C45.914 57.4045 46.4901 55.7395 47.3792 54.2342C48.0252 53.1419 48.8795 52.1431 49.9816 51.4914C51.1656 50.7731 52.5545 50.4815 53.9208 50.381ZM54.2028 54.3306C53.5919 54.3841 53.0347 54.734 52.6876 55.2341C52.1033 56.0559 51.7854 57.027 51.4481 57.9673C51.0407 59.1992 50.6305 60.4338 50.3557 61.7031C50.253 62.2625 50.1225 62.858 50.3058 63.4146C50.4327 63.8095 50.854 63.9969 51.2392 64.0316C52.0005 64.1065 52.8688 64.0559 53.4503 63.4945C54.1083 62.8524 54.4269 61.9627 54.7516 61.1244C55.2187 59.8092 55.6401 58.4753 55.9778 57.1214C56.1174 56.4876 56.2764 55.8345 56.1819 55.183C56.1376 54.8567 55.9279 54.5493 55.6121 54.4347C55.1638 54.2674 54.6711 54.2925 54.2028 54.3306ZM32.1809 50.6759C33.9748 50.5289 35.7759 50.4885 37.5754 50.4823C39.0807 50.4878 40.6026 50.4109 42.0887 50.7037C42.7681 50.8446 43.4654 51.0723 43.9778 51.5615C44.3962 51.9578 44.6043 52.5325 44.6328 53.0995C44.6774 53.9579 44.4601 54.8046 44.1921 55.6132C43.8938 56.4933 43.4676 57.3809 42.7173 57.9638C42.0296 58.51 41.1447 58.705 40.2904 58.7945C40.2752 58.8279 40.244 58.8945 40.2286 58.9278C40.8721 58.9923 41.5362 59.127 42.0727 59.508C42.5251 59.8203 42.8264 60.3214 42.934 60.8565C43.104 61.6948 42.9513 62.5575 42.7376 63.3729C42.4405 64.4758 41.9936 65.5903 41.1524 66.3941C40.3799 67.143 39.3271 67.5142 38.284 67.6877C36.6503 67.9597 34.9882 67.8646 33.3399 67.8764C31.2808 67.8722 29.2202 67.8348 27.1659 67.6863V67.6731C28.8378 62.0079 30.5104 56.342 32.1809 50.6759ZM35.4628 57.2525C36.0972 57.2518 36.7322 57.2579 37.3665 57.2497C37.7975 57.2365 38.2749 57.1491 38.5692 56.8034C38.9114 56.3989 39.0578 55.8762 39.2126 55.38C39.2868 55.0891 39.386 54.7658 39.2584 54.4763C39.1238 54.2237 38.8031 54.1926 38.5484 54.1814C37.8259 54.173 37.1036 54.1801 36.381 54.1779C36.0743 55.203 35.7696 56.228 35.4628 57.2525ZM34.5225 60.4873C34.1512 61.7157 33.7958 62.9496 33.4315 64.1801C34.0422 64.1781 34.6535 64.1856 35.2644 64.1759C35.7537 64.1579 36.2825 64.1017 36.6787 63.7839C37.0522 63.4736 37.2436 63.0086 37.4033 62.5638C37.5421 62.1474 37.6809 61.7246 37.7233 61.286C37.742 61.0667 37.7073 60.8037 37.5095 60.6719C37.282 60.5213 36.9994 60.5073 36.7357 60.4927C35.9979 60.4832 35.2601 60.4942 34.5225 60.4873ZM65.849 51.0424C66.2404 50.7586 66.738 50.6759 67.212 50.6745C67.7907 50.6718 68.3697 50.6725 68.949 50.6738C69.287 50.6745 69.6499 50.7287 69.9173 50.9543C70.2245 51.2124 70.3586 51.6066 70.4858 51.9745C71.4496 54.9144 72.417 57.8528 73.3797 60.7927C73.4784 60.0902 73.6698 59.4053 73.8349 58.7168C74.3701 56.6063 74.9544 54.5082 75.5409 52.4117C75.6955 51.8594 76.0149 51.3263 76.5236 51.0355C77.1234 50.6807 77.8417 50.665 78.5183 50.6732C79.3267 50.6738 80.1359 50.6725 80.9451 50.6738C79.4419 55.7617 77.9415 60.8503 76.4388 65.938C76.264 66.5349 75.949 67.1484 75.3722 67.4427C74.6948 67.7953 73.91 67.6571 73.1778 67.6856C72.6442 67.662 72.0535 67.7772 71.5768 67.4732C71.1451 67.1804 71 66.6487 70.8445 66.1816C69.9575 63.2536 69.0748 60.3242 68.1933 57.3947C67.9281 58.6662 67.5652 59.9139 67.2286 61.1681C66.815 62.6685 66.3958 64.1669 65.9711 65.6639C65.8434 66.183 65.6124 66.6946 65.2048 67.0533C64.6976 67.5107 63.9967 67.6814 63.3276 67.6849C62.3788 67.6856 61.4302 67.6856 60.4808 67.6849C61.9784 62.6088 63.4753 57.5335 64.9738 52.4582C65.1306 51.9224 65.3805 51.3755 65.849 51.0424ZM86.1302 51.8412C86.525 51.1445 87.2918 50.6725 88.0983 50.6752C89.696 50.6705 91.2937 50.6745 92.8919 50.6732C93.2321 50.6669 93.5826 50.746 93.8629 50.9473C94.2425 51.2089 94.4619 51.6699 94.4472 52.1286C94.3766 57.315 94.3167 62.5014 94.2383 67.687C93.0481 67.6814 91.858 67.689 90.6684 67.6835C90.206 67.6648 89.7043 67.5857 89.3497 67.2636C89.0618 67.0034 88.9715 66.5938 88.9956 66.2206C89.0402 65.5098 89.0984 64.7999 89.1463 64.0899C87.6021 64.0892 86.0579 64.0892 84.5139 64.0892C84.2014 64.6812 83.8906 65.2739 83.5812 65.8673C83.4144 66.1788 83.2695 66.5092 83.0279 66.7722C82.4943 67.3781 81.6773 67.6843 80.8797 67.6849C79.612 67.6835 78.3448 67.689 77.0768 67.6821C80.0916 62.3999 83.111 57.1206 86.1302 51.8412ZM89.3026 54.6269C88.9651 55.4335 88.5579 56.2085 88.1767 56.9956C87.6464 58.0623 87.1115 59.1262 86.5737 60.1896C87.5315 60.1916 88.4892 60.186 89.4477 60.1923C89.6314 58.3358 89.7544 56.4716 89.9918 54.6208C89.7613 54.6214 89.5314 54.6145 89.3026 54.6269ZM122.166 51.5664C123.075 50.932 124.197 50.6516 125.297 50.6732C128.077 50.6732 130.856 50.6732 133.637 50.6732C133.391 51.4678 133.144 52.2618 132.875 53.0488C132.658 53.6484 132.212 54.1696 131.631 54.441C131.282 54.6074 130.892 54.6741 130.507 54.6722C129.21 54.6735 127.914 54.6714 126.616 54.6727C126.255 54.6797 125.858 54.7221 125.579 54.9733C125.32 55.2044 125.229 55.5514 125.136 55.8713C124.97 56.4321 124.803 56.9914 124.637 57.5523C126.618 57.5529 128.598 57.5523 130.578 57.5523C130.388 58.2748 130.199 58.9979 129.965 59.7087C129.809 60.1868 129.49 60.6316 129.021 60.8419C128.293 61.1855 127.468 61.0896 126.688 61.1049C125.657 61.1057 124.626 61.1049 123.595 61.1057C123.137 62.699 122.692 64.2967 122.202 65.8805C122.081 66.3114 121.86 66.7216 121.519 67.0165C120.961 67.5094 120.193 67.671 119.468 67.6835C118.408 67.687 117.346 67.6856 116.286 67.6843C117.597 63.2334 118.911 58.7841 120.223 54.3341C120.54 53.2313 121.213 52.2181 122.166 51.5664ZM135.36 50.6732C136.449 50.6732 137.537 50.6732 138.627 50.6732C138.955 50.6725 139.3 50.7086 139.589 50.88C140.094 51.1638 140.354 51.8106 140.193 52.3666C138.853 56.9116 137.512 61.4568 136.169 66.0005C136.03 66.4655 135.785 66.9145 135.393 67.2116C134.935 67.5676 134.338 67.6843 133.769 67.6849C132.625 67.6856 131.483 67.6856 130.338 67.6849C132.012 62.014 133.686 56.344 135.36 50.6732ZM143.275 50.6732C145.357 50.6732 147.442 50.6732 149.524 50.6732C151.078 50.6745 152.676 50.6635 154.163 51.1777C155.037 51.4727 155.843 52.0647 156.241 52.9148C156.768 54.0246 156.71 55.3008 156.552 56.489C156.321 58.0423 155.868 59.5532 155.359 61.0355C154.857 62.4423 154.259 63.8428 153.327 65.024C152.656 65.8805 151.766 66.5641 150.755 66.9686C149.309 67.5517 147.729 67.6599 146.187 67.6843C143.543 67.6863 140.9 67.6849 138.256 67.6849C139.929 62.014 141.601 56.3434 143.275 50.6732ZM147.551 54.305C146.601 57.5481 145.645 60.7899 144.694 64.0323C145.332 64.0392 145.97 64.0628 146.608 64.0517C147.204 64.0372 147.803 63.8296 148.244 63.4195C148.834 62.8754 149.197 62.139 149.509 61.4117C149.994 60.2277 150.332 58.991 150.659 57.7564C150.828 57.0714 151.003 56.3801 151.041 55.6722C151.053 55.3008 151.014 54.8727 150.718 54.6089C150.409 54.3466 149.981 54.3154 149.591 54.3057C148.912 54.3023 148.23 54.3029 147.551 54.305ZM160.894 51.8385C161.795 51.0639 162.995 50.7065 164.171 50.6953C167.083 50.6871 169.996 50.685 172.909 50.6759V50.6968C172.632 51.5525 172.372 52.4138 172.084 53.2667C171.961 53.6464 171.776 54.0252 171.452 54.2723C171.023 54.6096 170.457 54.6797 169.93 54.6727C168.609 54.6722 167.289 54.6735 165.969 54.6722C165.598 54.6727 165.203 54.6547 164.867 54.8345C164.571 54.9885 164.413 55.3057 164.323 55.6126C164.163 56.1427 164.005 56.6737 163.848 57.2054C165.895 57.2073 167.942 57.2024 169.989 57.2073C169.827 57.7987 169.67 58.3914 169.496 58.9792C169.38 59.4158 169.194 59.848 168.866 60.1673C168.454 60.5809 167.857 60.7538 167.286 60.7573C165.793 60.76 164.3 60.7565 162.806 60.7586C162.612 61.4241 162.416 62.089 162.222 62.7539C162.158 62.9801 162.113 63.2564 162.274 63.4541C162.465 63.6735 162.78 63.6846 163.05 63.6901C165.004 63.6909 166.957 63.6895 168.912 63.6909C168.766 64.5077 168.633 65.328 168.444 66.1359C168.326 66.646 168.039 67.143 167.565 67.3934C166.997 67.7126 166.325 67.6918 165.695 67.6849C163.725 67.6849 161.758 67.6856 159.789 67.6849C159.028 67.68 158.236 67.5385 157.6 67.0985C157.107 66.7626 156.758 66.2365 156.61 65.6618C156.405 64.879 156.496 64.051 156.699 63.2778C157.556 60.3382 158.429 57.4031 159.292 54.4652C159.568 53.4645 160.092 52.5116 160.894 51.8385Z" fill="#15181F"></path></g><defs><clipPath id="clip0_1784_3660"><rect width="146" height="41.5559" fill="white" transform="translate(27.0001 29.2227)"></rect></clipPath></defs></svg> 