<?xml version="1.0" encoding="UTF-8"?> <svg xmlns="http://www.w3.org/2000/svg" width="200" height="100" viewBox="0 0 200 100" fill="none"><rect width="200" height="100" rx="16" fill="#F9F9F9"></rect><g clip-path="url(#clip0_1784_3686)"><path fill-rule="evenodd" clip-rule="evenodd" d="M29.2371 38.0938C28.6041 38.0938 28.0946 38.5878 28.0946 39.2207V51.6486C28.0946 52.2815 28.6041 52.791 29.2371 52.791H44.1504C44.7834 52.791 45.2929 52.2815 45.2929 51.6486V39.2207C45.2929 38.5878 44.7834 38.0938 44.1504 38.0938H29.2371ZM36.0453 39.3906C36.4776 39.3906 36.8481 39.7456 36.8481 40.1779C36.8481 40.6256 36.4776 40.9807 36.0453 40.9807C35.5976 40.9807 35.2426 40.6256 35.2426 40.1779C35.2426 39.7456 35.5976 39.3906 36.0453 39.3906ZM36.0608 49.3483C36.5085 49.3483 36.8636 49.7033 36.8636 50.1356C36.8636 50.5833 36.5085 50.9384 36.0608 50.9384C35.6131 50.9384 35.258 50.5833 35.258 50.1356C35.258 49.7033 35.6131 49.3483 36.0608 49.3483Z" fill="#CAC4CE"></path><path fill-rule="evenodd" clip-rule="evenodd" d="M27.8167 37.7383C26.9676 37.7383 26.2729 38.4176 26.2729 39.2821V43.6203C26.242 43.8518 26.4427 44.0834 26.6743 44.0834C26.9058 44.0834 27.1065 43.8518 27.0757 43.6203V39.2821C27.0757 38.8653 27.3998 38.5411 27.8167 38.5411H44.2739C44.6908 38.5411 45.015 38.8653 45.015 39.2821V46.9086C45.015 47.3255 44.6908 47.6342 44.2739 47.6342H27.8167C26.9676 47.6342 26.2729 48.3289 26.2729 49.1781V56.82C26.2729 57.6691 26.9676 58.3793 27.8167 58.3793H30.75L28.8356 61.328C28.7739 61.4052 28.7584 61.4978 28.743 61.6059H23.0154C25.0224 61.9147 27.4307 62.2234 29.6384 62.2234H42.4522C44.6753 62.2234 47.0837 61.9147 49.0907 61.6059H43.3476C43.3476 61.4978 43.3168 61.4052 43.2704 61.328L41.3561 58.3793H43.8725C44.0887 58.3793 44.2894 58.1786 44.2894 57.9625C44.2894 57.7463 44.0887 57.5611 43.8725 57.5611H40.6614C40.6459 57.5611 40.6305 57.5456 40.6151 57.5456C40.5996 57.5456 40.5842 57.5456 40.5687 57.5456C40.5224 57.5456 40.4607 57.5456 40.4144 57.5611H31.6917C31.6454 57.5456 31.5836 57.5456 31.5219 57.5456C31.5065 57.5456 31.491 57.5456 31.4756 57.5456C31.4756 57.5456 31.4601 57.5611 31.4447 57.5611H27.8167C27.3998 57.5611 27.0757 57.2368 27.0757 56.82V49.1781C27.0757 48.7767 27.3998 48.4525 27.8167 48.4525H44.2739C44.6908 48.4525 45.015 48.7767 45.015 49.1781V53.5471C45.015 53.7632 45.2157 53.9485 45.4163 53.9485C45.6325 53.9485 45.8332 53.7632 45.8332 53.5471V49.1781C45.8332 48.7303 45.6325 48.3289 45.3237 48.0356C45.6325 47.7577 45.8332 47.3563 45.8332 46.9086V39.2821C45.8332 38.4176 45.123 37.7383 44.2739 37.7383H27.8167ZM36.0453 39.066C35.4123 39.066 34.872 39.5909 34.872 40.2393C34.872 40.8723 35.4123 41.3972 36.0453 41.3972C36.6937 41.3972 37.2186 40.8723 37.2186 40.2393C37.2186 39.5909 36.6937 39.066 36.0453 39.066ZM35.9836 39.8688C35.999 39.8688 36.0299 39.8688 36.0453 39.8688C36.246 39.8688 36.4004 40.0386 36.4004 40.2393C36.4004 40.44 36.246 40.5944 36.0453 40.5944C35.8446 40.5944 35.6902 40.44 35.6902 40.2393C35.6902 40.0695 35.8137 39.8996 35.9836 39.8688ZM36.0453 48.9619C35.4123 48.9619 34.872 49.5023 34.872 50.1507C34.872 50.7991 35.4123 51.324 36.0453 51.324C36.6937 51.324 37.2186 50.7991 37.2186 50.1507C37.2186 49.5023 36.6937 48.9619 36.0453 48.9619ZM36.0453 49.7802C36.246 49.7802 36.4004 49.9345 36.4004 50.1507C36.4004 50.3514 36.246 50.5058 36.0453 50.5058C35.8446 50.5058 35.6902 50.3514 35.6902 50.1507C35.6902 49.9345 35.8446 49.7802 36.0453 49.7802ZM32.0005 58.3793H40.0901L42.1434 61.6059H29.9472L32.0005 58.3793Z" fill="#15181F"></path><path d="M70.3159 45.3865L69.3001 46.1658C68.7398 45.4361 68.0655 44.8845 67.2776 44.511C66.4954 44.1315 65.6345 43.9418 64.6946 43.9418C63.6673 43.9418 62.7158 44.1899 61.8404 44.6861C60.9649 45.1764 60.2848 45.8389 59.8004 46.6736C59.3218 47.5025 59.0823 48.4364 59.0823 49.4754C59.0823 51.0456 59.6192 52.356 60.6933 53.4067C61.7731 54.4573 63.1333 54.9827 64.7735 54.9827C66.5772 54.9827 68.0861 54.2764 69.3001 52.8638L70.3159 53.6343C69.6738 54.4515 68.8711 55.0848 67.9081 55.5343C66.9508 55.9779 65.8797 56.1997 64.6946 56.1997C62.4416 56.1997 60.6643 55.4496 59.3626 53.9495C58.2709 52.6829 57.7253 51.1535 57.7253 49.3616C57.7253 47.4762 58.3848 45.8914 59.7039 44.6073C61.029 43.3173 62.6868 42.6723 64.6772 42.6723C65.8797 42.6723 66.9653 42.9116 67.9342 43.3902C68.9033 43.863 69.697 44.5285 70.3159 45.3865ZM72.7061 46.3496H73.9407V50.3597L78.3447 46.3496H80.0522L75.2278 50.71L80.4372 55.8758H78.7036L74.326 51.4717L73.9407 51.8132V55.8758H72.7061V46.3496ZM91.1979 46.3496V55.8758H89.9897V54.2385C89.476 54.863 88.8982 55.3329 88.2561 55.6481C87.6198 55.9633 86.9223 56.1209 86.1634 56.1209C84.8151 56.1209 83.6622 55.6335 82.705 54.6587C81.7536 53.6781 81.2778 52.4873 81.2778 51.0864C81.2778 49.7147 81.7594 48.5415 82.7224 47.5667C83.6857 46.5919 84.8444 46.1045 86.1985 46.1045C86.9806 46.1045 87.687 46.2709 88.3173 46.6036C88.9536 46.9363 89.511 47.4353 89.9897 48.1008V46.3496H91.1979ZM86.2947 47.2865C85.612 47.2865 84.9815 47.4558 84.4035 47.7943C83.8257 48.127 83.3645 48.5969 83.0201 49.204C82.6818 49.811 82.5125 50.4531 82.5125 51.1302C82.5125 51.8015 82.6847 52.4436 83.0291 53.0564C83.3735 53.6693 83.8344 54.148 84.4124 54.4924C84.996 54.8309 85.6207 55.0002 86.286 55.0002C86.9574 55.0002 87.5934 54.8309 88.1947 54.4924C88.7959 54.1538 89.2571 53.6956 89.5783 53.1177C89.905 52.5399 90.0685 51.889 90.0685 51.1652C90.0685 50.062 89.7035 49.1398 88.9742 48.3985C88.2503 47.6571 87.3572 47.2865 86.2947 47.2865ZM100.733 51.2878H95.1993V55.8758H93.9647V46.3496H95.1993V50.1321H100.733V46.3496H101.959V55.8758H100.733V51.2878ZM104.778 54.8338L108.455 46.3496H109.094L112.746 54.8338H113.893V57.0928H112.71V55.8758H104.83V57.1453H103.622V54.8338H104.778ZM108.753 48.2409L105.969 54.8338H111.423L108.753 48.2409ZM116.782 46.3496V53.3979L123.778 46.3496H123.874V55.8758H122.648V48.8888L115.705 55.8758H115.556V46.3496H116.782ZM137.235 55.8758H135.834L131.57 45.9206L127.227 55.8758H125.826L131.43 42.9962H131.71L137.235 55.8758ZM148.687 46.3496V55.8758H147.479V54.2385C146.965 54.863 146.387 55.3329 145.746 55.6481C145.109 55.9633 144.412 56.1209 143.653 56.1209C142.305 56.1209 141.152 55.6335 140.194 54.6587C139.243 53.6781 138.767 52.4873 138.767 51.0864C138.767 49.7147 139.249 48.5415 140.212 47.5667C141.175 46.5919 142.334 46.1045 143.688 46.1045C144.47 46.1045 145.176 46.2709 145.807 46.6036C146.443 46.9363 147.001 47.4353 147.479 48.1008V46.3496H148.687ZM143.784 47.2865C143.101 47.2865 142.471 47.4558 141.893 47.7943C141.315 48.127 140.854 48.5969 140.51 49.204C140.171 49.811 140.002 50.4531 140.002 51.1302C140.002 51.8015 140.174 52.4436 140.518 53.0564C140.863 53.6693 141.324 54.148 141.902 54.4924C142.485 54.8309 143.11 55.0002 143.775 55.0002C144.447 55.0002 145.083 54.8309 145.684 54.4924C146.285 54.1538 146.747 53.6956 147.067 53.1177C147.394 52.5399 147.558 51.889 147.558 51.1652C147.558 50.062 147.193 49.1398 146.463 48.3985C145.74 47.6571 144.847 47.2865 143.784 47.2865ZM152.68 46.3496V53.3979L159.676 46.3496H159.772V55.8758H158.546V48.8888L151.603 55.8758H151.454V46.3496H152.68ZM152.514 42.5234H153.669C153.868 42.827 154.133 43.0546 154.466 43.2064C154.799 43.3581 155.196 43.434 155.657 43.434C156.124 43.434 156.5 43.3669 156.786 43.2326C157.072 43.0984 157.344 42.862 157.601 42.5234H158.721C158.593 43.0488 158.263 43.4895 157.732 43.8455C157.206 44.1958 156.512 44.3709 155.648 44.3709C154.79 44.3709 154.09 44.1987 153.547 43.8543C153.004 43.5041 152.659 43.0604 152.514 42.5234ZM169.272 51.2878H163.738V55.8758H162.504V46.3496H163.738V50.1321H169.272V46.3496H170.498V55.8758H169.272V51.2878Z" fill="#15181F"></path></g><defs><clipPath id="clip0_1784_3686"><rect width="154" height="24.524" fill="white" transform="translate(23 37.7383)"></rect></clipPath></defs></svg> 