<?xml version="1.0" encoding="UTF-8"?> <svg xmlns="http://www.w3.org/2000/svg" width="96" height="96" viewBox="0 0 96 96" fill="none"><rect x="0.5" y="0.5" width="95" height="95" rx="15.5" fill="#F6F6F9"></rect><rect x="0.5" y="0.5" width="95" height="95" rx="15.5" stroke="#E9EBF0"></rect><path d="M72 66C72 69.3137 69.3137 72 66 72L30 72C26.6863 72 24 69.3137 24 66L24 30C24 26.6863 26.6863 24 30 24L66 24C69.3137 24 72 26.6863 72 30L72 66Z" fill="url(#paint0_linear_926_2191)"></path><path d="M72 66C72 69.3137 69.3137 72 66 72L30 72C26.6863 72 24 69.3137 24 66L24 30C24 26.6863 26.6863 24 30 24L66 24C69.3137 24 72 26.6863 72 30L72 66Z" fill="url(#paint1_linear_926_2191)"></path><path d="M72 66C72 69.3137 69.3137 72 66 72L30 72C26.6863 72 24 69.3137 24 66L24 30C24 26.6863 26.6863 24 30 24L66 24C69.3137 24 72 26.6863 72 30L72 66Z" stroke="white"></path><path d="M12 21C12 16.0294 16.0294 12 21 12H39C43.9706 12 48 16.0294 48 21V48H21C16.0294 48 12 43.9706 12 39V21Z" fill="white"></path><path d="M12 21C12 16.0294 16.0294 12 21 12H39C43.9706 12 48 16.0294 48 21V48H21C16.0294 48 12 43.9706 12 39V21Z" fill="url(#paint2_linear_926_2191)"></path><path d="M39.2416 24.7026C37.9523 24.7026 36.7879 25.0926 35.7938 25.7599V19.6689H33.0435V30.9021C33.0435 34.3197 35.824 37.0699 39.2264 37.0699C42.629 37.0699 45.441 34.3361 45.441 30.8705C45.441 27.4048 42.6907 24.7026 39.2416 24.7026ZM26.7603 31.6957L24.2435 25.1393H22.317L19.785 31.6957L17.2531 25.1393H14.2529L18.6811 36.6676H20.6075L23.2644 29.8008L25.9364 36.6676H27.8629L32.276 25.1393H29.2922L26.7603 31.6957ZM39.2278 34.321C37.3632 34.321 35.7938 32.8299 35.7938 30.887C35.7938 28.944 37.2698 27.4694 39.2429 27.4694C41.216 27.4694 42.6921 29.0072 42.6921 30.887C42.6921 32.7667 41.1227 34.321 39.2278 34.321Z" fill="white"></path><g clip-path="url(#clip0_926_2191)"><path fill-rule="evenodd" clip-rule="evenodd" d="M48 48H84V72.1034C82.9176 70.9263 81.8163 69.7658 80.7316 68.5934C81.7713 66.3174 81.9561 63.6079 80.9447 61.2892C79.8908 58.7692 77.6313 56.9361 75.1516 55.9082C71.3124 54.3166 66.9521 54.3213 62.9755 55.38C59.0534 56.4363 55.3208 58.5726 52.8079 61.8126C51.1145 63.9892 50.0487 66.8005 50.4726 69.5811C50.8208 72.1461 52.455 74.4008 54.5795 75.8195C54.2882 78.5479 53.985 81.2739 53.6866 84H48V48Z" fill="#005BFF"></path><path fill-rule="evenodd" clip-rule="evenodd" d="M62.9759 55.3802C66.9525 54.3215 71.3128 54.3167 75.152 55.9083C77.6317 56.9362 79.8912 58.7694 80.9451 61.2894C81.9564 63.608 81.7717 66.3175 80.732 68.5936C79.3464 71.6204 76.7909 73.9817 73.918 75.5899C70.4412 77.5202 66.4196 78.4817 62.4454 78.278C59.6767 78.1265 56.8962 77.3757 54.5799 75.8196C52.4554 74.4009 50.8212 72.1462 50.473 69.5812C50.0491 66.8007 51.1149 63.9894 52.8083 61.8128C55.3212 58.5728 59.0538 56.4365 62.9759 55.3802ZM66.493 60.1359C63.722 60.5173 61.0101 61.5617 58.8122 63.312C57.3154 64.5341 55.9038 66.1494 55.6907 68.1459C55.5462 69.4249 56.3562 70.5854 57.3675 71.2817C59.3807 72.6767 61.9338 73.0391 64.333 72.9207C67.9496 72.6886 71.5804 71.3149 74.1833 68.7452C75.3296 67.5752 76.3599 66.0688 76.3172 64.3636C76.1775 63.1367 75.3746 62.0686 74.3183 61.4552C71.9972 60.0412 69.1409 59.8067 66.493 60.1359Z" fill="white"></path><path fill-rule="evenodd" clip-rule="evenodd" d="M66.4926 60.1356C69.1405 59.8064 71.9968 60.0408 74.3178 61.4548C75.3742 62.0682 76.177 63.1364 76.3168 64.3632C76.3594 66.0685 75.3292 67.5748 74.1828 68.7448C71.5799 71.3145 67.9492 72.6882 64.3326 72.9203C61.9334 73.0387 59.3802 72.6764 57.367 71.2814C56.3557 70.5851 55.5457 69.4245 55.6902 68.1456C55.9034 66.149 57.3149 64.5337 58.8118 63.3116C61.0097 61.5614 63.7215 60.5169 66.4926 60.1356ZM73.9176 75.5895C70.4407 77.5198 66.4192 78.4814 62.4449 78.2777C59.6763 78.1261 56.8957 77.3753 54.5794 75.8193C54.2881 78.5477 53.9849 81.2737 53.6865 83.9998H83.9999V72.1032C82.9176 70.9261 81.8163 69.7656 80.7315 68.5932C79.346 71.6201 76.7905 73.9814 73.9176 75.5895Z" fill="#F91155"></path></g><defs><linearGradient id="paint0_linear_926_2191" x1="24" y1="24" x2="72" y2="72" gradientUnits="userSpaceOnUse"><stop stop-color="#F6F7F9"></stop><stop offset="1" stop-color="#E9EBF0"></stop></linearGradient><linearGradient id="paint1_linear_926_2191" x1="69.931" y1="69.931" x2="26.4828" y2="26.069" gradientUnits="userSpaceOnUse"><stop stop-color="#DEC2FD"></stop><stop offset="0.62567" stop-color="#F2E6FE"></stop></linearGradient><linearGradient id="paint2_linear_926_2191" x1="24.1091" y1="51.1091" x2="46.2" y2="14.2909" gradientUnits="userSpaceOnUse"><stop stop-color="#6F01FB"></stop><stop offset="1" stop-color="#FF49D7"></stop></linearGradient><clipPath id="clip0_926_2191"><path d="M48 48H69.33C74.6254 48 77.2732 48 79.2737 49.0794C80.8191 49.9133 82.0867 51.1809 82.9206 52.7263C84 54.7268 84 57.3746 84 62.67V69.33C84 74.6254 84 77.2732 82.9206 79.2737C82.0867 80.8191 80.8191 82.0867 79.2737 82.9206C77.2732 84 74.6254 84 69.33 84H62.67C57.3746 84 54.7268 84 52.7263 82.9206C51.1809 82.0867 49.9133 80.8191 49.0794 79.2737C48 77.2732 48 74.6254 48 69.33V48Z" fill="white"></path></clipPath></defs></svg> 