<?xml version="1.0" encoding="UTF-8"?> <svg xmlns="http://www.w3.org/2000/svg" width="96" height="96" viewBox="0 0 96 96" fill="none"><rect x="0.5" y="0.5" width="95" height="95" rx="15.5" fill="#F6F6F9"></rect><rect x="0.5" y="0.5" width="95" height="95" rx="15.5" stroke="#E9EBF0"></rect><path d="M18 84.5C14.4101 84.5 11.5 81.5899 11.5 78L11.5 18C11.5 14.4101 14.4101 11.5 18 11.5L78 11.5C81.5899 11.5 84.5 14.4101 84.5 18L84.5 78C84.5 81.5899 81.5899 84.5 78 84.5L18 84.5Z" fill="url(#paint0_linear_926_2206)" stroke="white"></path><path d="M78 71C78 74.866 74.866 78 71 78L25 78C21.134 78 18 74.866 18 71L18 25C18 21.134 21.134 18 25 18L71 18C74.866 18 78 21.134 78 25L78 71Z" fill="url(#paint1_linear_926_2206)"></path><path d="M24 67L72 67" stroke="#E6C9FE" stroke-width="2"></path><path d="M24 57L72 57" stroke="#E6C9FE" stroke-width="2"></path><path d="M24 47L72 47" stroke="#E6C9FE" stroke-width="2"></path><path d="M24 37L72 37" stroke="#E6C9FE" stroke-width="2"></path><path d="M24 27L72 27" stroke="#E6C9FE" stroke-width="2"></path><path d="M18 30V24C18 20.6863 20.6863 18 24 18H30" stroke="#C16FFB" stroke-width="2"></path><path d="M18 56V40" stroke="#C16FFB" stroke-width="2"></path><path d="M78 56V40" stroke="#C16FFB" stroke-width="2"></path><path d="M40 78L56 78" stroke="#C16FFB" stroke-width="2"></path><path d="M40 18L56 18" stroke="#C16FFB" stroke-width="2"></path><path d="M78 66V72C78 75.3137 75.3137 78 72 78H66" stroke="#C16FFB" stroke-width="2"></path><path d="M78 30V24C78 20.6863 75.3137 18 72 18H66" stroke="#C16FFB" stroke-width="2"></path><path d="M18 66V72C18 75.3137 20.6863 78 24 78H30" stroke="#C16FFB" stroke-width="2"></path><rect x="36" y="36" width="24" height="24" rx="12" fill="#300247"></rect><path d="M48 42V54" stroke="#C16FFB" stroke-width="2"></path><path d="M54 48L42 48" stroke="#C16FFB" stroke-width="2"></path><defs><linearGradient id="paint0_linear_926_2206" x1="12" y1="12" x2="84" y2="84" gradientUnits="userSpaceOnUse"><stop stop-color="#F6F7F9"></stop><stop offset="1" stop-color="#E9EBF0"></stop></linearGradient><linearGradient id="paint1_linear_926_2206" x1="75.4138" y1="75.4138" x2="21.1034" y2="20.5862" gradientUnits="userSpaceOnUse"><stop stop-color="#EAD7FE"></stop><stop offset="1" stop-color="#F2E6FE"></stop></linearGradient></defs></svg> 