<?xml version="1.0" encoding="UTF-8"?> <svg xmlns="http://www.w3.org/2000/svg" width="96" height="96" viewBox="0 0 96 96" fill="none"><path d="M81 48C81 66.2254 66.2254 81 48 81C29.7746 81 15 66.2254 15 48C15 29.7746 29.7746 15 48 15C66.2254 15 81 29.7746 81 48Z" fill="url(#paint0_linear_1072_708)"></path><path d="M70 48C70 60.1503 60.1503 70 48 70C35.8497 70 26 60.1503 26 48C26 35.8497 35.8497 26 48 26C60.1503 26 70 35.8497 70 48Z" fill="url(#paint1_linear_1072_708)"></path><path d="M70 48C70 60.1503 60.1503 70 48 70C35.8497 70 26 60.1503 26 48C26 35.8497 35.8497 26 48 26C60.1503 26 70 35.8497 70 48Z" fill="url(#paint2_linear_1072_708)"></path><path d="M12 16.0001L26.5 16L48.0002 49L71 20H84" stroke="url(#paint3_linear_1072_708)" stroke-width="2" stroke-linecap="square" stroke-linejoin="round"></path><path d="M12 75H26L47.9996 49L69.5 81H84" stroke="url(#paint4_linear_1072_708)" stroke-width="2" stroke-linecap="square" stroke-linejoin="round"></path><path d="M60 48C60 54.6274 54.6274 60 48 60C41.3726 60 36 54.6274 36 48C36 41.3726 41.3726 36 48 36C54.6274 36 60 41.3726 60 48Z" fill="url(#paint5_linear_1072_708)"></path><path d="M60 48C60 54.6274 54.6274 60 48 60C41.3726 60 36 54.6274 36 48C36 41.3726 41.3726 36 48 36C54.6274 36 60 41.3726 60 48Z" fill="url(#paint6_linear_1072_708)"></path><path d="M60 48C60 54.6274 54.6274 60 48 60C41.3726 60 36 54.6274 36 48C36 41.3726 41.3726 36 48 36C54.6274 36 60 41.3726 60 48Z" stroke="white"></path><rect x="11" y="13" width="6" height="6" fill="#C578FC"></rect><rect x="79" y="78" width="6" height="6" fill="#C578FC"></rect><rect x="11" y="72" width="6" height="6" fill="#C578FC"></rect><rect x="79" y="17" width="6" height="6" fill="#C578FC"></rect><path d="M48 44L51.4641 46V50L48 52L44.5359 50V46L48 44Z" fill="white"></path><defs><linearGradient id="paint0_linear_1072_708" x1="78.1552" y1="78.1552" x2="18.4138" y2="17.8448" gradientUnits="userSpaceOnUse"><stop stop-color="#DEC2FD"></stop><stop offset="0.62567" stop-color="#F2E6FE"></stop></linearGradient><linearGradient id="paint1_linear_1072_708" x1="26" y1="26" x2="70" y2="70" gradientUnits="userSpaceOnUse"><stop stop-color="#F6F7F9"></stop><stop offset="1" stop-color="#E9EBF0"></stop></linearGradient><linearGradient id="paint2_linear_1072_708" x1="68.1034" y1="68.1034" x2="28.2759" y2="27.8965" gradientUnits="userSpaceOnUse"><stop offset="0.278495" stop-color="#F2E6FE"></stop><stop offset="1" stop-color="#DEC2FD"></stop></linearGradient><linearGradient id="paint3_linear_1072_708" x1="46" y1="53.1905" x2="47.9326" y2="8.99705" gradientUnits="userSpaceOnUse"><stop offset="0.427274" stop-color="white"></stop><stop offset="0.757006" stop-color="#C16FFB"></stop><stop offset="1" stop-color="#E8D4FE"></stop></linearGradient><linearGradient id="paint4_linear_1072_708" x1="51.5" y1="42" x2="45" y2="86.5" gradientUnits="userSpaceOnUse"><stop offset="0.517073" stop-color="white"></stop><stop offset="0.73058" stop-color="#C16FFB"></stop><stop offset="1" stop-color="#E8D4FE"></stop></linearGradient><linearGradient id="paint5_linear_1072_708" x1="36" y1="36" x2="60" y2="60" gradientUnits="userSpaceOnUse"><stop stop-color="#F6F7F9"></stop><stop offset="1" stop-color="#E9EBF0"></stop></linearGradient><linearGradient id="paint6_linear_1072_708" x1="58.9655" y1="58.9655" x2="37.2414" y2="37.0345" gradientUnits="userSpaceOnUse"><stop stop-color="#DEC2FD"></stop><stop offset="0.62567" stop-color="#F2E6FE"></stop></linearGradient></defs></svg> 