<?xml version="1.0" encoding="UTF-8"?> <svg xmlns="http://www.w3.org/2000/svg" width="96" height="96" viewBox="0 0 96 96" fill="none"><rect x="0.5" y="0.5" width="95" height="95" rx="15.5" fill="#F6F6F9"></rect><rect x="0.5" y="0.5" width="95" height="95" rx="15.5" stroke="#E9EBF0"></rect><path d="M24 78.5L23.665 78.4912C20.2309 78.3169 17.5 75.4775 17.5 72L17.5 24C17.5 20.4101 20.4101 17.5 24 17.5L72 17.5C75.5898 17.5 78.5 20.4101 78.5 24L78.5 72C78.5 75.5898 75.5899 78.5 72 78.5L24 78.5Z" fill="url(#paint0_linear_926_2231)" stroke="white"></path><path d="M40.5 44.8889C34 45.4075 30 62 18 62V72C18 75.3137 20.6863 78 24 78H72C75.3137 78 78 75.3137 78 72V34C60.5 34 58.5 52.4533 54 53.7037C49.5 54.9541 47 44.3703 40.5 44.8889Z" fill="#D8F995"></path><path d="M40.5 44.8889C34 45.4075 30 62 18 62V72C18 75.3137 20.6863 78 24 78H72C75.3137 78 78 75.3137 78 72V34C60.5 34 58.5 52.4533 54 53.7037C49.5 54.9541 47 44.3703 40.5 44.8889Z" fill="url(#paint1_linear_926_2231)"></path><path d="M28 72L28 24" stroke="white" stroke-width="2"></path><path d="M38 72L38 24" stroke="white" stroke-width="2"></path><path d="M48 72L48 24" stroke="white" stroke-width="2"></path><path d="M58 72L58 24" stroke="white" stroke-width="2"></path><path d="M68 72L68 24" stroke="white" stroke-width="2"></path><path d="M18 62C30 62 34 45.4075 40.5 44.8889C47 44.3703 49.5 54.9541 54 53.7037C58.5 52.4533 60.5 34 78 34" stroke="#C16FFB" stroke-width="2"></path><path d="M12 28V18C12 14.6863 14.6863 12 18 12H28" stroke="#C16FFB" stroke-width="2"></path><path d="M84 68V78C84 81.3137 81.3137 84 78 84H68" stroke="#C16FFB" stroke-width="2"></path><path d="M84 28V18C84 14.6863 81.3137 12 78 12H68" stroke="#C16FFB" stroke-width="2"></path><path d="M12 68V78C12 81.3137 14.6863 84 18 84H28" stroke="#C16FFB" stroke-width="2"></path><defs><linearGradient id="paint0_linear_926_2231" x1="18" y1="18" x2="78" y2="78" gradientUnits="userSpaceOnUse"><stop stop-color="#F6F7F9"></stop><stop offset="1" stop-color="#E9EBF0"></stop></linearGradient><linearGradient id="paint1_linear_926_2231" x1="43.5" y1="49" x2="48.6002" y2="93.1072" gradientUnits="userSpaceOnUse"><stop stop-color="#F2E6FE"></stop><stop offset="1" stop-color="#D5AFFD"></stop></linearGradient></defs></svg> 