<?xml version="1.0" encoding="UTF-8"?> <svg xmlns="http://www.w3.org/2000/svg" width="176" height="19" viewBox="0 0 176 19" fill="none"><path d="M52.7969 9.56346C52.7969 6.05574 52.7969 4.30188 53.5517 2.99551C54.0462 2.13969 54.7574 1.42901 55.6139 0.934897C56.9212 0.180664 58.6764 0.180664 62.1868 0.180664H93.3161C96.8265 0.180664 98.5817 0.180664 99.8891 0.934897C100.746 1.42901 101.457 2.13969 101.951 2.99551C102.706 4.30188 102.706 6.05574 102.706 9.56346C102.706 13.0712 102.706 14.8251 101.951 16.1314C101.457 16.9872 100.746 17.6979 99.8891 18.192C98.5817 18.9463 96.8265 18.9463 93.3161 18.9463H62.1868C58.6764 18.9463 56.9212 18.9463 55.6139 18.192C54.7574 17.6979 54.0462 16.9872 53.5517 16.1314C52.7969 14.8251 52.7969 13.0712 52.7969 9.56346Z" fill="#C16FFB"></path><path d="M61.6839 6.28711C62.8714 6.28711 63.7822 6.55032 64.4162 7.07674C65.0591 7.60316 65.3805 8.40171 65.3805 9.4724V13.4607H63.3313V12.1759C62.7152 13.1395 61.7285 13.6213 60.3713 13.6213C59.4873 13.6213 58.8131 13.425 58.3488 13.0324C57.8845 12.6398 57.6523 12.1268 57.6523 11.4933C57.6523 10.7795 57.9425 10.2531 58.5229 9.91406C59.1123 9.56608 59.9695 9.34749 61.0945 9.25826L63.184 9.09766V9.00397C63.184 8.63816 63.0589 8.34818 62.8089 8.13404C62.5589 7.9199 62.1839 7.80838 61.6839 7.79945C60.782 7.79945 60.2641 8.08497 60.1302 8.656H58.0943C58.1211 8.2188 58.2372 7.84406 58.4426 7.53178C58.6569 7.21058 58.9337 6.96521 59.273 6.79568C59.6123 6.61724 59.9784 6.48786 60.3713 6.40756C60.7731 6.32726 61.2106 6.28711 61.6839 6.28711ZM61.0276 12.1223C61.6705 12.1223 62.1884 11.9707 62.5812 11.6673C62.9831 11.3639 63.184 11.007 63.184 10.5966V10.3691L61.3892 10.5029C60.3534 10.5922 59.8355 10.8821 59.8355 11.3729C59.8355 11.6048 59.9382 11.7878 60.1436 11.9216C60.3489 12.0554 60.6436 12.1223 61.0276 12.1223Z" fill="white"></path><path d="M72.6918 6.44771V8.25449H68.7273V13.4607H66.5307V6.44771H72.6918Z" fill="white"></path><path d="M81.1354 10.3691V10.61H75.0547C75.269 11.6093 75.9833 12.109 77.1977 12.109C77.9745 12.109 78.5415 11.8725 78.8987 11.3996L81.0283 11.5067C80.8051 12.1759 80.3631 12.6978 79.7023 13.0726C79.0505 13.4384 78.2156 13.6213 77.1977 13.6213C75.8583 13.6213 74.7957 13.3179 74.01 12.7112C73.2331 12.1045 72.8447 11.1855 72.8447 9.95421C72.8447 8.73184 73.2287 7.8173 73.9966 7.21058C74.7645 6.59493 75.8003 6.28711 77.1039 6.28711C78.4344 6.28711 79.4389 6.61724 80.1175 7.27749C80.7961 7.92883 81.1354 8.95936 81.1354 10.3691ZM77.1039 7.79945C75.961 7.79945 75.2824 8.28126 75.0681 9.24488H78.9657C78.921 8.79876 78.7335 8.44633 78.4031 8.18758C78.0817 7.92883 77.6486 7.79945 77.1039 7.79945Z" fill="white"></path><path d="M87.5163 6.44771H89.7129V13.4607H87.5163V10.784H84.208V13.4607H82.0115V6.44771H84.208V8.97721H87.5163V6.44771Z" fill="white"></path><path d="M98.0346 6.44771V8.25449H95.3156V13.4607H93.1191V8.25449H90.4001V6.44771H98.0346Z" fill="white"></path><path d="M37.8815 17.4514H37.5679C33.2416 17.4514 29.7266 13.9402 29.7266 9.61876C29.7266 5.29731 33.2416 1.78613 37.5679 1.78613H37.8815C42.2077 1.78613 45.7228 5.29731 45.7228 9.61876C45.712 13.9402 42.1969 17.4514 37.8815 17.4514ZM37.5679 6.20482C35.6751 6.20482 34.1393 7.73893 34.1393 9.62956C34.1393 11.5202 35.6751 13.0543 37.5679 13.0543H37.8707C39.7634 13.0543 41.2992 11.5202 41.2992 9.62956C41.2992 7.73893 39.7634 6.20482 37.8707 6.20482H37.5679Z" fill="#15181F"></path><path d="M50.0726 1.76367H45.5625V6.26878H50.0726V1.76367Z" fill="#15181F"></path><path d="M9.01754 1.7627H0.246094V6.26781H9.01754V1.7627Z" fill="#15181F"></path><path d="M9.02535 6.2666V10.8041C9.02535 12.0465 8.00868 13.0621 6.76489 13.0621C5.5211 13.0621 4.50443 12.0465 4.50443 10.8041H0.253906C0.253906 14.3909 3.17411 17.3187 6.77571 17.3187C10.3665 17.3187 13.2975 14.4017 13.2975 10.8041V6.2666H9.02535Z" fill="#15181F"></path><path d="M26.8654 1.77441L21.9227 12.7185L16.98 1.77441H14.0273V6.25792L19.0458 17.3532H24.7997L29.8181 6.25792V1.77441H26.8654Z" fill="#15181F"></path><path d="M130.906 8.80971C130.906 5.72601 130.906 4.18418 131.506 3.00637C132.034 1.97033 132.877 1.12801 133.913 0.600128C135.09 0 136.632 0 139.716 0H140.862C143.946 0 145.488 0 146.665 0.600128C147.702 1.12801 148.544 1.97033 149.072 3.00637C149.672 4.18418 149.672 5.72601 149.672 8.80971V9.95589C149.672 13.0396 149.672 14.5814 149.072 15.7592C148.544 16.7953 147.702 17.6376 146.665 18.1655C145.488 18.7656 143.946 18.7656 140.862 18.7656H139.716C136.632 18.7656 135.09 18.7656 133.913 18.1655C132.877 17.6376 132.034 16.7953 131.506 15.7592C130.906 14.5814 130.906 13.0396 130.906 9.95589V8.80971Z" fill="url(#paint0_linear_1536_2051)"></path><path d="M145.104 6.62195C144.432 6.62195 143.825 6.8252 143.307 7.17307V3.99805H141.873V9.8535C141.873 11.635 143.322 13.0686 145.096 13.0686C146.87 13.0686 148.335 11.6435 148.335 9.83704C148.335 8.0305 146.902 6.62195 145.104 6.62195ZM138.598 10.2672L137.286 6.84956H136.282L134.962 10.2672L133.642 6.84956H132.078L134.386 12.8589H135.391L136.776 9.27947L138.168 12.8589H139.173L141.473 6.84956H139.918L138.598 10.2672ZM145.097 11.6357C144.125 11.6357 143.307 10.8584 143.307 9.84564C143.307 8.83285 144.076 8.06416 145.105 8.06416C146.133 8.06416 146.903 8.86577 146.903 9.84564C146.903 10.8255 146.084 11.6357 145.097 11.6357Z" fill="#F1F1F1"></path><g clip-path="url(#clip0_1536_2051)"><mask id="mask0_1536_2051" style="mask-type:luminance" maskUnits="userSpaceOnUse" x="157" y="0" width="19" height="19"><path d="M172.247 18.7602H161C158.928 18.7602 157.25 17.081 157.25 15.0101V3.75726C157.25 1.68506 158.928 0.00585938 161 0.00585938L172.247 0.00585938C174.319 0.00585938 175.997 1.68506 175.997 3.75726V15.0101C175.996 17.081 174.317 18.7602 172.247 18.7602Z" fill="white"></path></mask><g mask="url(#mask0_1536_2051)"><path d="M175.996 0.00585938L157.25 0.00585938V18.7602H175.996V0.00585938Z" fill="#005BFF"></path></g><mask id="mask1_1536_2051" style="mask-type:luminance" maskUnits="userSpaceOnUse" x="157" y="0" width="19" height="19"><path d="M172.247 0.00585938L161 0.00585938C158.928 0.00585938 157.25 1.68505 157.25 3.75726V15.0101C157.25 17.081 158.928 18.7602 161 18.7602H172.247C174.317 18.7602 175.996 17.081 175.997 15.0101V3.75726C175.997 1.68505 174.319 0.00585938 172.247 0.00585938Z" fill="white"></path></mask><g mask="url(#mask1_1536_2051)"><path d="M178.063 16.073C176.639 17.3548 174.997 19.2467 172.934 19.1722C172.379 18.7979 173.257 18.0681 173.539 17.7522C174.438 16.7433 175.325 15.6663 176.199 14.5685C179.342 10.6196 178.313 12.8208 178.063 16.073Z" fill="#F1117E"></path><path d="M174.413 -3.34899C173.01 -0.139438 171.29 3.04892 168.862 5.61341C167.182 7.38793 166.013 8.71312 163.94 10.3079C161.543 12.1528 159.197 13.5908 156.927 15.547C155.727 16.6523 154.312 17.5664 152.785 18.2158C152.795 18.3403 152.923 20.1412 152.927 20.165C152.948 20.1531 153.373 19.8117 153.457 19.7496C157.04 17.2568 161.159 15.5816 164.666 12.9121C168.982 9.28036 172.596 4.7899 175.683 0.0835749C178.492 -3.84029 180.334 -3.9064 174.413 -3.34899Z" fill="#F1117E"></path><path d="M160.679 0.997838C159.842 1.88441 159.024 2.77231 158.206 3.67741C157.76 4.1723 157.358 4.70557 156.917 5.2084C156.13 6.10688 155.316 6.99478 154.386 7.72918C153.443 8.47284 152.428 9.22444 151.467 9.94429C151.464 9.89004 151.35 7.36793 151.348 7.31103C151.755 6.6203 152.165 5.83826 152.468 5.08798C152.646 4.6447 152.804 4.17892 152.984 3.73563C153.328 2.88214 153.779 2.10142 154.443 1.4795C154.813 1.13148 155.239 0.885362 155.677 0.651147C156.99 -0.0528182 158.302 -0.768693 159.618 -1.46604C160.402 -1.88286 160.996 -2.60933 161.696 -3.15847L164.472 -3.28418C163.212 -1.84846 161.992 -0.392891 160.679 0.997838Z" fill="#F1117E"></path><path d="M166.768 21.1845C167.813 20.1233 171.473 17.658 170.89 17.3202C170.838 17.2898 170.773 17.2898 170.718 17.3162C168.708 18.2885 166.831 19.67 165.419 21.4216C165.382 21.4668 165.327 21.4931 165.269 21.4925C164.939 21.4891 163.869 21.4771 163.183 21.4695C163 21.4674 162.927 21.2318 163.076 21.1259C163.192 21.0437 163.289 20.9739 163.343 20.9337C164.999 19.656 166.845 18.697 168.632 17.6545C170.776 16.4047 172.634 14.7198 174.089 12.7091C174.758 11.7843 175.44 10.8709 176.239 10.0617C176.247 10.053 176.257 10.0452 176.267 10.0383C178.498 8.52169 179.115 3.98598 182.192 2.38318C182.319 2.31696 182.47 2.40925 182.469 2.55264C182.459 3.71945 180.918 4.66814 180.816 5.86545C180.815 5.87722 180.813 5.88894 180.81 5.90034C179.614 10.2517 175.399 13.2032 173.398 15.4749C172.21 16.8243 170.801 19.509 169.181 21.3014C169.164 21.3211 169.15 21.3443 169.142 21.3695C169.061 21.6164 167.611 21.5311 166.897 21.5058C166.733 21.5 166.653 21.3016 166.768 21.1845Z" fill="#F1117E"></path><path d="M151.996 22.0123C156.007 19.2436 160.801 17.8026 164.729 14.9484C167.005 12.9898 168.745 10.4317 171.053 8.52731C171.691 8.14289 171.512 8.72622 171.305 9.1042C168.987 13.7553 164.359 16.424 160.046 18.9752C156.936 20.9649 156.317 22.6235 151.996 22.0123Z" fill="#F1117E"></path><path d="M179.627 2.9383C183.109 1.20887 182.205 -0.617952 181.755 -4.1084C179.935 -2.81546 178.791 -1.35346 177.401 0.352491C173.29 5.11165 171.834 12.0765 166.264 15.6384C163.404 17.3029 161.092 19.6704 158.648 21.8643C159.201 21.67 162.299 21.9943 162.455 21.1419C163.186 19.9063 163.983 18.9257 165.325 18.3434C167.844 17.0206 170.017 15.1422 172.227 13.3692C175.259 10.3685 175.261 4.70954 179.627 2.9383Z" fill="#F1117E"></path><path d="M174.005 -3.33701C171.792 0.673438 167.737 4.77212 163.636 7.84108C162.039 9.03615 160.185 9.83764 158.223 10.1976C156.726 10.4722 156.074 10.9089 153.935 12.7063C153.196 13.4774 152.798 14.1933 152.159 15.4253C152.158 15.3829 151.984 11.5826 151.984 11.5826C153.686 9.26362 156.287 8.25783 158.258 6.28173C159.883 4.58432 161.017 2.4557 162.515 0.648651C163.264 -0.302946 165.636 -2.44936 166.082 -2.9785C166.088 -2.97841 168.537 -3.08956 168.537 -3.08956C167.418 -1.67065 166.277 -0.316625 163.911 2.48465C163.626 2.82168 161.275 5.24366 160.416 6.57618C160.136 7.01003 159.946 7.4512 160.157 7.6158C160.381 7.79016 160.696 7.5002 161.206 7.18179C164.128 5.35473 166.172 3.63004 168.539 0.680457C172.37 -4.09426 169.433 -3.66974 174.005 -3.33701Z" fill="#F1117E"></path></g><mask id="mask2_1536_2051" style="mask-type:luminance" maskUnits="userSpaceOnUse" x="157" y="0" width="19" height="19"><path d="M172.247 0.00585938L161 0.00585938C158.928 0.00585938 157.25 1.68505 157.25 3.75726V15.0101C157.25 17.081 158.928 18.7602 161 18.7602H172.247C174.317 18.7602 175.996 17.081 175.997 15.0101V3.75726C175.997 1.68505 174.319 0.00585938 172.247 0.00585938Z" fill="white"></path></mask><g mask="url(#mask2_1536_2051)"><path d="M165.107 10.8124L163.453 11.2558L164.816 7.89243C164.846 7.81735 164.809 7.73228 164.734 7.70234C164.705 7.69079 164.673 7.6888 164.643 7.69666L161.587 8.51587C161.318 8.58818 161.157 8.8656 161.23 9.13546C161.302 9.40533 161.579 9.5655 161.849 9.49319L163.223 9.12481L161.853 12.4916C161.822 12.5654 161.856 12.6504 161.93 12.6814C161.96 12.6941 161.994 12.6962 162.025 12.6873L165.369 11.791C165.635 11.7048 165.78 11.4194 165.694 11.1537C165.614 10.9072 165.361 10.7611 165.108 10.815L165.107 10.8124ZM174.977 4.92654C174.707 4.99886 174.547 5.27627 174.619 5.54613L175.058 7.18508L171.857 5.79694C171.784 5.76409 171.698 5.79666 171.665 5.86969C171.651 5.9005 171.649 5.93521 171.658 5.96779L172.56 9.3368C172.632 9.60666 172.91 9.76679 173.179 9.69448C173.449 9.62217 173.609 9.34479 173.537 9.07493L173.098 7.43598L176.3 8.82544C176.374 8.85714 176.46 8.82255 176.492 8.74824C176.504 8.71823 176.507 8.6848 176.498 8.65329L175.596 5.28427C175.524 5.01441 175.247 4.85423 174.977 4.92654ZM168.827 9.91434C167.71 10.2137 166.717 9.84869 166.575 9.32174C166.434 8.7948 167.112 7.98182 168.229 7.68244C169.346 7.38306 170.339 7.74804 170.48 8.27499C170.621 8.80193 169.946 9.61425 168.827 9.91434ZM167.968 6.70644C166.35 7.13993 165.29 8.42768 165.6 9.58326C165.909 10.7388 167.471 11.3238 169.088 10.8903C170.705 10.4568 171.765 9.16906 171.456 8.01348C171.146 6.8579 169.585 6.27295 167.968 6.70644ZM159.213 12.4929C158.596 12.659 157.962 12.2936 157.796 11.6767C157.63 11.0598 157.995 10.4251 158.612 10.2591C159.228 10.093 159.863 10.4584 160.029 11.0753L160.029 11.0766C160.194 11.6932 159.829 12.327 159.213 12.4929ZM158.353 9.28369C157.198 9.59271 156.511 10.7806 156.82 11.9369C157.129 13.0932 158.316 13.78 159.472 13.4709C160.628 13.1619 161.314 11.974 161.005 10.8177C161.005 10.8168 161.005 10.816 161.005 10.8151C160.695 9.65977 159.508 8.97412 158.353 9.28369Z" fill="#F2F2F2"></path></g></g><path d="M119.249 7.14258L114.406 11.9853" stroke="#15181F" stroke-width="0.605342"></path><path d="M114.407 7.14258L119.25 11.9853" stroke="#15181F" stroke-width="0.605342"></path><defs><linearGradient id="paint0_linear_1536_2051" x1="137.218" y1="20.3863" x2="148.734" y2="1.19418" gradientUnits="userSpaceOnUse"><stop stop-color="#6F01FB"></stop><stop offset="1" stop-color="#FF49D7"></stop></linearGradient><clipPath id="clip0_1536_2051"><rect x="157.234" width="18.7656" height="18.7656" rx="3.84466" fill="white"></rect></clipPath></defs></svg> 