<?xml version="1.0" encoding="UTF-8"?> <svg xmlns="http://www.w3.org/2000/svg" width="43" height="47" viewBox="0 0 43 47" fill="none"><mask id="mask0_1336_51611" style="mask-type:luminance" maskUnits="userSpaceOnUse" x="0" y="0" width="43" height="47"><path d="M43 0H0V47H43V0Z" fill="white"></path></mask><g mask="url(#mask0_1336_51611)"><path d="M26.1913 22.8873C26.1913 22.8873 25.912 22.6088 25.4653 22.6088C25.2419 22.6088 24.9627 22.6645 24.7394 22.8316C24.6835 22.8316 24.6835 22.8873 24.6835 22.943C24.6835 22.943 24.851 24.168 24.7394 24.7249C24.6277 25.1147 24.2926 25.5603 23.6783 25.5603C23.5666 25.5603 23.3991 25.5603 23.2874 25.5046L23.7341 25.1704C23.7899 25.1704 23.7899 25.1147 23.7899 25.0591C23.7899 25.0034 23.7899 25.0034 23.7341 24.9477L22.8406 24.3352C23.1198 24.1124 23.2874 23.9453 23.3433 23.9453C23.3433 23.9453 23.3991 23.8897 23.3991 23.834C23.3991 23.7782 23.3991 23.7782 23.3433 23.7225L23.1757 23.5555C23.1757 23.5555 23.1198 23.4998 23.064 23.4998H23.0081C23.0081 23.4998 22.729 23.6669 22.3938 23.9453L22.003 23.6669L23.4549 22.8316L23.5666 23.11C23.5666 23.1657 23.6224 23.1657 23.6783 23.1657C23.7341 23.1657 23.7899 23.1657 23.7899 23.11L24.4601 21.8292C24.4601 21.7735 24.4601 21.7178 24.4601 21.7178C24.4601 21.6621 24.4042 21.6621 24.3484 21.6621L22.8965 21.8849C22.8406 21.8849 22.7848 21.9406 22.7848 21.9963C22.7848 22.0519 22.7848 22.1076 22.8406 22.1076L23.064 22.3304L21.4445 23.4441L19.8251 22.3304L20.0484 22.1076C20.1043 22.0519 20.1043 21.9963 20.1043 21.9963C20.1043 21.9406 20.0484 21.9406 19.9926 21.8849L18.5965 21.6621C18.5407 21.6621 18.5407 21.6621 18.4848 21.7178C18.4848 21.7735 18.429 21.8292 18.4848 21.8292L19.1549 23.11C19.1549 23.1657 19.2108 23.1657 19.2666 23.1657C19.3225 23.1657 19.3783 23.11 19.3783 23.11L19.49 22.8316L20.9419 23.834L20.5511 24.1124C20.1601 23.834 19.9368 23.6669 19.9368 23.6669H19.8809C19.8251 23.6669 19.8251 23.6669 19.7692 23.7225L19.5458 23.7782C19.5458 23.7782 19.49 23.834 19.49 23.8897C19.49 23.9453 19.49 23.9453 19.5458 24.001C19.5458 24.001 19.7692 24.168 20.0484 24.3908L19.1549 25.0034C19.0991 25.0034 19.0991 25.0591 19.0991 25.1147C19.0991 25.1704 19.0991 25.1704 19.1549 25.2261L19.6016 25.5603C19.4341 25.6159 19.3225 25.6159 19.2108 25.6159C18.5965 25.6159 18.2614 25.1704 18.1497 24.7806C18.038 24.2794 18.2055 22.9986 18.2055 22.9986C18.2055 22.943 18.2055 22.8873 18.1497 22.8873C17.8705 22.7202 17.6471 22.6645 17.4237 22.6645C16.977 22.6645 16.6978 22.943 16.6978 22.943L16.6419 22.9986C16.6419 23.0543 16.4744 24.8364 17.3121 25.7273C17.5912 26.0614 18.038 26.2285 18.4848 26.2285C18.5965 26.2285 18.6523 26.2285 18.764 26.2285C19.2108 26.1728 19.7133 26.0614 20.1043 25.8944L20.8861 26.3956L19.2108 27.565C19.1549 27.565 19.1549 27.6207 19.1549 27.6764C19.1549 27.732 19.1549 27.732 19.2108 27.7877L20.8861 28.9572L19.4341 29.9595L19.3225 29.6811C19.3225 29.6254 19.2666 29.6254 19.2108 29.6254C19.1549 29.6254 19.0991 29.6254 19.0991 29.6811L18.429 30.8505C18.429 30.9062 18.429 30.9619 18.429 30.9619C18.429 31.0176 18.4848 31.0176 18.5407 31.0176L19.9368 30.7948C19.9926 30.7948 20.0484 30.7392 20.0484 30.6835C20.0484 30.6278 20.0484 30.5721 19.9926 30.5721L19.7692 30.3493L21.3887 29.2356L23.0081 30.3493L22.8406 30.6278C22.7848 30.6835 22.7848 30.7392 22.7848 30.7392C22.7848 30.7948 22.8406 30.7948 22.8965 30.8505L24.2926 31.0733C24.3484 31.0733 24.3484 31.0733 24.4042 31.0176C24.4042 30.9619 24.4601 30.9062 24.4042 30.9062L23.7341 29.6254C23.7341 29.5698 23.6783 29.5697 23.6224 29.5697C23.5666 29.5697 23.5108 29.6254 23.5108 29.6254L23.4549 29.9038L22.003 28.9014L23.6783 27.732C23.7341 27.732 23.7341 27.6764 23.7341 27.6207C23.7341 27.565 23.7341 27.565 23.6783 27.5093L22.003 26.3398L22.7848 25.8386C23.2316 26.0058 23.6783 26.1171 24.1251 26.1728C24.2367 26.1728 24.2926 26.1728 24.4042 26.1728C24.9069 26.1728 25.2978 26.0058 25.577 25.6716C26.4146 24.7806 26.2471 22.9986 26.2471 22.943C26.2471 22.943 26.2471 22.8873 26.1913 22.8873ZM21.4445 24.168L21.8354 24.3908C21.7237 24.4465 21.612 24.5579 21.4445 24.6136C21.3329 24.5579 21.2212 24.4465 21.1095 24.3908L21.4445 24.168ZM20.1043 25.1147L20.6069 24.7806C20.7186 24.8364 20.8302 24.892 20.9419 25.0034C20.7186 25.1147 20.5511 25.2261 20.3276 25.2818L20.1043 25.1147ZM22.729 27.6207L21.4445 28.5117L20.1601 27.6207L21.4445 26.7297L22.729 27.6207ZM21.4445 26.0058L20.8302 25.5603C21.0536 25.4489 21.277 25.3375 21.4445 25.2261C21.6679 25.3375 21.8354 25.4489 22.0588 25.5603L21.4445 26.0058ZM22.5614 25.2261C22.338 25.1147 22.1705 25.0591 21.9472 24.9477C22.0588 24.892 22.1705 24.8363 22.2822 24.7249L22.7848 25.0591L22.5614 25.2261Z" fill="white"></path><path d="M42.8878 19.5462C42.3852 19.2121 41.4917 19.1007 40.5981 19.2121C41.9942 18.7109 42.9437 17.7085 42.9995 16.7619C42.2735 16.5391 41.4917 16.6505 40.8774 16.8176C41.5476 16.3164 42.6644 15.3697 42.5527 14.0332C41.8826 13.8661 40.7099 14.3116 40.2073 14.5343C41.8267 13.6434 42.3852 11.5272 41.5476 10.3021C41.0449 10.5806 38.7553 12.9194 38.3644 13.1979C39.5372 11.8614 40.0956 10.859 40.4306 9.96798C40.8216 8.96561 40.8216 7.23934 39.593 6.68247C39.0345 8.01896 36.9683 11.4159 35.8514 12.8638C35.7397 12.7524 35.628 12.5853 35.4605 12.5853C35.1813 13.4763 34.3994 14.59 33.6735 15.1469C33.6176 15.0912 33.5618 14.8685 33.4501 14.6457C32.6683 15.8152 30.6579 17.3744 29.9878 18.3768C29.4851 19.1007 29.4851 19.7689 30.2111 20.4372C30.4904 20.7156 31.0489 21.2168 30.5462 21.9408C29.9319 22.8875 28.6475 22.9989 27.9215 22.442C27.9215 22.2749 27.9215 22.1078 27.9215 21.9965C28.7592 21.6623 28.9268 20.5486 28.3125 19.8804C28.2008 20.1588 27.9774 20.3259 27.6982 20.4372C27.6424 20.1588 27.5865 19.9917 27.5865 19.9917L27.5307 19.9361H27.4748C27.4748 19.9361 27.1956 19.936 26.8047 19.8804C27.2514 19.7133 27.5306 19.3235 27.4748 18.7666C26.7488 19.3792 26.0787 18.7666 25.9111 18.6552C25.4644 18.154 25.3527 17.5415 25.5203 16.6505C25.6878 15.8709 26.4696 14.6457 27.0281 14.256C27.0839 14.3116 27.2514 14.4787 27.4748 14.4787C27.6424 14.423 27.8657 14.3116 28.0332 14.256C28.5917 14.0888 29.0943 14.2003 29.4293 14.423C30.0436 14.8128 29.9878 15.2027 29.9878 15.481C30.8813 14.9799 30.6021 14.0888 29.3735 13.8104C30.2111 13.8104 30.8813 14.5343 31.0489 14.6457C31.4955 14.9799 32.1657 14.9242 32.5566 14.7015C33.2826 14.3673 33.4501 13.4763 33.2268 13.3093C33.1709 13.6434 32.8917 13.8661 32.5008 13.9218C31.8865 13.9775 31.2722 13.6991 30.7696 13.532C30.3787 13.3649 29.7086 13.2536 29.2618 13.2536C30.0994 12.8081 31.3839 12.8638 31.8307 13.532C32.1098 13.3093 32.2774 13.0865 32.3332 12.641C32.5566 11.4159 31.6072 10.8033 30.6021 10.8033C30.6021 10.5248 30.4346 10.3578 30.1553 10.4692C30.1553 10.3578 30.0994 10.2465 30.0436 10.1908H30.0994C31.1605 10.1351 32.1098 9.80095 32.6683 9.24408C33.6176 8.24171 32.1098 7.01659 32.6683 6.01422C33.1709 6.23697 33.5618 6.51541 34.2319 6.62678C34.2878 6.79384 34.3436 7.07228 34.3994 7.23934C34.6229 8.35307 33.5618 8.52018 33.8411 9.68959C33.9527 10.2465 34.3436 10.4135 34.5112 11.026C34.5112 11.026 34.567 11.4715 34.1761 11.8614C35.0696 11.8614 35.5164 11.1375 35.2372 10.4135C35.1254 10.1351 34.7904 9.85663 34.7904 9.52256C35.2372 10.1351 35.6839 10.0794 36.354 9.85663C36.6891 9.74527 36.6891 10.1908 36.5215 10.5806C37.0241 10.3021 37.1358 9.80095 37.1358 9.63391C37.1358 9.13273 36.7449 8.90993 36.354 9.02137C36.1306 9.02137 35.7397 9.35544 35.6839 8.90993C35.5722 8.18603 36.6891 8.24171 36.4657 7.12797C36.354 6.5711 35.7397 6.23697 34.7345 6.1256C34.6229 6.01422 34.3994 5.79148 34.2319 5.56872C33.6735 4.67773 33.1151 4.45498 32.78 4.62204C32.3891 4.84479 32.1657 5.01185 31.8307 5.17892C31.5514 5.29029 31.2722 5.40166 31.1047 5.56872C30.6579 6.1256 31.1047 6.90522 31.328 7.4064C31.4955 7.68484 31.8307 8.35307 31.6631 8.85425C31.4955 9.4668 30.4904 9.85663 29.8761 9.96798C29.8203 9.96798 29.8203 9.96798 29.7644 9.96798V9.74527C29.9319 9.41112 30.0994 9.07705 30.2111 8.7429C30.6021 7.68484 29.9878 7.23934 29.0943 7.01659C28.9826 6.9609 28.8709 6.90522 28.7033 6.9609V7.12797L28.5917 7.07228V6.84953H28.5358C28.6475 6.79384 28.7033 6.62678 28.7033 6.51541C28.7033 6.40403 28.6475 6.29266 28.5917 6.18128H28.7033L28.6475 6.1256C28.6475 6.06991 28.5917 6.01422 28.48 5.95854C28.48 5.95854 28.4242 5.90285 28.4242 5.84716C28.4242 5.84716 28.48 5.90285 28.5358 5.90285C28.5917 5.95854 28.6475 6.01422 28.7033 6.06991L28.7592 6.1256V5.01185L28.7033 5.06754C28.7033 5.06754 28.5917 5.12323 28.5358 5.17892C28.48 5.2346 28.48 5.2346 28.4242 5.2346C28.4242 5.2346 28.4242 5.17892 28.48 5.12323C28.5358 5.06754 28.5917 5.01185 28.6475 4.95616L28.7033 4.90047H27.6982L27.8099 5.01185C27.8099 5.06754 27.9215 5.12323 27.9215 5.17892C27.9215 5.2346 27.9774 5.2346 27.9774 5.29029C27.9774 5.29029 27.9215 5.29029 27.8657 5.2346C27.754 5.17892 27.754 5.12323 27.6982 5.12323V5.01185V6.01422L27.754 5.95854C27.8099 5.90285 27.8657 5.84716 27.9215 5.79148C27.9215 5.79148 27.9774 5.73579 28.0332 5.73579C28.0332 5.73579 27.9774 5.79148 27.9774 5.84716C27.9215 5.90285 27.8657 5.95854 27.8099 6.01422L27.754 6.06991H27.9215C27.8099 6.1256 27.8099 6.23697 27.8099 6.40404C27.8099 6.51541 27.8657 6.62678 27.9215 6.73816V6.9609L27.8099 7.01659V6.84953C27.6424 6.79384 27.5306 6.84953 27.4189 6.90522C26.5254 7.12797 25.9111 7.57346 26.3021 8.63154C26.4138 8.96561 26.5813 9.35544 26.7488 9.63391V9.80095C25.8553 9.52256 24.18 8.52018 23.7332 7.90759C23.6774 7.8519 23.6216 7.79622 23.6216 7.74053V7.07228C23.9566 6.51541 24.2359 5.90285 24.4592 5.29029C25.0177 3.73105 24.18 3.0628 22.8397 2.78436C22.7281 2.67299 22.5046 2.6173 22.2813 2.72867L22.2255 2.95142H21.9462V2.6173C21.8903 2.6173 21.8345 2.6173 21.7787 2.6173C21.9462 2.50593 22.1138 2.28317 22.1138 2.06043C22.1138 1.89337 22.0021 1.67061 21.8903 1.55924H22.1138C22.0021 1.44787 21.7787 1.16943 21.7228 1.00237C21.8903 1.05806 22.1696 1.28081 22.2813 1.39218V0.167061C22.1696 0.278436 21.8903 0.501185 21.7228 0.556872C21.7787 0.389811 22.0021 0.111375 22.1696 0H20.8852C20.9969 0.111375 21.2202 0.389811 21.2202 0.501185C21.0527 0.501185 20.8293 0.222749 20.6618 0.111375V1.39218C20.7735 1.28081 21.0527 1.05806 21.2202 1.00237C21.2202 1.16943 20.941 1.44787 20.8293 1.55924H21.0527C20.8852 1.67061 20.8293 1.89337 20.8293 2.06043C20.8293 2.28317 20.941 2.56161 21.1644 2.6173C21.1085 2.6173 21.0527 2.6173 20.9969 2.6173V2.95142H20.7177V2.72867C20.4942 2.67299 20.3267 2.72867 20.1592 2.78436C18.8189 3.0628 17.9813 3.73105 18.5398 5.29029C18.7631 5.90285 19.0423 6.5711 19.3774 7.07228V7.74053C19.3774 7.74053 19.3216 7.79622 19.2657 7.8519C18.8189 8.46442 17.1995 9.4668 16.2501 9.74527V9.57824C16.4177 9.24408 16.5852 8.90993 16.6969 8.57586C17.0878 7.51778 16.4735 7.07228 15.58 6.84953C15.4683 6.79384 15.3566 6.73816 15.1891 6.79384V6.9609L15.0774 6.90522V6.68247C15.1333 6.62678 15.1891 6.45972 15.1891 6.34834C15.1891 6.23697 15.1891 6.1256 15.0774 6.01422H15.2449L15.1891 5.95854C15.1333 5.90285 15.0774 5.84716 15.0215 5.79148C15.0215 5.79148 14.9657 5.73579 14.9098 5.68009L15.0215 5.73579C15.0774 5.79148 15.1333 5.84716 15.1891 5.90285L15.2449 5.95854V5.01185L15.1891 5.06754C15.1333 5.06754 15.0774 5.12323 15.0215 5.17892C15.0215 5.2346 14.9098 5.2346 14.9098 5.2346C14.9098 5.2346 14.9657 5.17892 15.0215 5.12323C15.0774 5.06754 15.1333 5.01185 15.1891 4.95616L15.2449 4.90047H14.2397L14.2955 5.01185C14.2955 5.06754 14.4073 5.12323 14.4073 5.17892C14.519 5.2346 14.519 5.29029 14.519 5.29029C14.519 5.29029 14.4631 5.29029 14.4073 5.2346C14.3514 5.17892 14.2955 5.12323 14.2397 5.12323L14.1838 5.01185V6.01422L14.2397 5.95854C14.2397 5.90285 14.3514 5.84716 14.4073 5.79148C14.4631 5.79148 14.4631 5.73579 14.519 5.73579C14.519 5.73579 14.519 5.79148 14.4631 5.84716C14.4073 5.90285 14.3514 5.95854 14.3514 6.01422L14.2955 6.06991H14.4073C14.3514 6.1256 14.2955 6.23697 14.2955 6.40404C14.2955 6.51541 14.3514 6.62678 14.4631 6.73816H14.4073V6.9609L14.2955 7.01659V6.84953C14.128 6.79384 14.0163 6.84953 13.9047 6.90522C13.0112 7.12797 12.3969 7.57346 12.7877 8.63154C12.8994 8.96561 13.067 9.35544 13.2345 9.63391V9.85663C13.1787 9.85663 13.1787 9.85663 13.1229 9.85663C12.5086 9.74527 11.5033 9.35544 11.3358 8.7429C11.1683 8.24171 11.5592 7.57346 11.6709 7.29503C11.8943 6.79384 12.2852 5.95854 11.8943 5.45735C11.7268 5.17892 11.4475 5.12323 11.1683 4.95616C10.8332 4.7891 10.6657 4.62204 10.219 4.3993C9.8839 4.23223 9.32543 4.45498 8.76696 5.34598C8.65533 5.56872 8.37609 5.79148 8.2644 5.90285C7.31504 6.01422 6.64491 6.34834 6.53323 6.90522C6.30984 8.01896 7.42673 8.01896 7.37089 8.68722C7.37089 9.07705 6.92413 8.79857 6.70075 8.79857C6.30984 8.68722 5.91894 8.90993 5.91894 9.41112C5.91894 9.63391 6.03062 10.0794 6.53323 10.3578C6.30984 10.0237 6.36569 9.57824 6.70075 9.63391C7.42673 9.85663 7.81764 9.85663 8.2644 9.29976C8.2644 9.63391 7.98517 9.91231 7.81764 10.1908C7.53842 10.9147 7.98517 11.6387 8.87867 11.6387C8.4878 11.2488 8.54362 10.8033 8.54362 10.8033C8.65533 10.1908 9.04619 9.96798 9.21372 9.4668C9.49295 8.29739 8.37609 8.13034 8.65533 7.01659C8.65533 6.84953 8.71114 6.5711 8.82285 6.40404C9.54877 6.29266 9.8839 6.01422 10.3865 5.79148C10.8891 6.73816 9.43714 8.01896 10.3865 9.02137C10.945 9.57824 11.8943 9.91231 12.9553 9.96798H13.0112C12.9553 10.0237 12.8994 10.1351 12.8994 10.2465C12.6202 10.1351 12.3969 10.3021 12.4527 10.5806C11.3916 10.5806 10.4423 11.1932 10.6657 12.4182C10.7215 12.8638 10.8891 13.0865 11.2241 13.3093C11.6709 12.5853 12.9553 12.5853 13.793 13.0308C13.3462 13.0308 12.6761 13.1422 12.2852 13.3093C11.8384 13.532 11.2241 13.8104 10.6098 13.6991C10.1631 13.6434 9.93972 13.3649 9.8839 13.0865C9.66048 13.2536 9.82801 14.1446 10.554 14.4787C10.945 14.6457 11.5592 14.7571 12.0618 14.423C12.2293 14.3116 12.8994 13.5877 13.7372 13.5877C12.5644 13.9218 12.2293 14.7571 13.1229 15.2583C13.067 14.9799 13.0112 14.5343 13.6254 14.2003C13.9605 13.9775 14.4631 13.8661 15.0215 14.0332C15.1891 14.0888 15.4683 14.256 15.58 14.256C15.8592 14.256 15.9709 14.1446 16.0267 14.0332C16.5852 14.423 17.3112 15.6481 17.5345 16.4277C17.702 17.3188 17.5904 17.8756 17.1436 18.4325C16.9761 18.5995 16.3059 19.1564 15.58 18.5438C15.5241 19.1007 15.8034 19.5462 16.2501 19.6576C15.8592 19.7133 15.58 19.7133 15.58 19.7133H15.5241L15.4683 19.7689C15.4683 19.7689 15.4124 19.9361 15.3008 20.2144C15.0215 20.1031 14.854 19.9361 14.6865 19.6576C14.0722 20.3259 14.2955 21.4396 15.0774 21.7737C15.0774 21.9408 15.0774 22.1078 15.0774 22.2749C14.4073 22.8317 13.1229 22.7204 12.5086 21.7737C12.0059 21.0498 12.5644 20.5486 12.8436 20.2701C13.5695 19.6019 13.5695 18.9337 13.0112 18.2097C12.3411 17.2631 10.3307 15.6481 9.54877 14.4787C9.43714 14.7015 9.32543 14.8685 9.32543 14.9799C8.59943 14.423 7.76179 13.3093 7.53842 12.4182C7.37089 12.4182 7.2592 12.5853 7.14751 12.6967C6.03062 11.3045 3.96439 7.8519 3.40595 6.51541C2.23322 7.23934 2.23322 8.96561 2.62413 9.96798C2.95919 10.859 3.51763 11.8614 4.69036 13.1979C4.29945 12.9194 2.00984 10.5806 1.50724 10.3021C0.669584 11.5272 1.22802 13.6434 2.84751 14.5343C2.34491 14.3116 1.17218 13.8661 0.502051 14.0332C0.390363 15.3697 1.4514 16.3164 2.17738 16.8176C1.50724 16.6505 0.781273 16.5391 0.0552979 16.7619C0.111142 17.7085 1.0605 18.7109 2.40075 19.2121C1.56309 19.1007 0.669584 19.2121 0.111142 19.5462C0.22283 20.4929 1.28387 21.3282 2.62413 21.551C1.73062 21.6623 0.948802 22.0522 0.557895 22.5533C1.0605 23.1659 1.73062 23.6671 2.79167 23.6114C2.56829 23.7228 2.23322 23.8898 2.00984 24.1126C2.00984 24.1126 1.954 24.0569 1.89816 24.0569C1.84231 24.0569 1.84231 24.1683 1.84231 24.2239V24.2796C1.73062 24.2796 1.67478 24.391 1.67478 24.4467C1.56309 24.6138 1.4514 24.7808 1.39556 24.8922L1.4514 24.9479C1.4514 25.0593 1.4514 25.115 1.50724 25.2263C1.4514 25.282 1.4514 25.3377 1.39556 25.449L0.781273 25.2263C0.725428 25.7832 0.892963 26.2844 1.17218 26.5628C1.4514 26.7856 1.67478 26.7299 1.61894 26.8412L2.28906 27.2311C2.40075 27.5095 2.67997 27.5095 2.84751 27.3981V27.4538C2.84751 27.7323 3.01504 27.955 3.29426 28.0106C3.23841 28.2334 3.35011 28.4005 3.62933 28.4562L6.19816 34.6374C6.08647 34.9159 6.19816 35.1943 6.42153 35.3057C6.36569 35.3614 6.30984 35.4728 6.30984 35.5841C6.42153 35.5285 6.53323 35.4728 6.64491 35.6955C6.70075 35.8626 6.42153 36.3081 6.81245 36.6422C6.7566 36.9207 6.92413 37.199 7.20335 37.3662C7.20335 37.5332 7.31504 37.9787 7.37089 38.1457C7.20335 38.4242 6.7566 38.814 6.81245 39.2038C6.86829 39.5379 6.97998 39.5936 7.20335 39.705C7.09167 40.2618 7.42673 40.4846 7.87348 40.5403C7.87348 40.9302 8.2644 41.0972 8.4878 41.0972C8.71114 41.2642 8.82285 41.3199 9.10209 41.487C8.87867 41.7654 9.04619 42.1552 9.49296 42.2666C9.54877 42.4337 9.66048 42.6008 9.93972 42.6564C10.1072 42.8791 10.3865 42.8791 10.4982 42.8235C10.6098 42.7678 10.7773 42.4894 10.6098 42.2666C10.7215 42.1552 10.6657 41.9325 10.6098 41.7654C10.7773 41.487 10.6098 41.1529 10.4423 41.0415C10.4423 40.8744 10.3865 40.6517 10.3307 40.5403C10.6657 40.3175 11.1125 40.0391 11.28 39.9278C12.1734 39.3152 13.1229 38.7583 14.2955 38.6469C14.5748 38.6469 15.1333 38.5913 15.4124 38.6469C15.8592 38.7026 16.4735 38.814 16.8644 38.5356C16.9761 38.4799 17.0319 38.3129 17.0319 38.2014C16.9761 37.923 16.6969 37.6446 16.5852 37.4218C16.5852 37.3662 16.5294 37.2547 16.4735 37.1434C16.8085 37.199 17.0878 37.1434 17.2553 37.0877C17.4787 37.032 17.9255 36.6422 17.9255 36.141C17.5345 36.3081 16.641 36.5865 16.5294 35.6398C16.4177 34.8045 17.1436 34.1362 18.3163 34.4147C19.0981 34.6374 20.2151 36.2524 19.2099 36.9763C18.7073 37.3105 17.9255 37.6446 18.0371 38.5356C18.3722 38.1457 18.8189 37.923 19.3774 37.9787C18.5398 38.5913 17.8696 38.7026 16.9761 39.1481C16.1942 39.5936 15.6358 40.3733 15.0215 40.3733C14.5748 40.3733 14.2955 39.8163 14.7423 39.4266C14.2955 39.3152 13.6813 39.705 13.5137 40.1505C13.2904 40.8187 13.4579 41.2642 13.8488 41.5427C13.2904 41.8211 12.8994 42.4337 13.067 43.2133C13.2345 43.8815 13.9605 43.8815 13.6813 44.7725C14.0722 44.6612 14.2955 44.4384 14.4073 44.0486C14.4631 43.7702 14.519 43.5474 14.6306 43.3803C14.5748 43.8815 14.854 44.6612 15.58 44.9953C16.0826 45.218 16.8085 45.3294 17.367 44.7169C17.5904 45.3851 18.428 45.9976 19.2099 45.9419C19.6008 45.9419 19.9359 45.7749 20.2709 45.6079C20.4942 46.1091 20.9969 46.6102 21.4995 46.833C22.0021 46.6102 22.5046 46.1091 22.7281 45.6079C23.0073 45.7749 23.3982 45.9419 23.7332 45.9419C24.515 45.9419 25.3527 45.3851 25.5761 44.7169C26.1345 45.3294 26.9164 45.218 27.3631 44.9953C28.089 44.6612 28.3683 43.8815 28.3125 43.3803C28.4242 43.4918 28.48 43.7702 28.5358 44.0486C28.6475 44.4384 28.8709 44.6612 29.2618 44.7725C28.9826 43.9372 29.7086 43.9372 29.8761 43.2133C30.0994 42.378 29.6527 41.8211 29.1501 41.5427C29.541 41.2642 29.7086 40.8187 29.4851 40.1505C29.3176 39.6493 28.7033 39.3152 28.2566 39.4266C28.7033 39.8721 28.48 40.429 27.9774 40.3733C27.3631 40.3733 26.8047 39.5936 26.0228 39.1481C25.1293 38.6469 24.4592 38.5913 23.6216 37.9787C24.18 37.923 24.6825 38.1457 24.9618 38.5356C25.0735 37.6446 24.2917 37.3105 23.7891 36.9763C22.7839 36.2524 23.9007 34.6374 24.6825 34.4147C25.7995 34.0806 26.5254 34.8045 26.4138 35.6398C26.3021 36.5865 25.4085 36.3081 24.9618 36.141C24.9618 36.6422 25.4644 37.032 25.632 37.0877C25.8553 37.199 26.3021 37.2547 26.6929 37.0877C26.6929 37.199 26.6371 37.2547 26.6371 37.3105C26.5813 38.0901 26.1345 38.2014 26.3021 38.5356C26.5254 38.7583 27.9215 38.7583 28.2566 38.814C28.9268 38.9254 29.4851 39.1481 30.0994 39.2595C30.8254 39.4266 31.5514 39.4266 32.1657 39.6493C32.5566 39.8163 33.0033 40.1505 33.4501 40.3733C34.0644 40.4846 33.9527 40.7074 34.3436 40.7074C34.6787 40.7074 34.8462 40.429 35.293 40.2618C35.628 40.2062 35.9631 40.3175 36.2423 40.2062C36.4657 40.1505 36.5774 39.9278 36.8008 39.8163C37.0241 39.6493 37.4151 39.6493 37.6384 39.4823C37.7501 39.3709 37.8059 39.1481 37.7501 39.0368V39.0924C38.1969 38.7583 38.5878 38.2571 38.7553 37.7002C38.867 37.7002 38.9787 37.5889 38.9787 37.4218V37.3662C39.0904 37.2547 39.202 37.1434 39.202 36.9763C39.202 36.8093 39.1462 36.6422 38.9787 36.5308V36.4751C38.9787 36.3638 38.9229 36.3081 38.867 36.2524C38.6436 35.1943 37.8618 34.3034 36.8008 34.0249V33.9692C36.8008 33.9135 36.8008 33.9135 36.7449 33.9135C36.5774 33.7465 36.4098 33.5237 36.4098 33.4123C36.5774 33.468 36.8566 33.7465 37.0241 33.8579V32.4656C36.8566 32.577 36.5774 32.8555 36.4098 32.9112C36.4098 32.7441 36.6891 32.41 36.8566 32.2986H35.4047C35.5164 32.41 35.7956 32.7441 35.8514 32.9112C35.6839 32.8555 35.4047 32.577 35.2372 32.4656V33.8579C35.4047 33.7465 35.6839 33.468 35.8514 33.4123C35.8514 33.5794 35.5722 33.9135 35.4047 34.0249H35.4605C34.3994 34.2477 33.506 35.1386 33.3384 36.2524C33.2826 36.3081 33.2268 36.3638 33.2268 36.4751V36.5308C33.1151 36.6422 33.0033 36.8093 33.0033 36.9763C33.0033 37.1434 33.0592 37.2547 33.2268 37.3662V37.4218C33.2268 37.5889 33.3384 37.6446 33.4501 37.7002C33.506 37.8117 33.5618 37.9787 33.6176 38.0901C33.506 38.4799 33.0592 38.7583 32.9475 38.7583C32.054 38.8697 31.1047 38.5356 30.2111 38.2014C29.8203 38.0344 29.2618 37.8674 29.0385 37.4775C28.8709 37.199 28.815 37.032 28.8709 36.7535C28.9826 36.865 29.1501 37.032 29.3735 37.1434C29.3735 37.032 29.3735 36.865 29.4293 36.8093C29.6527 37.1434 29.9878 37.3105 30.4346 37.3105C30.1553 37.0877 30.0436 36.5308 30.1553 36.0296C30.4904 36.6422 31.8865 36.7535 32.1098 35.6955C31.6072 35.9183 31.2722 35.6955 31.1605 35.4171C30.993 34.9716 31.4955 33.9135 31.0489 33.1339C30.7137 32.5213 30.267 32.1873 29.3176 32.0201C29.3735 31.9088 29.4293 31.7974 29.4293 31.6304C28.5358 31.9645 27.8099 31.6861 27.4189 31.0178C27.5865 31.0734 27.8657 31.1292 28.089 31.1292C27.3072 30.5166 27.3631 28.7346 27.9215 27.7879C27.9774 27.7323 28.0332 27.6766 28.089 27.6766C28.2566 28.0106 28.7592 28.0106 29.0385 28.2891C29.1501 28.1778 29.206 28.1778 29.2618 28.0664C29.2618 28.0664 29.2618 29.5142 29.3735 30.1268C29.4851 30.7951 30.1553 30.7394 30.4346 31.0178C30.8254 30.5723 31.5514 30.628 31.4397 29.8484C31.328 29.1245 31.2164 28.4005 31.1605 27.8993C31.3839 28.3448 31.8307 30.0711 31.9982 30.5723C32.2774 31.2962 33.0033 31.0734 33.3943 31.3519C33.6735 30.8507 34.2878 30.6837 34.0644 29.9597C34.0086 29.737 32.9475 27.5095 32.78 27.064C33.1709 27.6209 34.1761 29.6256 34.5112 30.1825C34.8462 30.7394 35.5164 30.4609 35.9631 30.628C36.0748 30.2382 36.6891 29.737 36.2423 29.013C35.6839 28.0664 34.2878 26.3957 34.2319 26.1173C34.5112 26.3957 36.6333 29.013 36.8008 29.1245C37.3034 29.5699 38.0294 29.2358 38.4202 29.2358C38.4202 28.7346 38.8112 28.2334 38.2527 27.6766C37.7501 27.1754 36.5774 26.3957 36.354 26.0617C37.1358 26.6185 38.0294 27.4538 38.5878 27.5652C39.5372 27.7879 39.8722 27.4538 40.2631 27.2867C39.9839 26.3957 40.3748 26.006 38.3086 25.1706C40.0956 25.7832 40.8774 25.5048 41.4917 25.0036C41.2683 24.391 40.5981 23.8341 40.0956 23.6671C41.1566 23.6671 41.8826 23.2216 42.3294 22.609C41.9384 22.1078 41.1566 21.718 40.2631 21.6066C41.7151 21.3282 42.7761 20.4929 42.8878 19.5462ZM2.06569 25.9502C2.00984 26.006 2.00984 25.9502 2.06569 25.9502C1.84231 25.9502 1.84231 25.7832 1.89816 25.6718C1.954 25.6718 2.00984 25.6718 2.06569 25.6161L2.00984 25.6718C2.00984 25.7832 2.00984 25.8945 2.06569 25.9502ZM2.56829 27.0083L2.34491 26.8412C2.40075 26.7299 2.51244 26.7299 2.56829 26.7856C2.56829 26.8969 2.56829 26.9526 2.56829 27.0083ZM3.29426 25.449H3.18257C3.18257 25.449 3.23841 25.449 3.29426 25.449ZM17.2553 43.436C16.641 43.436 16.1942 43.0463 16.5294 42.5451C16.6969 42.7678 17.0319 42.8791 17.2553 42.9348C17.2553 43.1576 17.2553 43.269 17.2553 43.436ZM26.4696 42.5451C26.8047 43.1019 26.3579 43.436 25.7436 43.436C25.7436 43.2133 25.7436 43.1576 25.6878 42.8791C25.967 42.8791 26.3021 42.7678 26.4696 42.5451ZM17.2553 9.96798C18.6514 9.68959 20.0475 8.90993 20.6618 8.24171C21.1644 8.29739 21.8345 8.29739 22.393 8.24171C23.0073 8.90993 24.4034 9.63391 25.7995 9.96798C25.0177 9.96798 23.5657 9.91231 23.3982 9.68959C23.454 10.1908 24.515 10.7476 25.241 10.9147C24.6825 10.9704 24.1242 10.9147 23.6774 10.692C23.9007 11.026 24.2359 11.3045 24.6825 11.4715C24.18 12.0842 23.1748 12.4739 22.1696 12.3626C22.393 12.641 22.8956 12.8638 23.2864 12.8081C22.393 14.256 21.7228 15.7038 21.5553 17.4301C21.3878 15.7038 20.7177 14.256 19.8241 12.8081C20.2151 12.8638 20.6618 12.6967 20.8852 12.3626C19.88 12.4739 18.8748 12.0842 18.3722 11.4715C18.8189 11.3045 19.0981 11.026 19.3774 10.692C18.9306 10.9147 18.3722 10.9704 17.8138 10.9147C18.5398 10.7476 19.6008 10.1908 19.6566 9.68959C19.4332 9.85663 18.0371 9.96798 17.2553 9.96798ZM4.57868 25.115C4.46699 25.1706 4.29945 25.2263 4.18777 25.282V25.2263C4.29945 25.1706 4.46699 25.1706 4.57868 25.115ZM13.4579 31.5746C13.4579 31.7417 13.5137 31.8531 13.5695 31.9645C12.6202 32.1316 12.2293 32.4656 11.8943 33.0782C11.3916 33.9135 11.8943 34.9159 11.7826 35.3614C11.6709 35.6398 11.3916 35.9183 10.8891 35.6398C11.1125 36.6979 12.5086 36.5865 12.8436 35.974C12.9553 36.4751 12.8436 37.032 12.6202 37.2547C13.067 37.2547 13.402 37.0877 13.6254 36.7535C13.6813 36.865 13.6813 36.9763 13.6813 37.0877C13.9047 36.9763 14.0722 36.8093 14.1838 36.6979C14.2397 36.8093 14.2955 37.0877 14.1838 37.3105C14.0163 37.4218 13.793 37.5332 13.4579 37.7002C12.9553 37.923 12.0059 38.3129 11.5033 38.3685C11.0566 38.4242 10.3307 38.2014 10.1072 37.5889C9.93972 37.032 9.43714 36.8093 9.04619 37.199C8.93456 37.1434 8.65533 37.0877 8.54362 37.2547C8.54362 37.2547 8.4319 36.9763 8.2644 36.865C8.37609 36.5865 8.2644 36.1967 8.04101 36.0853C8.04101 35.5285 7.65011 35.5285 7.53842 35.3057C7.48257 35.1943 7.48257 35.0273 7.65011 35.0273C7.59426 34.9159 7.42673 34.9159 7.42673 34.9159C7.48257 34.6931 7.42673 34.359 7.09167 34.2477L4.13192 28.2891C4.29945 28.0664 4.24362 27.7879 4.02023 27.7323V27.6766C4.02023 27.6209 4.02023 27.5652 4.02023 27.5652C4.07608 27.5652 4.18777 27.5095 4.29945 27.5095C4.8579 27.3981 5.80725 26.5072 6.53323 26.006C6.25401 26.2844 5.13712 27.1197 4.63452 27.6209C4.18777 28.0664 4.3553 28.5676 4.41114 28.9573L4.52284 29.1801C4.96958 29.1801 5.58387 29.4585 6.08647 29.0688C6.25401 28.9017 8.32028 26.2844 8.65533 26.0617C8.54362 26.2844 7.20335 27.955 6.58907 28.9573C6.14231 29.6813 6.81245 30.1825 6.86829 30.5723C7.37089 30.4052 7.98518 30.6837 8.32028 30.1268C8.65533 29.5699 9.66048 27.5652 10.0514 27.0083C9.8839 27.4538 8.82285 29.6813 8.76696 29.904C8.4878 30.6837 9.1579 30.7951 9.43714 31.2962C9.82801 31.0178 10.554 31.2406 10.8332 30.5166C11.0008 30.0154 11.4475 28.2891 11.6709 27.8436C11.6709 28.3448 11.5033 29.013 11.3916 29.7927C11.28 30.5166 12.0059 30.5166 12.3411 30.9621C12.6761 30.6837 13.3462 30.7394 13.4579 30.0711C13.5695 29.4585 13.5695 28.0106 13.5695 28.0106C13.6813 28.1221 13.7372 28.1221 13.8488 28.2334C14.0722 27.955 14.5748 27.955 14.7981 27.6209C14.854 27.6209 14.9098 27.6766 14.9657 27.7323C15.5241 28.6789 15.58 30.4609 14.7981 31.0734C15.0215 31.0734 15.3008 31.0734 15.4683 30.9621C15.1333 31.6303 14.3514 31.8531 13.4579 31.5746ZM18.9306 39.9835C18.4839 40.596 18.093 41.0415 17.8138 41.8211C17.2553 41.7654 17.367 41.0972 17.5345 40.763C17.8696 40.0948 19.3216 39.2595 20.1034 38.4242C19.7683 38.9811 19.3216 39.4823 18.9306 39.9835ZM20.4942 41.1529C20.2151 42.3223 19.9917 43.993 20.1034 44.7725C19.0981 44.2157 19.6566 42.2109 20.0475 41.3199C20.606 40.0948 20.9969 38.5913 21.1085 37.6446C21.4436 38.3129 20.7177 40.3733 20.4942 41.1529ZM22.8956 44.7725C23.0073 43.993 22.7839 42.3223 22.5046 41.1529C22.2813 40.3733 21.6112 38.3129 21.8903 37.5889C22.0021 38.5356 22.393 40.0391 22.9514 41.2642C23.3423 42.1552 23.9566 44.2157 22.8956 44.7725ZM25.4644 40.8187C25.632 41.1529 25.7436 41.8211 25.1852 41.8768C24.906 41.0972 24.515 40.6517 24.0683 40.0391C23.6774 39.4823 23.2306 38.9811 22.8956 38.4242C23.6216 39.3152 25.0735 40.1505 25.4644 40.8187ZM25.2968 32.0201C23.9566 34.6374 21.4995 36.6979 21.4995 36.6979C21.4436 36.7535 19.0423 34.6374 17.702 32.0201C16.3618 29.4585 15.5241 25.3934 15.4683 23.4444C15.4124 21.4953 15.8034 20.66 15.8034 20.66C15.8034 20.66 17.4787 20.5486 18.8189 20.1031C19.9359 19.7133 21.1644 18.7109 21.5553 18.4325C21.8903 18.7109 23.1189 19.7133 24.2917 20.1031C25.632 20.5486 27.3072 20.66 27.3072 20.66C27.3072 20.66 27.6982 21.4953 27.6424 23.4444C27.5306 25.3377 26.6371 29.4028 25.2968 32.0201Z" fill="white"></path></g></svg> 