<?xml version="1.0" encoding="UTF-8"?> <svg xmlns="http://www.w3.org/2000/svg" width="53" height="34" viewBox="0 0 53 34" fill="none"><mask id="mask0_1336_51590" style="mask-type:luminance" maskUnits="userSpaceOnUse" x="0" y="0" width="53" height="34"><path d="M52.4014 0.598633V33.4014H0.598633V0.598633H52.4014Z" fill="white" stroke="white" stroke-width="1.19701"></path></mask><g mask="url(#mask0_1336_51590)"><path d="M40.8945 31.6593V1.68182H51.3543V31.6593H40.8945Z" stroke="white" stroke-width="1.19701"></path><path d="M21.2285 28.7932V1.68182H31.6883V28.7932H21.2285Z" stroke="white" stroke-width="1.19701"></path><path d="M20.8725 1.3324H32.0232C31.862 9.53835 28.5689 17.373 22.8204 23.1881C17.0722 29.0027 9.32726 32.3346 1.21484 32.5006V21.2347C6.37479 21.0736 11.2889 18.9287 14.9471 15.2247C18.6055 11.5207 20.7199 6.5492 20.8725 1.3324Z" fill="white" stroke="white" stroke-width="1.19701"></path><path d="M40.8773 1.66901H51.3434C51.0992 9.66617 47.8511 17.2816 42.244 22.953C36.6403 28.6206 29.1212 31.9018 21.2285 32.1536V21.558C26.3576 21.3149 31.2247 19.1461 34.866 15.46C38.5094 11.7719 40.6451 6.84932 40.8773 1.66901Z" fill="white" stroke="white" stroke-width="1.19701"></path></g></svg> 