<?xml version="1.0" encoding="UTF-8"?> <svg xmlns="http://www.w3.org/2000/svg" width="126" height="13" viewBox="0 0 126 13" fill="none"><mask id="mask0_1336_51525" style="mask-type:luminance" maskUnits="userSpaceOnUse" x="0" y="1" width="30" height="11"><path d="M29.1686 1.85797H0.000366211V11.2632H29.1686V1.85797Z" fill="white"></path></mask><g mask="url(#mask0_1336_51525)"><path d="M12.64 11.1238H10.2772L11.7551 2.01923H14.1178L12.64 11.1238Z" fill="white"></path><path d="M21.2075 2.24339C20.7414 2.05917 20.0022 1.85577 19.0882 1.85577C16.7548 1.85577 15.1117 3.09548 15.1016 4.86788C15.0822 6.17555 16.278 6.90187 17.1724 7.3379C18.0866 7.78346 18.3973 8.07427 18.3973 8.47138C18.388 9.08135 17.6586 9.36249 16.9783 9.36249C16.035 9.36249 15.5295 9.21754 14.7614 8.87817L14.4502 8.73273L14.1196 10.7765C14.6738 11.028 15.6948 11.2513 16.7548 11.261C19.2341 11.261 20.8482 10.0405 20.8672 8.15175C20.8767 7.11532 20.2453 6.32115 18.8839 5.67221C18.0575 5.25563 17.5514 4.97473 17.5514 4.5485C17.5611 4.161 17.9795 3.76412 18.9124 3.76412C19.6805 3.74468 20.2448 3.92864 20.6724 4.11273L20.8861 4.20941L21.2075 2.24339Z" fill="white"></path><path d="M24.3445 7.89838C24.5392 7.3753 25.2879 5.35098 25.2879 5.35098C25.2781 5.37042 25.4821 4.81828 25.5988 4.47933L25.7639 5.26383C25.7639 5.26383 26.2113 7.44315 26.3085 7.89838C25.9392 7.89838 24.8113 7.89838 24.3445 7.89838ZM27.2612 2.01923H25.4335C24.8699 2.01923 24.4417 2.18375 24.1985 2.77464L20.6888 11.1236H23.1681C23.1681 11.1236 23.5763 9.99995 23.664 9.7579C23.936 9.7579 26.3478 9.7579 26.6977 9.7579C26.7655 10.0776 26.9796 11.1236 26.9796 11.1236H29.1674L27.2612 2.01923Z" fill="white"></path><path d="M8.30483 2.01923L5.99084 8.22769L5.73797 6.96851C5.31016 5.51561 3.96846 3.9371 2.47119 3.15221L4.59072 11.1141H7.08934L10.8033 2.01923H8.30483Z" fill="white"></path><path d="M3.84082 2.01923H0.0392578L0.000366211 2.20319C2.96583 2.95872 4.9298 4.77992 5.73669 6.96889L4.91028 2.78455C4.77423 2.20306 4.35611 2.03841 3.84082 2.01923Z" fill="#B9B9B9"></path></g><mask id="mask1_1336_51525" style="mask-type:luminance" maskUnits="userSpaceOnUse" x="35" y="-1" width="18" height="14"><path d="M52.6052 -0.000183105H35.9202V12.9998H52.6052V-0.000183105Z" fill="white"></path></mask><g mask="url(#mask1_1336_51525)"><path d="M38.944 12.9711V12.1083C38.944 11.7783 38.7437 11.5622 38.3997 11.5622C38.2277 11.5622 38.0407 11.6192 37.9121 11.8068C37.8119 11.6493 37.6683 11.5622 37.4529 11.5622C37.3093 11.5622 37.1657 11.6058 37.0521 11.7632V11.5907H36.7516V12.9711H37.0521V12.2089C37.0521 11.9643 37.1807 11.8487 37.3811 11.8487C37.5815 11.8487 37.6817 11.9777 37.6817 12.2089V12.9711H37.9822V12.2089C37.9822 11.9643 38.1258 11.8487 38.3112 11.8487C38.5116 11.8487 38.6118 11.9777 38.6118 12.2089V12.9711H38.944ZM43.4025 11.5907H42.9149V11.1736H42.6144V11.5907H42.3422V11.8638H42.6144V12.497C42.6144 12.8136 42.7429 12.9996 43.087 12.9996C43.2155 12.9996 43.3591 12.956 43.4593 12.8991L43.3725 12.6394C43.2856 12.6964 43.1855 12.7114 43.1137 12.7114C42.9701 12.7114 42.9133 12.6243 42.9133 12.4819V11.8638H43.4009V11.5907H43.4025ZM45.954 11.5606C45.7821 11.5606 45.6668 11.6477 45.595 11.7616V11.589H45.2944V12.9694H45.595V12.1921C45.595 11.9626 45.6952 11.8319 45.8822 11.8319C45.939 11.8319 46.0108 11.847 46.0693 11.8604L46.1561 11.5723C46.096 11.5606 46.0108 11.5606 45.954 11.5606ZM42.0984 11.7046C41.9548 11.6041 41.7544 11.5606 41.539 11.5606C41.195 11.5606 40.9662 11.7331 40.9662 12.0062C40.9662 12.2357 41.1382 12.3663 41.4388 12.4082L41.5824 12.4233C41.7394 12.4518 41.8262 12.4953 41.8262 12.5674C41.8262 12.6679 41.711 12.7399 41.5106 12.7399C41.3102 12.7399 41.1516 12.6679 41.0514 12.5959L40.9078 12.8254C41.0648 12.941 41.2801 12.9979 41.4956 12.9979C41.8963 12.9979 42.1268 12.8103 42.1268 12.5523C42.1268 12.3077 41.9397 12.1787 41.6542 12.1352L41.5106 12.1201C41.382 12.105 41.2818 12.0765 41.2818 11.9911C41.2818 11.8906 41.382 11.8336 41.5407 11.8336C41.7127 11.8336 41.8847 11.9057 41.9715 11.9492L42.0984 11.7046ZM50.0953 11.5606C49.9232 11.5606 49.808 11.6477 49.7362 11.7616V11.589H49.4357V12.9694H49.7362V12.1921C49.7362 11.9626 49.8364 11.8319 50.0234 11.8319C50.0802 11.8319 50.152 11.847 50.2105 11.8604L50.2973 11.5756C50.2389 11.5606 50.1537 11.5606 50.0953 11.5606ZM46.2546 12.2809C46.2546 12.698 46.5418 12.9996 46.986 12.9996C47.1864 12.9996 47.33 12.956 47.4736 12.8421L47.33 12.5975C47.2148 12.6846 47.1013 12.7265 46.971 12.7265C46.7272 12.7265 46.5552 12.554 46.5552 12.2809C46.5552 12.0212 46.7272 11.8487 46.971 11.8353C47.0996 11.8353 47.2148 11.8788 47.33 11.9643L47.4736 11.7197C47.33 11.6041 47.1864 11.5622 46.986 11.5622C46.5418 11.5606 46.2546 11.8638 46.2546 12.2809ZM49.0349 12.2809V11.5907H48.7343V11.7632C48.6342 11.6342 48.4905 11.5622 48.3035 11.5622C47.9161 11.5622 47.6155 11.8638 47.6155 12.2809C47.6155 12.698 47.9161 12.9996 48.3035 12.9996C48.5039 12.9996 48.6475 12.9275 48.7343 12.7985V12.9711H49.0349V12.2809ZM47.9312 12.2809C47.9312 12.0363 48.0881 11.8353 48.3469 11.8353C48.5908 11.8353 48.7627 12.0229 48.7627 12.2809C48.7627 12.5255 48.5908 12.7265 48.3469 12.7265C48.0898 12.7114 47.9312 12.5238 47.9312 12.2809ZM44.3343 11.5606C43.9336 11.5606 43.6463 11.8487 43.6463 12.2792C43.6463 12.7114 43.9336 12.9979 44.3493 12.9979C44.5497 12.9979 44.7501 12.9409 44.9087 12.8103L44.7651 12.5942C44.6499 12.6813 44.5063 12.7383 44.3644 12.7383C44.1773 12.7383 43.992 12.6512 43.9486 12.4082H44.9655C44.9655 12.3647 44.9655 12.3362 44.9655 12.2927C44.9789 11.8487 44.7201 11.5606 44.3343 11.5606ZM44.3343 11.8202C44.5213 11.8202 44.6499 11.9358 44.6783 12.1502H43.962C43.9903 11.9643 44.1189 11.8202 44.3343 11.8202ZM51.8018 12.2809V11.0446H51.5012V11.7632C51.4011 11.6342 51.2575 11.5622 51.0705 11.5622C50.683 11.5622 50.3825 11.8638 50.3825 12.2809C50.3825 12.698 50.683 12.9996 51.0705 12.9996C51.2708 12.9996 51.4144 12.9275 51.5012 12.7985V12.9711H51.8018V12.2809ZM50.6981 12.2809C50.6981 12.0363 50.855 11.8353 51.1139 11.8353C51.3576 11.8353 51.5296 12.0229 51.5296 12.2809C51.5296 12.5255 51.3576 12.7265 51.1139 12.7265C50.855 12.7114 50.6981 12.5238 50.6981 12.2809ZM40.6356 12.2809V11.5907H40.335V11.7632C40.2349 11.6342 40.0913 11.5622 39.9042 11.5622C39.5168 11.5622 39.2163 11.8638 39.2163 12.2809C39.2163 12.698 39.5168 12.9996 39.9042 12.9996C40.1046 12.9996 40.2482 12.9275 40.335 12.7985V12.9711H40.6356V12.2809ZM39.5185 12.2809C39.5185 12.0363 39.6754 11.8353 39.9343 11.8353C40.1781 11.8353 40.3501 12.0229 40.3501 12.2809C40.3501 12.5255 40.1781 12.7265 39.9343 12.7265C39.6754 12.7114 39.5185 12.5238 39.5185 12.2809Z" fill="white"></path><path d="M46.5132 1.10583H41.9979V9.24426H46.5132V1.10583Z" fill="#858585"></path><path d="M42.299 5.17636C42.299 3.52288 43.0738 2.05536 44.2627 1.10716C43.3877 0.416956 42.2839 -0.000183105 41.08 -0.000183105C38.2279 -0.000183105 35.9202 2.31502 35.9202 5.17636C35.9202 8.0377 38.2279 10.3529 41.08 10.3529C42.2839 10.3529 43.3877 9.93577 44.2627 9.24558C43.0721 8.31079 42.299 6.82983 42.299 5.17636Z" fill="white"></path><path d="M52.6038 5.16893C52.6038 8.02628 50.31 10.3382 47.4755 10.3382C46.2789 10.3382 45.1819 9.92164 44.3123 9.23242C45.5088 8.2839 46.264 6.82008 46.264 5.16893C46.264 3.51776 45.4939 2.05229 44.3123 1.10543C45.1802 0.416188 46.2773 -0.000366211 47.4738 -0.000366211C50.31 -0.000366211 52.6038 2.32665 52.6038 5.16893Z" fill="#BDBDBD"></path></g><path fill-rule="evenodd" clip-rule="evenodd" d="M59.3574 1.48499H91.3895V11.6715H59.3574V1.48499Z" fill="white"></path><path fill-rule="evenodd" clip-rule="evenodd" d="M63.5901 6.64011L65.0374 5.22452L63.5901 3.81732C63.9502 3.81732 64.3097 3.81732 64.6692 3.81732L66.1079 5.23289L64.6692 6.64011C64.3097 6.64011 63.9502 6.64011 63.5901 6.64011ZM61.6897 6.64011L63.1365 5.22452L61.6897 3.81732C62.0492 3.81732 62.4088 3.81732 62.7683 3.81732L64.2156 5.23289L62.7683 6.64011C62.4088 6.64011 62.0492 6.64011 61.6897 6.64011Z" fill="#797979"></path><path fill-rule="evenodd" clip-rule="evenodd" d="M75.1307 9.5555C75.408 9.5555 75.6329 9.41417 75.6329 9.1227C75.6329 8.86654 75.408 8.7782 75.2172 8.71635C75.2085 8.71635 75.1999 8.70754 75.1912 8.70754C75.0442 8.65455 74.9144 8.61919 74.9144 8.52204C74.9144 8.43375 74.9836 8.38071 75.1047 8.38071C75.2172 8.38071 75.3561 8.43375 75.4859 8.51323L75.607 8.29242C75.4599 8.19527 75.2777 8.13342 75.1133 8.13342C74.8452 8.13342 74.6376 8.29242 74.6376 8.54853C74.6376 8.81356 74.8625 8.90185 75.0614 8.9637C75.0701 8.9637 75.0788 8.97251 75.0874 8.97251C75.2345 9.01668 75.3648 9.05204 75.3648 9.15801C75.3648 9.25516 75.2864 9.30815 75.1566 9.30815C75.0182 9.30815 74.8625 9.25516 74.7154 9.14033L74.577 9.35232C74.7241 9.48483 74.9403 9.5555 75.1307 9.5555ZM76.5591 9.5555C76.8105 9.5555 76.9835 9.45834 77.1132 9.29933L76.9316 9.13152C76.8278 9.23748 76.7148 9.29933 76.5677 9.29933C76.3687 9.29933 76.213 9.17569 76.1784 8.94602H77.1651C77.1651 8.92834 77.1738 8.87535 77.1738 8.85767C77.1738 8.46024 76.9575 8.11574 76.5245 8.11574C76.1438 8.11574 75.8665 8.44256 75.8665 8.83118C75.8665 9.26403 76.1698 9.5555 76.5591 9.5555ZM76.1784 8.74289C76.2044 8.5309 76.3428 8.38071 76.5245 8.38071C76.7321 8.38071 76.8451 8.53972 76.8624 8.74289H76.1784ZM78.1086 9.5555C78.3686 9.5555 78.5243 9.44947 78.6627 9.29933L78.4724 9.11384C78.3773 9.21099 78.2648 9.28165 78.1259 9.28165C77.8923 9.28165 77.7193 9.08734 77.7193 8.84005C77.7193 8.5927 77.8837 8.39839 78.1086 8.39839C78.2648 8.39839 78.36 8.46905 78.4551 8.56621L78.6454 8.35422C78.5243 8.21289 78.36 8.11574 78.1086 8.11574C77.702 8.11574 77.4073 8.44256 77.4073 8.83118C77.4073 9.23748 77.702 9.5555 78.1086 9.5555ZM79.4072 9.5555C79.6148 9.5555 79.7451 9.44066 79.8316 9.31701V9.529H80.143V8.1511H79.8316V8.92834C79.8316 9.14033 79.7105 9.27284 79.5283 9.27284C79.3467 9.27284 79.2429 9.14919 79.2429 8.9372V8.15991H78.9223V9.03436C78.9223 9.34351 79.1044 9.5555 79.4072 9.5555ZM80.5242 9.529H80.8356V9.00787C80.8356 8.64569 81.0259 8.46024 81.2946 8.46024H81.3119V8.1246C81.0778 8.11574 80.9221 8.25706 80.8356 8.46024V8.1511H80.5242V9.529ZM82.1516 9.5555C82.4024 9.5555 82.576 9.45834 82.7057 9.29933L82.5235 9.13152C82.4197 9.23748 82.3073 9.29933 82.1602 9.29933C81.9613 9.29933 81.805 9.17569 81.7704 8.94602H82.7576C82.7576 8.92834 82.7663 8.87535 82.7663 8.85767C82.7663 8.46024 82.5495 8.11574 82.117 8.11574C81.7358 8.11574 81.459 8.44256 81.459 8.83118C81.459 9.26403 81.7531 9.5555 82.1516 9.5555ZM81.7618 8.74289C81.7877 8.5309 81.9267 8.38071 82.1083 8.38071C82.3159 8.38071 82.4284 8.53972 82.4543 8.74289H81.7618ZM83.6232 9.5555C83.8395 9.5555 83.9865 9.44066 84.0822 9.29933V9.529H84.3937V7.62109H84.0822V8.36309C83.9865 8.23938 83.8481 8.1246 83.6232 8.1246C83.3032 8.1246 82.9999 8.38071 82.9999 8.84005C82.9999 9.29933 83.3118 9.5555 83.6232 9.5555ZM83.7011 9.28165C83.4935 9.28165 83.3118 9.10502 83.3118 8.84005C83.3118 8.5574 83.4848 8.39839 83.7011 8.39839C83.9087 8.39839 84.0909 8.57508 84.0909 8.84005C84.0909 9.10502 83.9087 9.28165 83.7011 9.28165ZM86.307 9.5555C86.6271 9.5555 86.9304 9.29933 86.9304 8.84005C86.9304 8.38071 86.6184 8.1246 86.307 8.1246C86.0902 8.1246 85.9518 8.23938 85.848 8.38071V7.62996H85.5366V9.529H85.848V9.31701C85.9518 9.44066 86.0902 9.5555 86.307 9.5555ZM86.2378 9.28165C86.0297 9.28165 85.848 9.10502 85.848 8.84005C85.848 8.57508 86.0297 8.39839 86.2378 8.39839C86.4454 8.39839 86.6271 8.57508 86.6271 8.84005C86.6271 9.11384 86.4541 9.28165 86.2378 9.28165ZM87.4667 9.95298C87.6835 9.95298 87.8046 9.84696 87.9084 9.56431L88.4453 8.1511H88.1247L87.7787 9.17569L87.3975 8.1511H87.0602L87.6224 9.529C87.5705 9.65265 87.5186 9.68796 87.4321 9.68796C87.3716 9.68796 87.311 9.67033 87.2505 9.63497L87.1467 9.86464C87.2418 9.91763 87.337 9.95298 87.4667 9.95298Z" fill="#797979"></path><path fill-rule="evenodd" clip-rule="evenodd" d="M70.4671 6.21703C70.5877 6.21703 70.7001 6.18183 70.8034 6.12036C71.0013 5.99736 71.1051 5.78645 71.1051 5.55803C71.1051 5.32077 70.9926 5.10111 70.7861 4.9781C70.6915 4.92538 70.579 4.89023 70.4758 4.89023C70.3639 4.89023 70.2519 4.91659 70.1568 4.9781C69.9503 5.10111 69.8383 5.32077 69.8383 5.55803C69.8383 5.78645 69.9416 5.99736 70.1395 6.12036C70.2346 6.18183 70.3465 6.21703 70.4671 6.21703ZM67.606 5.3032V4.24002H68.1661C68.3126 4.24002 68.4332 4.29274 68.537 4.39818C68.6402 4.50362 68.6921 4.62663 68.6921 4.76722C68.6921 4.91659 68.6402 5.0396 68.537 5.14504C68.4332 5.25048 68.3126 5.3032 68.1661 5.3032H68.0628H67.606ZM67.606 5.83041H68.0715H68.1747C68.3126 5.83041 68.4505 5.80402 68.5797 5.74255C68.7008 5.68978 68.8127 5.61074 68.916 5.51407C69.0106 5.4174 69.0884 5.3032 69.1398 5.1714C69.2004 5.0396 69.2263 4.89902 69.2263 4.75843C69.2263 4.61784 69.2004 4.47726 69.1398 4.34546C69.0884 4.22245 69.0106 4.10822 68.916 4.01157C68.8214 3.91492 68.7089 3.83584 68.5797 3.78312C68.4505 3.72161 68.3126 3.69525 68.1747 3.69525H67.0891V6.64755H67.6146V5.83041H67.606ZM71.1391 6.4015C70.9586 6.59484 70.7001 6.70027 70.4325 6.70027C69.8037 6.70027 69.3469 6.18183 69.3469 5.54922C69.3469 4.91659 69.8037 4.39818 70.4325 4.39818C70.7001 4.39818 70.9586 4.50362 71.1391 4.70571V4.42454H71.6306V6.67388H71.1391V6.4015ZM73.7159 6.36636C73.5607 6.5597 73.3109 6.64755 73.0698 6.64755C72.4232 6.64755 72.1048 6.19946 72.1048 5.56679V4.42454H72.5957V5.54046C72.5957 5.91826 72.7422 6.1555 73.1298 6.1555C73.544 6.1555 73.7159 5.84798 73.7159 5.45255V4.42454H74.2073V6.3576C74.2073 7.03417 73.7938 7.49984 73.1217 7.49984C72.7681 7.49984 72.4405 7.3856 72.1734 7.15717L72.1475 7.13079L72.4318 6.81451L72.4578 6.83208C72.6735 6.96389 72.88 7.03417 73.1298 7.03417C73.5007 7.03417 73.7159 6.83208 73.7159 6.45427V6.36636Z" fill="#797979"></path><path fill-rule="evenodd" clip-rule="evenodd" d="M82.1386 5.1158L82.1559 5.08163C82.1559 5.08163 82.1558 5.07309 82.1645 5.07309L82.1818 5.04746L82.1905 5.03892V5.03037L82.1991 5.02183C82.2078 5.01329 82.2078 5.00475 82.2164 4.9962L82.2251 4.98766L82.2337 4.97912C82.2424 4.97058 82.251 4.95349 82.2597 4.94495L82.2683 4.9364C82.4754 4.67159 82.7949 4.50928 83.1404 4.50928H83.1836C83.8059 4.51782 84.2552 5.02183 84.2552 5.62834C84.2552 6.24344 83.7973 6.74743 83.1663 6.74743C82.9247 6.74743 82.683 6.64493 82.5273 6.46554V7.49921H82.0347V5.56C82.0434 5.42332 82.0694 5.28665 82.1213 5.16706L82.1299 5.15851V5.14997L82.1386 5.14143L82.1472 5.13289L82.1386 5.1158ZM74.6997 3.81732H75.2268V6.68764H74.6997V3.81732ZM75.9351 5.25248L77.1445 6.68764H76.4536L75.2874 5.25248L76.4536 3.81732H77.1445L75.9351 5.25248ZM77.5938 5.75647C77.6111 6.09822 77.8879 6.27761 78.2248 6.27761C78.4578 6.27761 78.6913 6.21781 78.8984 6.09822L78.9244 6.08113L79.2012 6.37157L79.1752 6.3972C78.8984 6.60221 78.5789 6.73035 78.2334 6.73035C77.5679 6.73035 77.0932 6.26906 77.0932 5.61125C77.0932 4.97058 77.5506 4.49219 78.2075 4.49219C78.6567 4.49219 79.0109 4.70575 79.1839 5.10726C79.2612 5.27811 79.2785 5.55145 79.2271 5.73084L79.2185 5.75647H77.5938ZM80.0305 5.74793C80.0478 6.08967 80.3241 6.26906 80.6609 6.26906C80.8945 6.26906 81.1275 6.20927 81.3351 6.08967L81.3611 6.07259L81.6374 6.36303L81.6114 6.38866C81.3351 6.59367 81.0151 6.72181 80.6696 6.72181C80.0046 6.72181 79.5294 6.26052 79.5294 5.60271C79.5294 4.96204 79.9873 4.48365 80.6436 4.48365C81.0929 4.48365 81.4471 4.69721 81.6201 5.09872C81.6979 5.26957 81.7152 5.54291 81.6633 5.7223L81.6547 5.74793H80.0305ZM85.05 5.74793C85.0673 6.08967 85.3435 6.26906 85.6809 6.26906C85.9139 6.26906 86.1475 6.20927 86.3546 6.08967L86.3805 6.07259L86.6568 6.36303L86.6308 6.38866C86.3546 6.59367 86.035 6.72181 85.6896 6.72181C85.024 6.72181 84.5488 6.26052 84.5488 5.60271C84.5488 4.96204 85.0067 4.48365 85.6636 4.48365C86.1129 4.48365 86.467 4.69721 86.6395 5.09872C86.7173 5.26957 86.7346 5.54291 86.6827 5.7223L86.6741 5.74793H85.05ZM82.51 5.61125C82.51 6.49971 83.7454 6.42283 83.7454 5.61125C83.754 4.79118 82.51 4.7143 82.51 5.61125ZM77.6198 5.36354H78.7606C78.7519 5.32937 78.7346 5.28665 78.7259 5.25248C78.6308 5.04746 78.4318 4.9364 78.2075 4.9364C77.9571 4.9364 77.7236 5.07309 77.6371 5.31228C77.6284 5.32937 77.6198 5.34645 77.6198 5.36354ZM80.0565 5.36354H81.1967C81.1881 5.32937 81.1708 5.28665 81.1621 5.25248C81.067 5.04746 80.8686 4.9364 80.6436 4.9364C80.3933 4.9364 80.1598 5.07309 80.0738 5.31228C80.0651 5.32937 80.0651 5.34645 80.0565 5.36354ZM85.0759 5.36354H86.2162C86.2075 5.32937 86.1902 5.28665 86.1816 5.25248C86.0869 5.04746 85.888 4.9364 85.6636 4.9364C85.4127 4.9364 85.1797 5.07309 85.0932 5.31228C85.0846 5.32937 85.0846 5.34645 85.0759 5.36354ZM87.564 4.80827C87.763 4.5947 88.0392 4.49219 88.3328 4.49219H88.4453V4.97912H88.2295C87.7543 4.97912 87.5554 5.2952 87.5554 5.73084V6.69618H87.0455V4.51782H87.5467V4.80827H87.564Z" fill="#373737"></path><path fill-rule="evenodd" clip-rule="evenodd" d="M98.1409 2.66443H99.7363H100.561H100.582C101.353 2.66443 101.711 3.2287 101.907 3.86893L102.938 7.27626H103.144L104.175 3.86893C104.37 3.2287 104.717 2.67528 105.476 2.66443H105.498H106.345H107.907V10.3797H105.487V5.80044H105.314L103.892 10.3797H102.189L100.767 5.80044H100.561V10.3797H98.1409V2.66443ZM120.169 7.93818H122.784C123.924 7.93818 124.89 7.21111 125.258 6.20198H120.169H117.749V7.93818V10.3906H120.169V7.93818ZM108.906 2.66443H111.325V7.24366H111.64C112.129 6.11515 112.617 4.99746 113.105 3.86893C113.431 3.09848 113.756 2.76209 114.581 2.66443H115.427H116.664V10.3797H114.233V5.80044H113.995C113.507 6.929 113.018 8.04669 112.53 9.17519C112.215 9.91308 111.868 10.3038 111.054 10.3797H110.219H108.906V2.66443Z" fill="white"></path><path fill-rule="evenodd" clip-rule="evenodd" d="M125.433 5.85507V5.80078C125.433 4.67227 125.367 4.30332 124.847 3.61969C124.511 3.17478 123.751 2.75158 123.024 2.64307C122.926 2.63222 122.818 2.61052 122.698 2.59967H117.403C117.436 4.04289 118.803 5.29079 119.942 5.70314C120.148 5.7791 120.441 5.82252 120.8 5.85507H125.433Z" fill="#C5C5C5"></path></svg> 