<?xml version="1.0" encoding="UTF-8"?> <svg xmlns="http://www.w3.org/2000/svg" width="55" height="41" viewBox="0 0 55 41" fill="none"><mask id="mask0_1336_51573" style="mask-type:luminance" maskUnits="userSpaceOnUse" x="-1" y="0" width="56" height="41"><path d="M54.6663 0H-0.000366211V41H54.6663V0Z" fill="white"></path></mask><g mask="url(#mask0_1336_51573)"><path d="M5.69022 8.32861C5.24863 6.39636 7.17217 4.68687 9.65432 4.68687C11.8939 4.68687 14.1369 5.1892 14.991 8.3246H17.8618V13.1047C14.2864 10.1515 6.52814 12.0068 5.69364 8.32861M35.4641 7.004H29.0016L22.8551 13.7649V0.259233H17.8661V3.53241C17.7046 3.32169 17.5304 3.11106 17.3399 2.90854C15.518 0.976288 12.9018 0 9.56121 0C5.69791 0 3.49934 1.73785 2.33685 3.19212C0.891631 5.00282 0.247608 7.46985 0.693473 9.47906C1.84742 14.6845 6.66225 15.5149 10.1967 15.9767C12.9872 16.3413 15.6556 16.8476 15.5864 19.347C15.5138 21.9396 12.602 22.5756 10.6947 22.5756C5.72267 22.5756 5.55271 18.8853 5.55271 18.8853H0.198914C0.275787 20.2706 0.69347 22.4945 2.39408 24.4066C4.25697 26.5009 7.0466 27.5582 10.6912 27.5582C13.4852 27.5582 16.0322 26.6427 17.8584 25.0223V27.2544H22.8466V20.8782L24.6121 18.9379L29.6499 27.2544H35.4564L28.1227 15.0774L35.4564 7.00802L35.4641 7.004Z" fill="white"></path><path d="M1.72074 39.2712C1.86594 39.3198 2.04019 39.3442 2.23494 39.3442C2.48179 39.3442 2.67653 39.2712 2.82601 39.1213C2.97207 38.9715 3.07285 38.777 3.12154 38.5543L-0.000366211 31.9269H2.07265L4.07306 36.6868L5.83089 31.9269H7.80653L4.99639 38.4611C4.62826 39.3239 4.2473 39.9639 3.83048 40.3731C3.4128 40.7943 2.95925 41.001 2.4536 41.001C2.28362 41.001 2.1461 41.001 2.03677 40.9766C1.91463 40.9645 1.81811 40.9402 1.72843 40.9159L1.49353 40.8429C1.43289 40.8187 1.37225 40.7943 1.30734 40.7822V39.1052C1.41667 39.178 1.55418 39.2429 1.7122 39.2793" fill="white"></path><path d="M11.3746 38.2903C11.2525 38.3267 11.1149 38.3511 10.9697 38.3875C10.8237 38.4118 10.6614 38.4361 10.5034 38.4483C10.3462 38.4725 10.184 38.4725 10.0379 38.4725C9.6578 38.4725 9.33748 38.436 9.04195 38.3753C8.75837 38.3024 8.51579 38.2012 8.31678 38.0553C8.12288 37.9055 7.97255 37.711 7.87603 37.4639C7.77866 37.2289 7.72998 36.9332 7.72998 36.5889V34.2231H9.42291V36.2567C9.42291 36.4431 9.44682 36.601 9.4955 36.7144C9.53223 36.836 9.60484 36.9373 9.70648 37.0101C9.803 37.0831 9.9166 37.1358 10.0627 37.16C10.2079 37.1844 10.3821 37.1965 10.5768 37.1965C10.8724 37.1965 11.091 37.1723 11.2653 37.1236C11.4395 37.0628 11.5728 37.0021 11.6701 36.9373V34.2231H13.3622V40.7815H11.6701V38.193C11.5967 38.2173 11.5002 38.2538 11.3746 38.2903Z" fill="white"></path><path d="M18.0636 37.7223C17.9543 37.7709 17.8168 37.8195 17.6468 37.8439L17.1932 37.9289C16.9951 37.9654 16.8251 38.0019 16.679 38.0505C16.533 38.0991 16.4074 38.1598 16.3109 38.2368C16.2135 38.3218 16.1409 38.4231 16.088 38.5325C16.035 38.6419 16.0154 38.7796 16.0154 38.9538C16.0154 39.0875 16.0393 39.2131 16.076 39.3103C16.1247 39.4197 16.1853 39.4966 16.2742 39.5695C16.3468 39.6303 16.4322 39.6951 16.533 39.7194C16.6423 39.7559 16.7559 39.768 16.8772 39.768C16.9378 39.768 17.0233 39.7559 17.1249 39.7437C17.2214 39.7316 17.3188 39.7073 17.4444 39.6708C17.5537 39.6222 17.6673 39.5736 17.7766 39.4966C17.886 39.4358 17.9867 39.3346 18.0721 39.2252C18.1695 39.1159 18.2421 38.9781 18.2908 38.8039C18.3395 38.6419 18.3754 38.4596 18.3754 38.2368V37.5724C18.2788 37.6332 18.1653 37.6818 18.0679 37.7223M20.105 39.9665C20.117 40.088 20.1537 40.2015 20.1896 40.2622C20.2263 40.3473 20.263 40.3959 20.3117 40.4365C20.3595 40.4729 20.3963 40.4972 20.4569 40.5093V40.7808H18.5778L18.4813 40.4729C18.4326 40.3514 18.4206 40.2015 18.4206 40.0151L18.0397 40.3959C17.9064 40.5053 17.7681 40.6066 17.6101 40.6917C17.4529 40.7767 17.2786 40.8537 17.0719 40.9023C16.861 40.9509 16.6184 40.9752 16.3348 40.9752C16.0512 40.9752 15.7677 40.9388 15.5251 40.8537C15.2782 40.7686 15.0715 40.6309 14.8853 40.4729C14.7154 40.2987 14.565 40.0921 14.4685 39.8328C14.3711 39.5857 14.3224 39.29 14.3224 38.9578C14.3224 38.6865 14.3592 38.4394 14.4437 38.2044C14.5292 37.9694 14.6547 37.7709 14.7999 37.6008C14.9579 37.4266 15.1441 37.2808 15.3671 37.1714C15.59 37.0498 15.8326 36.9729 16.1162 36.9364L17.7723 36.6893C17.833 36.6772 17.8936 36.6772 17.9671 36.6529C18.0397 36.6407 18.1003 36.6165 18.161 36.5679C18.2216 36.5314 18.2703 36.4828 18.307 36.422C18.3438 36.3491 18.3677 36.2599 18.3677 36.1506C18.3677 36.0412 18.3438 35.94 18.319 35.8549C18.2823 35.7576 18.2216 35.6807 18.149 35.6199C18.0636 35.547 17.9671 35.4984 17.8287 35.4579C17.6955 35.4214 17.5212 35.4093 17.3273 35.4093C17.0924 35.4093 16.9225 35.4335 16.7884 35.47C16.6423 35.5186 16.5296 35.5916 16.4561 35.6685C16.3715 35.7536 16.3109 35.8549 16.2742 35.9521L16.2016 36.3085H14.5044C14.5044 36.2357 14.5172 36.1222 14.5411 35.9764C14.565 35.8387 14.6137 35.6807 14.6872 35.5065C14.7478 35.3445 14.8605 35.1743 14.9827 35.0002C15.104 34.8259 15.2663 34.668 15.4849 34.5181C15.6788 34.3844 15.9385 34.2588 16.234 34.1738C16.5296 34.0887 16.8738 34.0401 17.2906 34.0239C17.8697 34.0239 18.3472 34.0846 18.7162 34.198C19.0723 34.3196 19.3559 34.4816 19.5618 34.668C19.7565 34.8665 19.8941 35.073 19.9675 35.308C20.0282 35.543 20.064 35.7779 20.064 36.0128V39.4885C20.064 39.687 20.0768 39.845 20.1007 39.9706" fill="white"></path><path d="M25.0251 36.0818C24.9764 35.944 24.9038 35.8347 24.8141 35.7496C24.7167 35.6523 24.604 35.5916 24.4827 35.5389C24.3486 35.5025 24.1863 35.4781 24.0044 35.4781C23.7208 35.4781 23.5021 35.5389 23.3279 35.6766C23.1579 35.8103 23.0204 35.9723 22.9358 36.1708C22.8384 36.3815 22.7898 36.6043 22.7488 36.8352C22.7248 37.0702 22.7009 37.2929 22.7009 37.4996C22.7009 37.7061 22.7129 37.9452 22.7368 38.176C22.7616 38.4231 22.8103 38.6338 22.9068 38.8282C22.9922 39.0267 23.1178 39.1968 23.2997 39.3224C23.4697 39.4561 23.7046 39.5209 24.0001 39.5209C24.1948 39.5209 24.3691 39.4845 24.5143 39.3994C24.6484 39.3265 24.774 39.2252 24.8713 39.1159C24.9679 38.9943 25.0447 38.8688 25.0934 38.7351C25.1301 38.6135 25.154 38.488 25.154 38.3786H26.9238C26.9238 38.488 26.9119 38.6257 26.8751 38.7958C26.8265 38.9822 26.7658 39.1523 26.6813 39.3508C26.5958 39.5371 26.4703 39.7316 26.3371 39.93C26.179 40.1285 26.0048 40.2987 25.7861 40.4486C25.5632 40.6106 25.3206 40.7322 25.0251 40.8294C24.7295 40.9266 24.3853 40.9752 24.0044 40.9752C23.5141 40.9752 23.0733 40.9023 22.6924 40.7524C22.3114 40.5904 21.992 40.3716 21.7366 40.0759C21.4778 39.7802 21.2831 39.4237 21.1455 38.9781C21.0123 38.5447 20.9354 38.0545 20.9354 37.4996C20.9354 36.9445 21.008 36.4382 21.1575 36.0088C21.3035 35.5916 21.5145 35.2189 21.7853 34.9232C22.0569 34.6275 22.3764 34.4046 22.7573 34.2588C23.1255 34.0968 23.5551 34.0239 24.0086 34.0239C24.2025 34.0239 24.4135 34.0482 24.6364 34.0725C24.8465 34.0968 25.0533 34.1575 25.2634 34.2345C25.4743 34.3196 25.6691 34.4209 25.8673 34.5424C26.0535 34.6639 26.2234 34.8259 26.3814 35.0123C26.5275 35.1987 26.6531 35.4174 26.7496 35.6645C26.847 35.9116 26.9076 36.2073 26.9358 36.5395H25.1668C25.1301 36.3652 25.0934 36.2073 25.0328 36.0818" fill="white"></path><path d="M33.0282 34.2231V35.6005H31.0517V40.7815H29.3554V35.6005H27.3789V34.2231H33.0282Z" fill="white"></path><path d="M37.9238 36.5889V34.2231H39.6167V40.7815H37.9238V37.9702H35.4297V40.7815H33.7368V34.2231H35.4297V36.5889H37.9238Z" fill="white"></path><path d="M42.6574 38.266L45.038 34.2231H46.8197V40.7815H45.1233V36.8238H45.0994L42.7907 40.7815H40.9363V34.2231H42.6327V38.266H42.6574Z" fill="white"></path><path d="M52.2985 34.2231H54.5577L51.8569 36.9454L54.6671 40.7815H52.4565L50.5407 38.0067L49.8522 38.7075V40.7815H48.1602V34.2231H49.8522V36.7104L52.2985 34.2231Z" fill="white"></path></g></svg> 