<?xml version="1.0" encoding="UTF-8"?> <svg xmlns="http://www.w3.org/2000/svg" width="28" height="24" viewBox="0 0 28 24" fill="none"><path d="M7.29751 13.8574L1.16484 11.8593C1.16484 11.8593 0.431914 11.5619 0.667915 10.8876C0.716497 10.7486 0.814499 10.6303 1.10767 10.4269C2.46651 9.47979 26.2586 0.928261 26.2586 0.928261C26.2586 0.928261 26.9304 0.701892 27.3266 0.852456C27.4246 0.882796 27.5128 0.938628 27.5822 1.01424C27.6515 1.08985 27.6996 1.18252 27.7213 1.28279C27.7642 1.45987 27.7821 1.64207 27.7745 1.8241C27.7726 1.98157 27.7536 2.12753 27.7391 2.35641C27.5942 4.69444 23.2578 22.1439 23.2578 22.1439C23.2578 22.1439 22.9984 23.1649 22.0688 23.1999C21.8404 23.2073 21.6128 23.1686 21.3996 23.0861C21.1865 23.0037 20.9921 22.8791 20.8281 22.7199C19.004 21.1508 12.6992 16.9137 11.306 15.9819C11.2745 15.9604 11.2481 15.9325 11.2284 15.9C11.2086 15.8675 11.1961 15.8312 11.1916 15.7934C11.1722 15.6952 11.279 15.5735 11.279 15.5735C11.279 15.5735 22.2573 5.81518 22.5494 4.79076C22.572 4.7114 22.4866 4.67224 22.3718 4.707C21.6427 4.97525 9.0025 12.9576 7.60744 13.8386C7.50702 13.869 7.40088 13.8754 7.29751 13.8574Z" fill="white"></path></svg> 