<?xml version="1.0" encoding="UTF-8"?> <svg xmlns="http://www.w3.org/2000/svg" width="23" height="22" viewBox="0 0 23 22" fill="none"><path fill-rule="evenodd" clip-rule="evenodd" d="M17.2041 1.02496C15.5675 1.43761 14.254 2.72786 13.7903 4.37818C13.6164 4.99688 13.6005 6.10014 13.7568 6.69816C14.3174 8.84391 16.1337 10.2461 18.3525 10.2461C19.1194 10.2461 19.8491 10.093 20.3914 9.81822C20.8615 9.58 21.5046 9.08072 21.7902 8.7322L22.0356 8.43262L21.4659 7.98773C21.1525 7.74309 20.8853 7.54292 20.8721 7.54292C20.8588 7.54292 20.6864 7.69457 20.489 7.87987C19.2729 9.02165 17.4072 9.0399 16.2614 7.9213C14.9522 6.64308 14.9947 4.39906 16.3521 3.12929C16.5311 2.96182 16.8026 2.76104 16.9554 2.68305C17.8104 2.24689 18.9553 2.22993 19.8513 2.64007L20.211 2.80477V3.58573V4.36662H20.9882H21.7654V3.25648V2.14633L21.5119 1.93453C21.1914 1.66664 20.3005 1.23338 19.7717 1.08822C19.1918 0.928998 17.7278 0.89291 17.2041 1.02496ZM3.31584 1.86479V2.60953H4.08504H4.85425L5.24696 3.70771C5.46294 4.31175 6.07043 6.00714 6.59695 7.47534L7.55416 10.1448H8.28505H9.01593L10.4159 6.39404L11.8159 2.64332L12.5691 2.62419L13.3223 2.60507L13.3031 1.8808L13.284 1.15654H11.9662H10.6483L9.53326 4.38136C8.91997 6.15494 8.4002 7.62253 8.37824 7.6426C8.35634 7.66267 7.83597 6.21151 7.222 4.41778L6.10557 1.15654L4.7107 1.1383L3.31584 1.11998V1.86479ZM3.95346 12.1592C3.9342 12.2094 3.92731 12.5218 3.93819 12.8533L3.95786 13.4562L4.68435 13.4754L5.41084 13.4946V16.4997V19.5047H4.66515H3.91947L3.93866 20.2312L3.95786 20.9577L7.38757 20.9752L10.8173 20.9927V20.2487V19.5047H8.89124H6.9652V17.728C6.9652 15.7634 7.00689 15.4668 7.3823 14.7625C7.75575 14.0619 8.45657 13.5643 9.22029 13.4577L9.54941 13.4118L9.52204 14.0929L9.49467 14.774H10.2574H11.02V13.4224V12.0708L10.1584 12.0716C9.18596 12.0725 8.80075 12.1518 8.19232 12.4761C7.80732 12.6813 7.20315 13.2425 6.95526 13.6252C6.84788 13.791 6.84497 13.7845 6.80314 13.2873C6.77969 13.0085 6.75333 12.6284 6.74461 12.4425L6.72866 12.1046L5.3586 12.0863C4.25798 12.0716 3.98158 12.086 3.95346 12.1592ZM12.7096 12.848V13.6252H13.381H14.0524L14.0766 16.1763C14.0998 18.611 14.1077 18.7458 14.2503 19.1276C14.466 19.7054 14.6806 20.0417 15.0596 20.3962C15.653 20.9513 16.3161 21.1942 17.2375 21.1942C17.561 21.1942 17.9742 21.1488 18.1645 21.0922C18.6913 20.9358 19.2878 20.5002 19.6535 20.0049L19.9745 19.5702L20.0891 20.264C20.1521 20.6455 20.2053 20.966 20.2074 20.9761C20.2094 20.9863 20.7508 20.9863 21.4106 20.9761L22.6101 20.9577V20.2481V19.5385L22.0295 19.5191L21.4487 19.4998L21.4045 18.1337C21.3802 17.3824 21.3601 15.7109 21.3601 14.4192L21.3599 12.0708H19.8055H18.2512V12.848V13.6252H19.0283H19.8055V15.4745C19.8055 17.4601 19.7638 17.8563 19.4965 18.4043C18.9591 19.5068 17.655 20.0689 16.6753 19.6203C16.2442 19.423 15.9485 19.0669 15.7703 18.5306C15.6716 18.2332 15.6528 17.7742 15.6315 15.1288L15.6069 12.0708H14.1582H12.7096V12.848ZM0.882935 20.2121V20.9915H1.66234H2.44175L2.42263 20.2312L2.4035 19.4709L1.64322 19.4518L0.882935 19.4327V20.2121Z" fill="white"></path></svg> 