<?xml version="1.0" encoding="UTF-8"?> <svg xmlns="http://www.w3.org/2000/svg" width="27" height="16" viewBox="0 0 27 16" fill="none"><path fill-rule="evenodd" clip-rule="evenodd" d="M12.7282 15.5189H14.284C14.284 15.5189 14.7539 15.4671 14.9941 15.2087C15.2149 14.9711 15.2079 14.5252 15.2079 14.5252C15.2079 14.5252 15.1774 12.4376 16.1462 12.1302C17.1016 11.8271 18.3281 14.1478 19.628 15.0402C20.6111 15.7153 21.3581 15.5675 21.3581 15.5675L24.8343 15.5189C24.8343 15.5189 26.6527 15.4067 25.7904 13.977C25.7198 13.8602 25.2881 12.9194 23.2057 10.9865C21.0258 8.96338 21.318 9.2907 23.9436 5.7912C25.5427 3.66001 26.1818 2.35898 25.9821 1.80178C25.7918 1.27088 24.6156 1.41112 24.6156 1.41112L20.7017 1.43532C20.7017 1.43532 20.4113 1.39582 20.1963 1.52451C19.9859 1.65036 19.8509 1.9444 19.8509 1.9444C19.8509 1.9444 19.2312 3.59346 18.4053 4.99614C16.6625 7.95548 15.9655 8.11213 15.6806 7.92808C15.0179 7.49975 15.1835 6.20771 15.1835 5.28955C15.1835 2.42149 15.6185 1.22569 14.3364 0.916158C13.911 0.813498 13.5976 0.745577 12.5095 0.734487C11.1128 0.720279 9.93107 0.738795 9.26177 1.06666C8.81648 1.28472 8.47294 1.77052 8.68229 1.79848C8.94105 1.83294 9.52676 1.95659 9.8373 2.37915C10.2385 2.92498 10.2245 4.1503 10.2245 4.1503C10.2245 4.1503 10.455 7.52642 9.68625 7.94568C9.15874 8.23331 8.43499 7.64613 6.88117 4.96122C6.08519 3.58595 5.48399 2.06558 5.48399 2.06558C5.48399 2.06558 5.36822 1.78152 5.16144 1.62946C4.91065 1.44522 4.56024 1.38683 4.56024 1.38683L0.840848 1.41112C0.840848 1.41112 0.282635 1.42671 0.0774993 1.66951C-0.104996 1.88565 0.0629265 2.33213 0.0629265 2.33213C0.0629265 2.33213 2.97461 9.1445 6.27181 12.5775C9.29541 15.7255 12.7282 15.5189 12.7282 15.5189Z" fill="white"></path></svg> 