<?xml version="1.0" encoding="UTF-8"?> <svg xmlns="http://www.w3.org/2000/svg" width="28" height="20" viewBox="0 0 28 20" fill="none"><g clip-path="url(#clip0_1627_45345)"><g clip-path="url(#clip1_1627_45345)"><path fill-rule="evenodd" clip-rule="evenodd" d="M24.8235 0.973862C26.0043 1.28995 26.9323 2.21789 27.2483 3.3987C27.8195 5.53679 27.8218 10.0004 27.8218 10.0004C27.8218 10.0004 27.8218 14.464 27.2483 16.6021C26.9323 17.7829 26.0043 18.7109 24.8235 19.0269C22.6854 19.6004 14.1081 19.6004 14.1081 19.6004C14.1081 19.6004 5.53093 19.6004 3.39283 19.0269C2.21203 18.7109 1.28409 17.7829 0.968003 16.6021C0.394531 14.464 0.394531 10.0004 0.394531 10.0004C0.394531 10.0004 0.394531 5.53679 0.968003 3.3987C1.28409 2.21789 2.21203 1.28995 3.39283 0.973862C5.53093 0.400391 14.1081 0.400391 14.1081 0.400391C14.1081 0.400391 22.6854 0.400391 24.8235 0.973862ZM18.4888 10.0004L11.3633 14.114V5.88672L18.4888 10.0004Z" fill="white"></path></g></g><defs><clipPath id="clip0_1627_45345"><rect width="27.4272" height="19.2" fill="white" transform="translate(0.398438 0.400391)"></rect></clipPath><clipPath id="clip1_1627_45345"><rect width="27.4272" height="19.2" fill="white" transform="translate(0.398438 0.400391)"></rect></clipPath></defs></svg> 