<?xml version="1.0" encoding="UTF-8"?> <svg xmlns="http://www.w3.org/2000/svg" width="80" height="24" viewBox="0 0 80 24" fill="none"><path d="M60.0453 24H59.5658C52.9523 24 47.5787 18.6283 47.5787 12.0171C47.5787 5.40582 52.9523 0.0341682 59.5658 0.0341682H60.0453C66.6588 0.0341682 72.0324 5.40582 72.0324 12.0171C72.0158 18.6283 66.6423 24 60.0453 24ZM59.5658 6.79418C56.6724 6.79418 54.3246 9.14118 54.3246 12.0336C54.3246 14.926 56.6724 17.273 59.5658 17.273H60.0288C62.9222 17.273 65.27 14.926 65.27 12.0336C65.27 9.14118 62.9222 6.79418 60.0288 6.79418H59.5658Z" fill="#101010"></path><path d="M79.3165 0H72.4219V6.89224H79.3165V0Z" fill="#101010"></path><path d="M13.409 0H0V6.89224H13.409V0Z" fill="#101010"></path><path d="M13.4261 6.89273V13.8346C13.4261 15.7353 11.8719 17.2889 9.97049 17.2889C8.0691 17.2889 6.51491 15.7353 6.51491 13.8346H0.0170898C0.0170898 19.3219 4.48124 23.801 9.98703 23.801C15.4763 23.801 19.957 19.3384 19.957 13.8346V6.89273H13.4261Z" fill="#101010"></path><path d="M41.9442 0.0158024L34.3882 16.7588L26.8322 0.0158024H22.3185V6.87499L29.9902 23.8494H38.7862L46.458 6.87499V0.0158024H41.9442Z" fill="#101010"></path></svg> 