<svg width="32" height="32" viewBox="0 0 32 32" fill="none" xmlns="http://www.w3.org/2000/svg">
<g filter="url(#filter0_iiiii_1954_4676)">
<g clip-path="url(#clip0_1954_4676)">
<mask id="mask0_1954_4676" style="mask-type:luminance" maskUnits="userSpaceOnUse" x="0" y="0" width="32" height="32">
<path d="M25.2863 31.596H6.34176C2.85316 31.596 0.0261841 28.7678 0.0261841 25.2798V6.32675C0.0261841 2.83657 2.85316 0.00831604 6.34176 0.00831604L25.2863 0.00831604C28.7749 0.00831604 31.6018 2.83657 31.6018 6.32675V25.2798C31.5996 28.7678 28.7726 31.596 25.2863 31.596Z" fill="white"/>
</mask>
<g mask="url(#mask0_1954_4676)">
<path d="M31.5996 0.00831604L0.0261841 0.00831604V31.596H31.5996V0.00831604Z" fill="#005BFF"/>
</g>
<mask id="mask1_1954_4676" style="mask-type:luminance" maskUnits="userSpaceOnUse" x="0" y="0" width="32" height="32">
<path d="M25.2863 0.00831604L6.34176 0.00831604C2.85315 0.00831604 0.0261841 2.83657 0.0261841 6.32675V25.2798C0.0261841 28.7678 2.85315 31.596 6.34176 31.596H25.2863C28.7726 31.596 31.5996 28.7678 31.6018 25.2798V6.32675C31.6018 2.83657 28.7749 0.00831604 25.2863 0.00831604Z" fill="white"/>
</mask>
<g mask="url(#mask1_1954_4676)">
<path d="M35.0913 27.0728C32.6922 29.2317 29.9266 32.4182 26.4524 32.2927C25.5171 31.6622 26.9961 30.433 27.4701 29.901C28.9844 28.2017 30.4783 26.3877 31.9503 24.5388C37.2454 17.8876 35.512 21.5951 35.0913 27.0728Z" fill="#F1117E"/>
<path d="M28.9385 -5.6393C26.5752 -0.233477 23.6775 5.13664 19.5889 9.45599C16.7597 12.4448 14.79 14.6768 11.2993 17.3629C7.26127 20.4701 3.31074 22.8922 -0.514037 26.187C-2.53521 28.0487 -4.91813 29.5882 -7.48932 30.682C-7.47357 30.8917 -7.25748 33.925 -7.2508 33.9651C-7.21515 33.9451 -6.50006 33.3701 -6.35748 33.2653C-0.323147 29.0668 6.61512 26.2453 12.5221 21.749C19.7905 15.6322 25.8784 8.06896 31.0772 0.142141C35.8086 -6.46678 38.9115 -6.57813 28.9385 -5.6393Z" fill="#F1117E"/>
<path d="M5.80571 1.68179C4.39557 3.17503 3.01884 4.67051 1.63988 6.19496C0.889142 7.0285 0.211916 7.92668 -0.529914 8.77359C-1.85541 10.2869 -3.22768 11.7824 -4.79376 13.0193C-6.38212 14.2719 -8.09078 15.5378 -9.71033 16.7502C-9.71479 16.6588 -9.90637 12.4109 -9.91083 12.315C-9.22469 11.1516 -8.5341 9.83446 -8.02395 8.57078C-7.72321 7.82415 -7.45811 7.03964 -7.15514 6.29302C-6.57594 4.85549 -5.81628 3.54054 -4.69797 2.49304C-4.07421 1.90689 -3.35689 1.49235 -2.61951 1.09786C-0.407389 -0.0878191 1.80251 -1.29356 4.01908 -2.4681C5.34012 -3.17015 6.34036 -4.39372 7.51883 -5.31864L12.1948 -5.53036C10.0718 -3.1122 8.01783 -0.660601 5.80571 1.68179Z" fill="#F1117E"/>
<path d="M16.0612 35.6811C17.821 33.8936 23.9863 29.7414 23.0039 29.1723C22.9155 29.1211 22.8061 29.1212 22.7142 29.1657C19.3282 30.8033 16.1671 33.1301 13.7881 36.0804C13.7267 36.1565 13.6344 36.2007 13.5367 36.1997C12.9796 36.194 11.1787 36.1738 10.0234 36.1609C9.7147 36.1575 9.59102 35.7606 9.84308 35.5823C10.0387 35.4439 10.2006 35.3263 10.2919 35.2585C13.082 33.1065 16.19 31.4913 19.2012 29.7355C22.8113 27.6305 25.9414 24.7925 28.3911 21.4059C29.5179 19.8483 30.6668 18.31 32.0125 16.947C32.027 16.9324 32.0429 16.9192 32.06 16.9076C35.817 14.3531 36.8563 6.7137 42.0387 4.01412C42.2528 3.90259 42.5081 4.05805 42.506 4.29955C42.4889 6.2648 39.8928 7.86267 39.7225 9.87928C39.7209 9.89911 39.7175 9.91885 39.7123 9.93804C37.6976 17.267 30.5977 22.2382 27.2283 26.0644C25.2269 28.3372 22.8535 32.859 20.1257 35.8779C20.0957 35.911 20.0733 35.9501 20.0593 35.9926C19.9229 36.4084 17.481 36.2648 16.2778 36.2221C16.0013 36.2123 15.8671 35.8782 16.0612 35.6811Z" fill="#F1117E"/>
<path d="M-8.81555 37.0749C-2.06046 32.4116 6.01439 29.9845 12.6309 25.1773C16.4635 21.8784 19.3952 17.5697 23.2821 14.3623C24.3562 13.7148 24.0548 14.6973 23.7061 15.3339C19.8021 23.1677 12.007 27.6626 4.74365 31.9596C-0.494522 35.3107 -1.53786 38.1043 -8.81555 37.0749Z" fill="#F1117E"/>
<path d="M37.7184 4.94935C43.5824 2.03649 42.0606 -1.04041 41.3013 -6.91933C38.2367 -4.74164 36.3092 -2.27922 33.9685 0.5941C27.0452 8.6099 24.5923 20.3407 15.2106 26.3399C10.3933 29.1436 6.49956 33.1311 2.38379 36.8263C3.31411 36.4989 8.53183 37.0451 8.79529 35.6094C10.0256 33.5283 11.3684 31.8767 13.6297 30.896C17.8716 28.6681 21.5318 25.5043 25.2537 22.518C30.3607 17.464 30.3649 7.93264 37.7184 4.94935Z" fill="#F1117E"/>
<path d="M28.2505 -5.62074C24.5234 1.13402 17.6927 8.03738 10.7854 13.2064C8.09562 15.2192 4.9728 16.5692 1.66896 17.1755C-0.851662 17.638 -1.9505 18.3734 -5.55275 21.4008C-6.79816 22.6997 -7.4687 23.9054 -8.54469 25.9803C-8.54691 25.909 -8.83875 19.5081 -8.83875 19.5081C-5.97302 15.6024 -1.5914 13.9083 1.72743 10.58C4.46411 7.72106 6.37418 4.13585 8.89844 1.09227C10.1588 -0.510496 14.1541 -4.12568 14.9065 -5.0169C14.9154 -5.01675 19.0411 -5.20397 19.0411 -5.20397C17.1552 -2.81411 15.2342 -0.533537 11.2492 4.18462C10.7697 4.75228 6.80958 8.83159 5.36203 11.0759C4.89072 11.8067 4.57148 12.5497 4.92713 12.827C5.30388 13.1206 5.8344 12.6322 6.69232 12.096C11.6153 9.01866 15.0568 6.11379 19.0435 1.14584C25.497 -6.89616 20.5504 -6.18116 28.2505 -5.62074Z" fill="#F1117E"/>
</g>
<mask id="mask2_1954_4676" style="mask-type:luminance" maskUnits="userSpaceOnUse" x="0" y="0" width="32" height="32">
<path d="M25.2863 0.00831604L6.34176 0.00831604C2.85315 0.00831604 0.0261841 2.83657 0.0261841 6.32675V25.2798C0.0261841 28.7678 2.85315 31.596 6.34176 31.596H25.2863C28.7726 31.596 31.5996 28.7678 31.6018 25.2798V6.32675C31.6018 2.83657 28.7749 0.00831604 25.2863 0.00831604Z" fill="white"/>
</mask>
<g mask="url(#mask2_1954_4676)">
<path d="M13.2594 18.2105L10.4735 18.9573L12.7691 13.2924C12.8195 13.166 12.7579 13.0227 12.6315 12.9723C12.5828 12.9528 12.5291 12.9495 12.4782 12.9627L7.33113 14.3425C6.87681 14.4643 6.60716 14.9315 6.72889 15.3861C6.85063 15.8406 7.31767 16.1104 7.77199 15.9886L10.0865 15.3681L7.77818 21.0388C7.72591 21.163 7.7842 21.3062 7.90839 21.3585C7.95928 21.3799 8.01595 21.3834 8.06903 21.3684L13.7009 19.8587C14.1483 19.7135 14.3933 19.2329 14.2481 18.7853C14.1134 18.3702 13.6872 18.124 13.2606 18.2149L13.2594 18.2105ZM29.8829 8.29702C29.4285 8.41883 29.1589 8.88607 29.2807 9.34059L30.02 12.1011L24.6278 9.76303C24.5049 9.70769 24.3605 9.76255 24.3052 9.88555C24.2819 9.93745 24.2774 9.9959 24.2926 10.0508L25.8123 15.7252C25.9341 16.1797 26.4011 16.4494 26.8554 16.3276C27.3097 16.2058 27.5794 15.7386 27.4577 15.2841L26.7184 12.5236L32.1112 14.8639C32.2363 14.9173 32.3809 14.859 32.4342 14.7339C32.4558 14.6833 32.4598 14.627 32.4457 14.5739L30.9259 8.89954C30.8042 8.44502 30.3372 8.17523 29.8829 8.29702ZM19.5244 16.6979C17.6434 17.2021 15.9703 16.5873 15.7326 15.6998C15.4949 14.8123 16.6366 13.443 18.5176 12.9387C20.3986 12.4345 22.0716 13.0492 22.3093 13.9368C22.547 14.8243 21.4098 16.1925 19.5244 16.6979ZM18.0773 11.2949C15.3537 12.025 13.5682 14.1939 14.0895 16.1403C14.6108 18.0866 17.241 19.0719 19.9646 18.3418C22.6883 17.6116 24.4737 15.4426 23.9524 13.4963C23.4311 11.55 20.8009 10.5648 18.0773 11.2949ZM3.33209 21.041C2.29361 21.3207 1.22509 20.7052 0.945457 19.6662C0.665922 18.6272 1.28114 17.5582 2.31963 17.2785C3.35811 16.9988 4.42663 17.6143 4.70625 18.6533L4.70684 18.6555C4.98497 19.6939 4.36976 20.7615 3.33209 21.041ZM1.88441 15.6357C-0.0621876 16.1562 -1.21849 18.1569 -0.698178 20.1044C-0.177916 22.052 1.8219 23.2087 3.7685 22.6882C5.71509 22.1677 6.87141 20.167 6.35108 18.2195C6.35068 18.218 6.35028 18.2165 6.34988 18.215C5.82872 16.2691 3.82948 15.1143 1.88441 15.6357Z" fill="#F2F2F2"/>
</g>
<g filter="url(#filter1_f_1954_4676)" style="mix-blend-mode:overlay">
<path d="M1.84802 4.26082C1.84802 3.13958 2.56123 2.14252 3.62236 1.78031L4.7761 1.38649L2.91601 2.4195C2.52578 2.63621 2.28309 3.04685 2.28143 3.49321L2.18942 28.1961C2.18802 28.5711 2.35727 28.9263 2.64934 29.1615L4.1531 30.3721L3.49507 30.1088C2.50027 29.7106 1.84802 28.7469 1.84802 27.6754V4.26082Z" fill="white"/>
</g>
<g filter="url(#filter2_f_1954_4676)" style="mix-blend-mode:overlay">
<path d="M29.2809 4.26082C29.2809 3.13958 28.5677 2.14252 27.5065 1.78031L26.3528 1.38649L28.2129 2.4195C28.6031 2.63621 28.8458 3.04685 28.8475 3.49321L28.9395 28.1961C28.9409 28.5711 28.7716 28.9263 28.4796 29.1615L26.9758 30.3721L27.6338 30.1088C28.6286 29.7106 29.2809 28.7469 29.2809 27.6754V4.26082Z" fill="white"/>
</g>
<g filter="url(#filter3_f_1954_4676)" style="mix-blend-mode:overlay">
<path d="M2.92737 9.81757C2.92737 9.27427 3.40924 8.85734 3.9469 8.93545C4.15668 8.96593 4.31075 9.14812 4.30596 9.36005L4.01116 22.4033C4.00815 22.5365 3.92104 22.6531 3.79418 22.6938C3.36563 22.8313 2.92737 22.5116 2.92737 22.0615V9.81757Z" fill="white"/>
</g>
</g>
</g>
<defs>
<filter id="filter0_iiiii_1954_4676" x="-0.462537" y="-0.632134" width="33.3027" height="33.6264" filterUnits="userSpaceOnUse" color-interpolation-filters="sRGB">
<feFlood flood-opacity="0" result="BackgroundImageFix"/>
<feBlend mode="normal" in="SourceGraphic" in2="BackgroundImageFix" result="shape"/>
<feColorMatrix in="SourceAlpha" type="matrix" values="0 0 0 0 0 0 0 0 0 0 0 0 0 0 0 0 0 0 127 0" result="hardAlpha"/>
<feOffset dx="-0.308358" dy="-0.308358"/>
<feGaussianBlur stdDeviation="0.323776"/>
<feComposite in2="hardAlpha" operator="arithmetic" k2="-1" k3="1"/>
<feColorMatrix type="matrix" values="0 0 0 0 1 0 0 0 0 1 0 0 0 0 1 0 0 0 0.41 0"/>
<feBlend mode="plus-lighter" in2="shape" result="effect1_innerShadow_1954_4676"/>
<feColorMatrix in="SourceAlpha" type="matrix" values="0 0 0 0 0 0 0 0 0 0 0 0 0 0 0 0 0 0 127 0" result="hardAlpha"/>
<feOffset dx="-0.462537" dy="-0.770895"/>
<feGaussianBlur stdDeviation="0.316067"/>
<feComposite in2="hardAlpha" operator="arithmetic" k2="-1" k3="1"/>
<feColorMatrix type="matrix" values="0 0 0 0 0 0 0 0 0 0 0 0 0 0 0 0 0 0 0.25 0"/>
<feBlend mode="normal" in2="effect1_innerShadow_1954_4676" result="effect2_innerShadow_1954_4676"/>
<feColorMatrix in="SourceAlpha" type="matrix" values="0 0 0 0 0 0 0 0 0 0 0 0 0 0 0 0 0 0 127 0" result="hardAlpha"/>
<feOffset dx="1.23343" dy="1.38761"/>
<feGaussianBlur stdDeviation="0.778604"/>
<feComposite in2="hardAlpha" operator="arithmetic" k2="-1" k3="1"/>
<feColorMatrix type="matrix" values="0 0 0 0 1 0 0 0 0 1 0 0 0 0 1 0 0 0 0.25 0"/>
<feBlend mode="normal" in2="effect2_innerShadow_1954_4676" result="effect3_innerShadow_1954_4676"/>
<feColorMatrix in="SourceAlpha" type="matrix" values="0 0 0 0 0 0 0 0 0 0 0 0 0 0 0 0 0 0 127 0" result="hardAlpha"/>
<feOffset dx="0.308358" dy="0.308358"/>
<feGaussianBlur stdDeviation="0.562753"/>
<feComposite in2="hardAlpha" operator="arithmetic" k2="-1" k3="1"/>
<feColorMatrix type="matrix" values="0 0 0 0 0 0 0 0 0 0 0 0 0 0 0 0 0 0 0.2 0"/>
<feBlend mode="color-burn" in2="effect3_innerShadow_1954_4676" result="effect4_innerShadow_1954_4676"/>
<feColorMatrix in="SourceAlpha" type="matrix" values="0 0 0 0 0 0 0 0 0 0 0 0 0 0 0 0 0 0 127 0" result="hardAlpha"/>
<feOffset dx="0.616716" dy="0.616716"/>
<feGaussianBlur stdDeviation="0.323776"/>
<feComposite in2="hardAlpha" operator="arithmetic" k2="-1" k3="1"/>
<feColorMatrix type="matrix" values="0 0 0 0 1 0 0 0 0 1 0 0 0 0 1 0 0 0 0.19 0"/>
<feBlend mode="plus-lighter" in2="effect4_innerShadow_1954_4676" result="effect5_innerShadow_1954_4676"/>
</filter>
<filter id="filter1_f_1954_4676" x="1.61675" y="1.15522" width="3.39064" height="29.4482" filterUnits="userSpaceOnUse" color-interpolation-filters="sRGB">
<feFlood flood-opacity="0" result="BackgroundImageFix"/>
<feBlend mode="normal" in="SourceGraphic" in2="BackgroundImageFix" result="shape"/>
<feGaussianBlur stdDeviation="0.115634" result="effect1_foregroundBlur_1954_4676"/>
</filter>
<filter id="filter2_f_1954_4676" x="26.1215" y="1.15522" width="3.39064" height="29.4482" filterUnits="userSpaceOnUse" color-interpolation-filters="sRGB">
<feFlood flood-opacity="0" result="BackgroundImageFix"/>
<feBlend mode="normal" in="SourceGraphic" in2="BackgroundImageFix" result="shape"/>
<feGaussianBlur stdDeviation="0.115634" result="effect1_foregroundBlur_1954_4676"/>
</filter>
<filter id="filter3_f_1954_4676" x="2.6961" y="8.69476" width="1.84126" height="14.2625" filterUnits="userSpaceOnUse" color-interpolation-filters="sRGB">
<feFlood flood-opacity="0" result="BackgroundImageFix"/>
<feBlend mode="normal" in="SourceGraphic" in2="BackgroundImageFix" result="shape"/>
<feGaussianBlur stdDeviation="0.115634" result="effect1_foregroundBlur_1954_4676"/>
</filter>
<clipPath id="clip0_1954_4676">
<rect width="31.6067" height="31.6067" rx="6.47552" fill="white"/>
</clipPath>
</defs>
</svg>
