<svg overflow="visible" style="display: block;" viewBox="0 0 129.981 25.1945" fill="none" xmlns="http://www.w3.org/2000/svg">
<g id="CNews_logo">
<path id="Vector" d="M13.4427 0H14.679C16.1675 0.120638 17.7639 0.209527 19.0382 1.07302C19.7634 1.54604 20.1332 2.51271 19.8237 3.33335C19.4159 4.46511 18.2225 5.41431 16.9768 5.18733C16.2738 4.9905 15.6867 4.53336 15.1297 4.08097C14.2235 3.3397 13.3491 2.52858 12.2732 2.03334C11.429 1.61429 10.4371 1.6381 9.53578 1.83334C7.92824 2.21747 6.65871 3.43811 5.84462 4.83177C4.8401 6.59686 4.31801 8.63814 4.36562 10.6683C4.36244 13.1207 5.05116 15.5985 6.44606 17.6271C7.85524 19.6779 10.0341 21.2224 12.4827 21.7287C14.2172 22.124 16.0945 22.0303 17.7242 21.289C18.4463 20.9716 19.1207 20.5541 19.7618 20.097C20.103 20.297 20.4506 20.4843 20.814 20.6398C19.1842 22.4875 17.072 23.9367 14.7027 24.651C12.2161 25.3954 9.46436 25.3526 7.04908 24.3653C4.41322 23.3049 2.28994 21.1382 1.13782 18.5589C0.436402 17.0573 0.104735 15.4096 0 13.7604V12.6525C0.107912 11.1175 0.422118 9.58737 1.05212 8.17785C2.15344 5.6445 4.10217 3.5159 6.46508 2.09846C8.56298 0.814325 10.9925 0.126985 13.4427 0Z" fill="var(--fill-0, black)"/>
<path id="Vector_2" d="M39.2462 0H39.2605C39.4621 0.0698437 39.6588 0.144446 39.8588 0.215874C39.7064 1.53969 39.5842 2.86827 39.4256 4.19209C41.7044 2.53494 44.099 0.850799 46.8999 0.239686C47.4347 0.11429 47.9806 0.0603188 48.5249 4.06352e-06H49.5167C50.5593 0.0888935 51.6257 0.244449 52.5604 0.742864C53.6665 1.28255 54.5314 2.24763 55.0217 3.36669C55.7374 4.94924 55.858 6.7175 55.8707 8.43019C55.8707 11.8524 55.8723 15.2731 55.8707 18.6953C55.8644 19.4096 55.8803 20.1271 55.9485 20.8382C56.0421 21.4192 56.1151 22.0446 56.4976 22.5176C56.8514 22.9779 57.4021 23.2319 57.948 23.3811C58.6589 23.5731 59.3826 23.7208 60.1141 23.7954C60.1284 24.07 60.1316 24.3446 60.1316 24.6192H47.4204C47.4283 24.3493 47.3839 24.0684 47.4553 23.8033C48.5455 23.6144 49.7294 23.4985 50.6529 22.8319C51.5273 22.143 51.5718 20.9398 51.6527 19.9207C51.7051 17.5144 51.6717 15.1048 51.6813 12.6969C51.667 11.0683 51.7463 9.42704 51.4559 7.81593C51.2337 6.59052 50.8021 5.33972 49.896 4.44606C48.6994 3.19368 46.8729 2.80478 45.1987 2.85082C44.3323 2.81748 43.4626 2.9524 42.6438 3.23653C41.5456 3.63654 40.576 4.32384 39.7239 5.11274C39.6033 5.20004 39.6556 5.36036 39.6413 5.48417C39.6509 10.2588 39.6366 15.0334 39.6477 19.8096C39.7001 20.6144 39.7175 21.4525 40.065 22.1954C40.3618 22.8112 40.9997 23.17 41.6313 23.3557C42.3708 23.5636 43.1278 23.716 43.8927 23.7986C43.8959 24.0716 43.8959 24.3462 43.8959 24.6192C39.662 24.6192 35.4249 24.6192 31.1895 24.6208C31.199 24.3462 31.2006 24.0716 31.2069 23.797C31.9686 23.7144 32.724 23.5557 33.4587 23.3303C34.1491 23.1113 34.8092 22.6652 35.0758 21.9652C35.4963 20.7843 35.4075 19.5112 35.4583 18.2795V7.41433C35.444 6.69528 35.4519 5.94765 35.1314 5.28574C34.6251 4.27939 33.673 3.60478 32.7922 2.94763C32.7907 2.76509 32.7891 2.58414 32.7859 2.40319C34.9362 1.59366 37.0976 0.814288 39.2462 0Z" fill="var(--fill-0, black)"/>
<path id="Vector_3" d="M70.1275 4.06352e-06H71.24C71.9255 0.0730214 72.6142 0.142861 73.2791 0.328576C75.0708 0.777785 76.6973 1.89208 77.7003 3.44923C78.5826 4.7921 78.992 6.39687 79.0682 7.99054C73.8107 7.9826 68.5533 7.9953 63.2974 7.98419C63.1816 8.87149 63.134 9.76832 63.0753 10.662C62.8357 13.2144 63.5323 15.862 65.0668 17.9255C66.4284 19.7906 68.5152 21.1033 70.7861 21.5176C72.2794 21.7795 73.8568 21.77 75.2945 21.2446C76.8434 20.6985 78.1034 19.5509 79.0682 18.2477C79.3443 18.4477 79.6204 18.6493 79.8934 18.8573C78.4493 21.2922 76.2895 23.3525 73.6441 24.4192C70.1053 25.8637 65.8302 25.1494 62.8738 22.7525C61.2741 21.4843 60.0649 19.7557 59.3254 17.8588C58.4986 15.7842 58.2765 13.4953 58.5462 11.2874C58.9509 7.62543 60.8869 4.08254 63.9687 2.00795C65.7746 0.758736 67.9471 0.122231 70.1275 4.06352e-06ZM68.1011 1.2889C66.5697 1.58414 65.3541 2.74287 64.5845 4.04923C64.0656 4.96194 63.6196 5.94766 63.4689 6.99211C64.6686 6.86354 65.8762 6.91751 67.0775 6.81909C69.3579 6.73655 71.6367 6.64131 73.9155 6.52862C73.5474 4.92861 72.9126 3.29368 71.6447 2.19049C70.6925 1.34921 69.3405 1.00636 68.1011 1.2889Z" fill="var(--fill-0, black)"/>
<path id="Vector_4" d="M121.918 2.03176e-05H122.845C124.8 0.127005 126.788 0.658753 128.394 1.80797C128.456 3.41432 128.491 5.02545 128.577 6.63181C128.175 6.71594 127.769 6.78102 127.367 6.86514C126.872 5.24133 126.271 3.54925 125.014 2.34924C123.679 1.07621 121.367 0.915896 119.945 2.12701C119.05 2.90003 118.652 4.12702 118.723 5.28735C118.714 6.52703 119.484 7.61434 120.396 8.38737C121.915 9.65404 123.749 10.4429 125.443 11.4414C126.815 12.2509 128.197 13.1715 129.089 14.5271C129.856 15.6795 130.111 17.1223 129.921 18.4842C129.748 20.0795 128.943 21.5763 127.764 22.6557C126.017 24.2811 123.619 25.0795 121.261 25.1605C118.817 25.2192 116.318 24.5938 114.31 23.1652C114.182 21.7271 114.12 20.2842 113.983 18.8461C113.914 18.2731 113.958 17.689 113.844 17.1192C114.274 17.0303 114.705 16.9303 115.147 16.9096C115.526 18.8033 116.318 20.67 117.654 22.0906C118.666 23.1398 120.107 23.7811 121.574 23.7509C122.667 23.7795 123.776 23.3668 124.555 22.5938C126.074 21.0843 126.231 18.3906 124.841 16.7477C124.051 15.7811 122.954 15.1303 121.867 14.5477C120.147 13.6176 118.3 12.862 116.795 11.5842C115.792 10.7556 115.013 9.63022 114.71 8.35561C114.38 6.92068 114.463 5.35401 115.118 4.01907C115.732 2.74128 116.808 1.73017 118.049 1.06667C119.236 0.41905 120.574 0.100019 121.918 2.03176e-05Z" fill="var(--fill-0, black)"/>
<path id="Vector_5" d="M76.5009 0.534051C80.3333 0.540402 84.1673 0.540402 88.0013 0.534051C87.9965 0.805482 87.9965 1.07691 87.9997 1.34834C87.2856 1.39437 86.5461 1.42295 85.8764 1.70707C85.4432 1.86105 85.0623 2.19914 84.9433 2.6547C84.8528 3.17375 84.9258 3.71026 85.0924 4.20709C85.459 5.34678 85.9303 6.44837 86.3588 7.56425C87.86 11.4182 89.3882 15.2595 90.8752 19.1183C92.5827 15.1579 94.241 11.1722 95.9311 7.20394C96.0453 6.95632 95.8755 6.71029 95.7994 6.48012C95.2646 5.21186 94.8996 3.84043 94.0744 2.7182C93.3761 1.76899 92.1383 1.54041 91.0497 1.34835C91.0529 1.07692 91.0529 0.807079 91.0545 0.535648C94.9329 0.535648 98.8145 0.548347 102.694 0.529297C102.694 0.800728 102.694 1.07374 102.696 1.34676C101.858 1.41026 100.995 1.4674 100.222 1.83089C99.7254 2.06899 99.3318 2.57534 99.3588 3.14519C99.381 3.89757 99.6889 4.60393 99.9459 5.29917C101.666 9.90712 103.431 14.4976 105.132 19.1104C105.84 17.6612 106.463 16.1723 107.125 14.7008C108.223 12.1817 109.306 9.65156 110.226 7.06107C110.594 5.9436 110.978 4.81979 111.132 3.64994C111.232 3.02136 111.048 2.29755 110.499 1.92612C109.788 1.47215 108.92 1.47215 108.115 1.35151C108.119 1.07849 108.117 0.807067 108.115 0.534047C111.181 0.545157 114.247 0.530874 117.313 0.540398C117.31 0.807067 117.31 1.07373 117.312 1.3404C116.388 1.43564 115.445 1.68167 114.714 2.28168C113.578 3.18486 113.003 4.55947 112.402 5.83726C109.499 12.2817 106.63 18.7421 103.721 25.1818C103.49 25.1755 103.259 25.1787 103.029 25.1945H102.985C100.827 19.6675 98.6542 14.1453 96.5039 8.61506C94.2045 14.131 91.9574 19.6707 89.6754 25.1945H89.6342C89.3803 25.1755 89.1263 25.1723 88.8724 25.1755C86.1525 18.4262 83.4388 11.6754 80.7046 4.93092C80.3031 3.99758 79.8905 3.0198 79.1224 2.32138C78.4115 1.66582 77.4371 1.41503 76.4961 1.34201C76.5009 1.07217 76.5009 0.803893 76.5009 0.534051Z" fill="var(--fill-0, black)"/>
<path id="Vector_6" d="M19.8895 7.41067C20.9606 6.5313 22.273 5.92971 23.6616 5.80589C25.6754 5.58367 27.7685 6.33923 29.1888 7.7821C30.444 9.04401 31.1788 10.8123 31.1534 12.5964C31.1693 14.1329 30.6234 15.6647 29.6569 16.8568C28.6302 18.1393 27.1226 19.0346 25.5008 19.2965C23.8933 19.5631 22.1857 19.2663 20.7988 18.3997C19.0452 17.3409 17.8186 15.4504 17.5964 13.4139C17.3393 11.5203 17.9598 9.55517 19.1992 8.1107C18.8262 8.70594 18.6168 9.40278 18.712 10.1091C18.8437 11.3393 19.8847 12.4044 21.1098 12.5663C22.5587 12.8187 24.0488 11.7552 24.3106 10.3171C24.4265 9.66945 24.3455 8.97262 24.0139 8.39642C23.5156 7.47419 22.4761 6.86308 21.4224 6.92816C20.8702 6.92022 20.364 7.1567 19.8895 7.41067Z" fill="var(--fill-0, #494949)"/>
</g>
</svg>
