<svg overflow="visible" style="display: block;" viewBox="0 0 174 24.36" fill="none" xmlns="http://www.w3.org/2000/svg">
<g id="3 Logo_Kommersant 3" clip-path="url(#clip0_641_4643)">
<g id="g3008">
<path id="_157374752" d="M173.287 3.43428C173.287 2.24633 172.323 1.28255 171.136 1.28255C169.956 1.2827 168.985 2.25413 168.986 3.43413C168.986 4.61428 169.957 5.58513 171.136 5.58542C172.316 5.58586 173.286 4.61457 173.287 3.43428ZM168.621 3.43413C168.621 2.05337 169.756 0.917969 171.136 0.917969C172.523 0.917969 173.651 2.04586 173.651 3.43354C173.651 4.81401 172.516 5.94956 171.136 5.95C169.756 5.95044 168.621 4.81489 168.621 3.43413Z" fill="var(--fill-0, #7F7F7F)"/>
<path id="_157374224" fill-rule="evenodd" clip-rule="evenodd" d="M171.061 1.58593C171.127 2.20249 171.623 1.85219 171.837 1.67998C171.915 1.61801 172.011 1.50394 172.063 1.47186C172.097 1.45184 172.147 1.46597 172.167 1.50792C172.187 1.56988 172.196 1.64804 172.158 1.76211C172.112 1.8962 172.034 2.02631 171.99 2.09637C171.876 2.2805 171.763 2.44256 171.629 2.6127C171.411 2.885 171.135 3.10107 170.907 3.36733C170.557 3.77563 170.359 4.40618 170.467 4.93856C170.495 5.07456 170.559 5.24676 170.689 5.31874C171.461 5.7472 172.028 3.90972 171.766 3.36733C171.73 3.29727 171.658 3.17113 171.561 3.18924C171.077 3.27931 170.853 4.85245 171.155 4.96652C171.141 5.15271 170.845 5.26678 170.759 4.92251C170.731 4.80241 170.725 4.67627 170.729 4.55219C170.744 4.02776 171.163 3.23516 171.643 2.99304C171.862 2.88088 172.17 2.88294 172.292 3.13316C172.722 4.02379 171.559 5.66904 170.553 5.51891C170.067 5.44488 169.891 4.97859 169.929 4.53615C169.959 4.172 170.111 3.82567 170.321 3.52939C170.745 2.93298 171.413 2.75886 171.737 2.29051C171.737 2.29051 171.75 2.27255 171.752 2.26255C171.757 2.24783 171.74 2.23046 171.718 2.24783C171.682 2.27991 171.496 2.37603 171.366 2.39192C171.104 2.42195 170.962 2.0637 170.918 1.86558C170.908 1.82157 170.905 1.78757 170.864 1.8435C170.736 2.00968 170.638 2.93843 170.508 2.99039L169.999 3.19262C169.999 3.19262 169.977 3.20292 169.969 3.1726C169.911 2.95639 170.436 2.20588 170.582 1.9536C170.602 1.92166 170.722 1.68749 170.744 1.66938C170.782 1.63744 171.013 1.57798 171.061 1.58593Z" fill="var(--fill-0, #7F7F7F)"/>
</g>
<path id="_158452176" d="M18.8761 19.2338H11.8774L7.59093 12.1238L6.19821 13.5734V19.2338H0.347656V1.3457H6.19821V7.11912L11.2147 1.3457H18.0765L11.6428 8.01755L18.8761 19.2338ZM26.7097 12.5976C26.7097 11.7797 26.5178 11.038 26.1337 10.3811C25.7496 9.72419 25.1569 9.3936 24.3471 9.3936C23.6248 9.3936 23.0781 9.72418 22.7107 10.3853C22.3433 11.0506 22.1597 11.7882 22.1597 12.5976C22.1597 13.4664 22.3558 14.2886 22.7484 15.0557C23.1365 15.827 23.7375 16.2126 24.5432 16.2126C25.3197 16.2126 25.8749 15.8397 26.2088 15.0896C26.5428 14.3395 26.7097 13.5088 26.7097 12.5976ZM30.7675 16.6278C29.385 18.6786 27.0155 19.6383 24.5648 19.6383C22.0392 19.6383 19.605 18.6867 18.1934 16.5544C16.8987 14.5983 16.733 11.4087 17.8237 9.32163C18.6628 7.71537 20.2007 6.55436 21.964 6.08263C23.9063 5.54333 26.0084 5.65991 27.8731 6.4294C29.6169 7.1462 30.9141 8.62102 31.479 10.3742C32.0957 12.2883 31.8756 14.9836 30.7675 16.6278ZM76.1065 11.2854C75.9235 10.4335 75.6225 9.84296 75.2073 9.51385C74.7882 9.17989 74.2593 9.01533 73.6124 9.01533C72.9858 9.01533 72.4894 9.17518 72.1232 9.49928C71.757 9.81883 71.4802 10.4142 71.2889 11.2854H76.1065ZM81.1114 13.8117H71.3395C71.3395 14.2144 71.4087 14.5678 71.547 14.8757C71.9675 15.8123 72.7283 16.4445 73.8175 16.4445C74.6174 16.4445 75.5399 16.1223 75.7119 15.2531H80.7166C80.5267 16.4864 79.7398 17.5746 78.727 18.2896C77.7052 19.0087 76.4503 19.4094 75.2114 19.5508C73.6224 19.7462 71.784 19.693 70.3124 19.0784C68.6005 18.3666 67.3221 17.0506 66.626 15.3523C65.9866 13.6971 65.9779 11.861 66.5976 10.1925C67.2404 8.46161 68.5638 7.12295 70.2799 6.41306C72.3669 5.55349 75.2889 5.61178 77.3069 6.61839C79.0975 7.50828 80.3188 9.02534 80.8265 10.9401C81.0771 11.9033 81.1723 12.8262 81.1114 13.8117ZM95.129 16.6527C94.1675 18.4862 92.3918 19.6315 90.2514 19.6315C88.7142 19.6315 87.703 19.1317 86.6641 18.065V23.674H81.4508V6.24365H86.0669V8.18711C87.0683 6.1911 89.5465 5.46591 91.546 5.96944C93.7244 6.513 95.1915 8.34534 95.7137 10.4048C96.202 12.3189 96.0327 14.9427 95.129 16.6527ZM90.8826 12.4146C90.8826 11.8637 90.7 11.2623 90.3303 10.6145C89.9607 9.9669 89.425 9.64308 88.7273 9.64308C88.0339 9.64308 87.4982 9.94585 87.1245 10.5556C86.7507 11.1613 86.5638 11.7795 86.5638 12.4146C86.5638 13.1928 86.7092 13.9203 86.9999 14.5933C87.2946 15.2662 87.8678 15.6027 88.7273 15.6027C89.5663 15.6027 90.1311 15.2536 90.4342 14.5555C90.7085 13.8816 90.8826 13.1448 90.8826 12.4146ZM107.197 19.0843C105.171 19.794 102.418 19.9029 100.401 19.0634C99.1312 18.5348 98.0055 17.6429 97.2946 16.4568C96.5997 15.3177 96.2387 14.0054 96.2387 12.6695C96.2387 11.7798 96.4258 10.9055 96.7402 10.0754C97.4688 8.20875 98.7288 7.13767 100.548 6.3957C102.63 5.54643 105.722 5.57734 107.699 6.65342C109.583 7.67902 110.569 9.09143 110.828 11.173H105.493C105.399 10.5327 105.219 10.1369 104.955 9.79925C104.208 8.84224 102.517 9.30985 101.977 10.2542C101.288 11.4592 101.174 13.2392 101.61 14.56C101.897 15.4306 102.842 16.1688 103.761 16.1688C105.062 16.1688 105.333 15.2918 105.673 14.2018H110.828C110.774 16.3813 109.471 18.2874 107.197 19.0843ZM120.337 14.1258C120.337 13.884 120.315 13.6854 120.272 13.5343C119.914 13.7328 119.356 13.9056 118.597 14.0524C118.018 14.158 117.404 14.2873 116.886 14.5706C116.154 14.9331 116.193 15.9727 116.834 16.3926C117.576 16.8389 118.819 16.8021 119.443 16.1769C120.036 15.6111 120.337 14.929 120.337 14.1258ZM126.137 19.2338H120.801L120.598 17.8579C120.209 18.3608 119.34 18.7752 118.462 19.1133C118.034 19.2781 117.595 19.4085 117.145 19.4915C116.694 19.5706 116.216 19.6122 115.717 19.6122C114.817 19.6122 113.994 19.4543 113.248 19.1383C112.502 18.8223 111.939 18.3276 111.549 17.6624C111.201 16.9308 111.026 16.1907 111.026 15.4342C111.026 14.4779 111.471 13.6894 112.083 12.9826C112.432 12.5795 112.774 12.3529 113.39 12.1161C113.682 12.004 113.971 11.9065 114.254 11.8251C114.534 11.7445 114.8 11.6676 115.052 11.6297L117.238 11.3013C118.165 11.1619 119.063 11.0417 119.459 10.9105C119.703 10.8297 119.991 10.5659 120.133 10.3996C120.275 10.2335 120.254 10.0587 120.254 9.88005C120.254 9.63469 120.136 9.43099 119.897 9.26481C119.658 9.09849 119.317 9.01533 118.875 9.01533C118.344 9.01533 117.684 9.09437 117.363 9.2523C117.043 9.41023 116.836 9.72624 116.739 10.1959H111.796C111.962 9.3437 111.932 8.84621 112.174 8.32576C112.415 7.80692 112.794 7.36139 113.313 6.99136C113.832 6.62148 114.545 6.33387 115.458 6.14327C115.899 6.05128 116.423 5.9871 117.019 5.93956C117.619 5.89158 118.284 5.86479 119.022 5.86479C120.818 5.86479 122.163 6.0785 123.06 6.50491C123.955 6.93072 124.539 7.27381 124.812 7.91363C125.083 8.55007 125.266 9.37697 125.351 10.3914V17.2591C125.351 17.9659 125.614 18.4898 126.137 18.8307V19.2338ZM140.638 19.2338H135.491V14.3788H131.678V19.2338H126.58L126.575 6.44618L126.58 6.25071H131.678V10.601H135.433V6.25071H140.638L140.634 19.0011L140.638 19.2338ZM154.942 10.0771H150.51V19.2338H145.346V10.0771H140.876V6.25071H154.942V10.0771ZM171.663 15.0791C171.663 16.2196 171.12 17.2215 170.247 17.936C169.1 18.8857 167.512 19.2338 166.055 19.2338H158.087V10.0771H155.11V6.25071H163.055V10.8075H165.773C167.286 10.8075 168.963 11.1035 170.162 12.0976C171.064 12.8448 171.663 13.89 171.663 15.0791ZM166.531 15.0924C166.531 14.2721 166.077 13.928 165.297 13.8345C165.139 13.8345 164.825 13.8213 164.361 13.8014C163.897 13.7807 163.275 13.7724 163.055 13.7724V16.2799L164.346 16.3048C164.698 16.3122 164.988 16.2974 165.212 16.2799C166.005 16.221 166.531 16.0055 166.531 15.0924ZM41.8081 19.2337H39.306L36.5721 10.5606L36.9944 13.9601V19.2337H32.429V6.1758H38.2841L40.5571 13.3887L42.8301 6.1758H48.6853V19.2337H44.1198V13.9601L44.542 10.5606L41.8081 19.2337ZM58.905 19.2337H56.4029L53.669 10.5606L54.0913 13.9601V19.2337H49.5257V6.1758H55.381L57.654 13.3887L59.927 6.1758H65.7821V19.2337H61.2167V13.9601L61.6389 10.5606L58.905 19.2337Z" fill="var(--fill-0, black)"/>
</g>
<defs>
<clipPath id="clip0_641_4643">
<rect width="174" height="24.36" fill="white"/>
</clipPath>
</defs>
</svg>
