<svg width="32" height="32" viewBox="0 0 32 32" fill="none" xmlns="http://www.w3.org/2000/svg">
<g filter="url(#filter0_iiiii_1954_4672)">
<path d="M0 14.8381C0 9.64425 0 7.04737 1.01079 5.0636C1.8999 3.31861 3.31861 1.8999 5.0636 1.01079C7.04737 0 9.64425 0 14.8381 0H16.7686C21.9624 0 24.5593 0 26.5431 1.01079C28.2881 1.8999 29.7068 3.31861 30.5959 5.0636C31.6067 7.04737 31.6067 9.64425 31.6067 14.8381V16.7686C31.6067 21.9624 31.6067 24.5593 30.5959 26.5431C29.7068 28.2881 28.2881 29.7068 26.5431 30.5959C24.5593 31.6067 21.9624 31.6067 16.7686 31.6067H14.8381C9.64425 31.6067 7.04737 31.6067 5.0636 30.5959C3.31861 29.7068 1.8999 28.2881 1.01079 26.5431C0 24.5593 0 21.9624 0 16.7686V14.8381Z" fill="url(#paint0_linear_1954_4672)"/>
</g>
<g filter="url(#filter1_i_1954_4672)">
<path d="M23.9157 11.1528C22.7837 11.1528 21.7614 11.4951 20.8886 12.0811V6.7334H18.474V16.5957C18.474 19.5962 20.9152 22.0108 23.9024 22.0108C26.8897 22.0108 29.3586 19.6106 29.3586 16.568C29.3586 13.5252 26.9439 11.1528 23.9157 11.1528ZM12.9576 17.2925L10.7479 11.5362H9.05654L6.83354 17.2925L4.6106 11.5362H1.97656L5.86434 21.6576H7.55568L9.88832 15.6288L12.2343 21.6576H13.9256L17.8001 11.5362H15.1805L12.9576 17.2925ZM23.9036 19.5974C22.2666 19.5974 20.8886 18.2882 20.8886 16.5824C20.8886 14.8766 22.1846 13.5819 23.9169 13.5819C25.6492 13.5819 26.9451 14.932 26.9451 16.5824C26.9451 18.2328 25.5672 19.5974 23.9036 19.5974Z" fill="#F1F1F1"/>
</g>
<defs>
<filter id="filter0_iiiii_1954_4672" x="-0.462537" y="-0.632134" width="33.3027" height="33.6264" filterUnits="userSpaceOnUse" color-interpolation-filters="sRGB">
<feFlood flood-opacity="0" result="BackgroundImageFix"/>
<feBlend mode="normal" in="SourceGraphic" in2="BackgroundImageFix" result="shape"/>
<feColorMatrix in="SourceAlpha" type="matrix" values="0 0 0 0 0 0 0 0 0 0 0 0 0 0 0 0 0 0 127 0" result="hardAlpha"/>
<feOffset dx="-0.308358" dy="-0.308358"/>
<feGaussianBlur stdDeviation="0.323776"/>
<feComposite in2="hardAlpha" operator="arithmetic" k2="-1" k3="1"/>
<feColorMatrix type="matrix" values="0 0 0 0 1 0 0 0 0 1 0 0 0 0 1 0 0 0 0.41 0"/>
<feBlend mode="plus-lighter" in2="shape" result="effect1_innerShadow_1954_4672"/>
<feColorMatrix in="SourceAlpha" type="matrix" values="0 0 0 0 0 0 0 0 0 0 0 0 0 0 0 0 0 0 127 0" result="hardAlpha"/>
<feOffset dx="-0.462537" dy="-0.770895"/>
<feGaussianBlur stdDeviation="0.316067"/>
<feComposite in2="hardAlpha" operator="arithmetic" k2="-1" k3="1"/>
<feColorMatrix type="matrix" values="0 0 0 0 0 0 0 0 0 0 0 0 0 0 0 0 0 0 0.25 0"/>
<feBlend mode="normal" in2="effect1_innerShadow_1954_4672" result="effect2_innerShadow_1954_4672"/>
<feColorMatrix in="SourceAlpha" type="matrix" values="0 0 0 0 0 0 0 0 0 0 0 0 0 0 0 0 0 0 127 0" result="hardAlpha"/>
<feOffset dx="1.23343" dy="1.38761"/>
<feGaussianBlur stdDeviation="0.778604"/>
<feComposite in2="hardAlpha" operator="arithmetic" k2="-1" k3="1"/>
<feColorMatrix type="matrix" values="0 0 0 0 1 0 0 0 0 1 0 0 0 0 1 0 0 0 0.25 0"/>
<feBlend mode="normal" in2="effect2_innerShadow_1954_4672" result="effect3_innerShadow_1954_4672"/>
<feColorMatrix in="SourceAlpha" type="matrix" values="0 0 0 0 0 0 0 0 0 0 0 0 0 0 0 0 0 0 127 0" result="hardAlpha"/>
<feOffset dx="0.616716" dy="0.616716"/>
<feGaussianBlur stdDeviation="0.323776"/>
<feComposite in2="hardAlpha" operator="arithmetic" k2="-1" k3="1"/>
<feColorMatrix type="matrix" values="0 0 0 0 1 0 0 0 0 1 0 0 0 0 1 0 0 0 0.19 0"/>
<feBlend mode="plus-lighter" in2="effect3_innerShadow_1954_4672" result="effect4_innerShadow_1954_4672"/>
<feColorMatrix in="SourceAlpha" type="matrix" values="0 0 0 0 0 0 0 0 0 0 0 0 0 0 0 0 0 0 127 0" result="hardAlpha"/>
<feOffset dx="0.308358" dy="0.308358"/>
<feGaussianBlur stdDeviation="0.562753"/>
<feComposite in2="hardAlpha" operator="arithmetic" k2="-1" k3="1"/>
<feColorMatrix type="matrix" values="0 0 0 0 0 0 0 0 0 0 0 0 0 0 0 0 0 0 0.2 0"/>
<feBlend mode="color-burn" in2="effect4_innerShadow_1954_4672" result="effect5_innerShadow_1954_4672"/>
</filter>
<filter id="filter1_i_1954_4672" x="1.97656" y="6.7334" width="27.675" height="15.5704" filterUnits="userSpaceOnUse" color-interpolation-filters="sRGB">
<feFlood flood-opacity="0" result="BackgroundImageFix"/>
<feBlend mode="normal" in="SourceGraphic" in2="BackgroundImageFix" result="shape"/>
<feColorMatrix in="SourceAlpha" type="matrix" values="0 0 0 0 0 0 0 0 0 0 0 0 0 0 0 0 0 0 127 0" result="hardAlpha"/>
<feOffset dx="0.308358" dy="0.462537"/>
<feGaussianBlur stdDeviation="0.14647"/>
<feComposite in2="hardAlpha" operator="arithmetic" k2="-1" k3="1"/>
<feColorMatrix type="matrix" values="0 0 0 0 1 0 0 0 0 1 0 0 0 0 1 0 0 0 1 0"/>
<feBlend mode="lighten" in2="shape" result="effect1_innerShadow_1954_4672"/>
</filter>
<linearGradient id="paint0_linear_1954_4672" x1="10.6314" y1="34.3364" x2="30.0264" y2="2.01134" gradientUnits="userSpaceOnUse">
<stop stop-color="#6F01FB"/>
<stop offset="1" stop-color="#FF49D7"/>
</linearGradient>
</defs>
</svg>
