<svg preserveAspectRatio="none" width="100%" height="100%" overflow="visible" style="display: block;" viewBox="0 0 30 25.5" fill="none" xmlns="http://www.w3.org/2000/svg">
<path id="Union" fill-rule="evenodd" clip-rule="evenodd" d="M0.635763 4.34862C0.245565 3.994 0 3.47865 0 2.90506V0H3.81457V2.90506C3.81457 3.47864 3.56901 3.99399 3.17882 4.34861V16.4441L5.94041 15.2476V6.77849C5.94041 4.86124 7.3638 3.43094 8.99118 2.55609C10.6755 1.65067 12.9144 1.12975 15.3179 1.12975C17.7214 1.12975 19.9603 1.65067 21.6446 2.55609C23.272 3.43094 24.6954 4.86124 24.6954 6.77849V15.2476L29.2275 17.2112C29.696 17.4142 30 17.8815 30 18.3987C30 18.916 29.696 19.3833 29.2275 19.5863L15.8169 25.3964C15.4981 25.5345 15.1376 25.5345 14.8189 25.3964L1.43583 19.5982C1.31792 19.5504 1.20872 19.4852 1.11129 19.4057C0.821344 19.169 0.635763 18.8059 0.635763 18.3987V18.3987V4.34862ZM8.48347 6.77849C8.48347 6.28907 8.87465 5.54058 10.181 4.83829C11.4306 4.16658 13.2445 3.71204 15.3179 3.71204C17.3913 3.71204 19.2052 4.16658 20.4548 4.83829C21.7611 5.54058 22.1523 6.28907 22.1523 6.77849V14.1459L15.8169 11.401C15.4981 11.2629 15.1376 11.2629 14.8189 11.401L8.48347 14.1459V6.77849ZM7.68486 17.2994C7.70208 17.2923 7.71912 17.285 7.73595 17.2772L15.3179 13.9924L22.9004 17.2775C22.9169 17.285 22.9335 17.2923 22.9504 17.2991L25.4884 18.3987L15.3179 22.8051L5.14735 18.3987L7.68486 17.2994Z" fill="var(--fill-0, #C16FFB)"/>
</svg>
